%TF.GenerationSoftware,KiCad,Pcbnew,7.0.7*%
%TF.CreationDate,2023-11-09T13:19:11-08:00*%
%TF.ProjectId,Balance_Bot,42616c61-6e63-4655-9f42-6f742e6b6963,rev?*%
%TF.SameCoordinates,Original*%
%TF.FileFunction,Soldermask,Bot*%
%TF.FilePolarity,Negative*%
%FSLAX46Y46*%
G04 Gerber Fmt 4.6, Leading zero omitted, Abs format (unit mm)*
G04 Created by KiCad (PCBNEW 7.0.7) date 2023-11-09 13:19:11*
%MOMM*%
%LPD*%
G01*
G04 APERTURE LIST*
%ADD10C,3.200000*%
%ADD11C,0.770000*%
%ADD12R,1.600000X1.600000*%
%ADD13C,1.600000*%
%ADD14C,2.200000*%
%ADD15R,2.200000X2.200000*%
%ADD16C,1.100000*%
%ADD17R,1.700000X1.700000*%
%ADD18O,1.700000X1.700000*%
G04 APERTURE END LIST*
D10*
%TO.C,H6*%
X178600000Y-116050000D03*
%TD*%
%TO.C,H5*%
X178600000Y-131350000D03*
%TD*%
%TO.C,H4*%
X122919000Y-142686000D03*
%TD*%
D11*
%TO.C,U2*%
X161798000Y-74736000D03*
X161798000Y-73436000D03*
X161798000Y-72136000D03*
X160498000Y-74736000D03*
X160498000Y-73436000D03*
X160498000Y-72136000D03*
%TD*%
D12*
%TO.C,C7*%
X169251621Y-78232000D03*
D13*
X171751621Y-78232000D03*
%TD*%
D10*
%TO.C,H3*%
X201249000Y-142686000D03*
%TD*%
D14*
%TO.C,J3*%
X190500000Y-89154000D03*
D15*
X190500000Y-91694000D03*
D16*
X193040000Y-89154000D03*
X193040000Y-91694000D03*
%TD*%
D17*
%TO.C,J4*%
X190350000Y-132674469D03*
D18*
X190350000Y-130134469D03*
X190350000Y-127594469D03*
X190350000Y-125054469D03*
X190350000Y-122514469D03*
X190350000Y-119974469D03*
X190350000Y-117434469D03*
X190350000Y-114894469D03*
%TD*%
D15*
%TO.C,J1*%
X190500000Y-84582000D03*
D14*
X190500000Y-82042000D03*
X190500000Y-79502000D03*
X190500000Y-76962000D03*
X190500000Y-74422000D03*
X190500000Y-71882000D03*
%TD*%
D10*
%TO.C,H2*%
X201249000Y-64446000D03*
%TD*%
D12*
%TO.C,C9*%
X169317621Y-103000000D03*
D13*
X171817621Y-103000000D03*
%TD*%
D11*
%TO.C,U4*%
X161544000Y-99374000D03*
X161544000Y-98074000D03*
X161544000Y-96774000D03*
X160244000Y-99374000D03*
X160244000Y-98074000D03*
X160244000Y-96774000D03*
%TD*%
D15*
%TO.C,J2*%
X190500000Y-108966000D03*
D14*
X190500000Y-106426000D03*
X190500000Y-103886000D03*
X190500000Y-101346000D03*
X190500000Y-98806000D03*
X190500000Y-96266000D03*
%TD*%
D10*
%TO.C,H1*%
X122919000Y-64446000D03*
%TD*%
D12*
%TO.C,A1*%
X150622000Y-129286000D03*
D13*
X150622000Y-126746000D03*
X150622000Y-124206000D03*
X150622000Y-121666000D03*
X150622000Y-119126000D03*
X150622000Y-116586000D03*
X150622000Y-114046000D03*
X150622000Y-111506000D03*
X150622000Y-108966000D03*
X150622000Y-106426000D03*
X150622000Y-103886000D03*
X150622000Y-101346000D03*
X150622000Y-98806000D03*
X150622000Y-96266000D03*
X150622000Y-93726000D03*
X150622000Y-91186000D03*
X130302000Y-91186000D03*
X130302000Y-93726000D03*
X130302000Y-96266000D03*
X130302000Y-98806000D03*
X130302000Y-101346000D03*
X130302000Y-103886000D03*
X130302000Y-106426000D03*
X130302000Y-108966000D03*
X130302000Y-111506000D03*
X130302000Y-114046000D03*
X130302000Y-116586000D03*
X130302000Y-119126000D03*
%TD*%
M02*
