%TF.GenerationSoftware,KiCad,Pcbnew,7.0.7*%
%TF.CreationDate,2023-11-09T13:19:11-08:00*%
%TF.ProjectId,Balance_Bot,42616c61-6e63-4655-9f42-6f742e6b6963,rev?*%
%TF.SameCoordinates,Original*%
%TF.FileFunction,Soldermask,Top*%
%TF.FilePolarity,Negative*%
%FSLAX46Y46*%
G04 Gerber Fmt 4.6, Leading zero omitted, Abs format (unit mm)*
G04 Created by KiCad (PCBNEW 7.0.7) date 2023-11-09 13:19:11*
%MOMM*%
%LPD*%
G01*
G04 APERTURE LIST*
G04 Aperture macros list*
%AMRoundRect*
0 Rectangle with rounded corners*
0 $1 Rounding radius*
0 $2 $3 $4 $5 $6 $7 $8 $9 X,Y pos of 4 corners*
0 Add a 4 corners polygon primitive as box body*
4,1,4,$2,$3,$4,$5,$6,$7,$8,$9,$2,$3,0*
0 Add four circle primitives for the rounded corners*
1,1,$1+$1,$2,$3*
1,1,$1+$1,$4,$5*
1,1,$1+$1,$6,$7*
1,1,$1+$1,$8,$9*
0 Add four rect primitives between the rounded corners*
20,1,$1+$1,$2,$3,$4,$5,0*
20,1,$1+$1,$4,$5,$6,$7,0*
20,1,$1+$1,$6,$7,$8,$9,0*
20,1,$1+$1,$8,$9,$2,$3,0*%
G04 Aperture macros list end*
%ADD10C,3.200000*%
%ADD11RoundRect,0.250000X-0.262500X-0.450000X0.262500X-0.450000X0.262500X0.450000X-0.262500X0.450000X0*%
%ADD12RoundRect,0.250000X-0.450000X0.262500X-0.450000X-0.262500X0.450000X-0.262500X0.450000X0.262500X0*%
%ADD13C,0.770000*%
%ADD14RoundRect,0.070000X-1.100000X-0.250000X1.100000X-0.250000X1.100000X0.250000X-1.100000X0.250000X0*%
%ADD15R,2.400000X3.100000*%
%ADD16RoundRect,0.250000X0.250000X0.475000X-0.250000X0.475000X-0.250000X-0.475000X0.250000X-0.475000X0*%
%ADD17R,1.600000X1.600000*%
%ADD18C,1.600000*%
%ADD19C,2.200000*%
%ADD20R,2.200000X2.200000*%
%ADD21C,1.100000*%
%ADD22RoundRect,0.075000X-0.350000X-0.075000X0.350000X-0.075000X0.350000X0.075000X-0.350000X0.075000X0*%
%ADD23RoundRect,0.075000X0.075000X-0.350000X0.075000X0.350000X-0.075000X0.350000X-0.075000X-0.350000X0*%
%ADD24R,1.700000X1.700000*%
%ADD25O,1.700000X1.700000*%
%ADD26RoundRect,0.243750X0.456250X-0.243750X0.456250X0.243750X-0.456250X0.243750X-0.456250X-0.243750X0*%
%ADD27RoundRect,0.250000X0.450000X-0.262500X0.450000X0.262500X-0.450000X0.262500X-0.450000X-0.262500X0*%
%ADD28RoundRect,0.250000X-0.250000X-0.475000X0.250000X-0.475000X0.250000X0.475000X-0.250000X0.475000X0*%
G04 APERTURE END LIST*
D10*
%TO.C,H6*%
X178600000Y-116050000D03*
%TD*%
%TO.C,H5*%
X178600000Y-131350000D03*
%TD*%
D11*
%TO.C,R11*%
X125587500Y-89000000D03*
X127412500Y-89000000D03*
%TD*%
D10*
%TO.C,H4*%
X122919000Y-142686000D03*
%TD*%
D12*
%TO.C,R8*%
X156464000Y-101957500D03*
X156464000Y-103782500D03*
%TD*%
D13*
%TO.C,U2*%
X161798000Y-74736000D03*
X161798000Y-73436000D03*
X161798000Y-72136000D03*
X160498000Y-74736000D03*
X160498000Y-73436000D03*
X160498000Y-72136000D03*
D14*
X164023000Y-71531000D03*
X164023000Y-72801000D03*
X164023000Y-74071000D03*
X164023000Y-75341000D03*
X158273000Y-75341000D03*
X158273000Y-74071000D03*
X158273000Y-72801000D03*
X158273000Y-71531000D03*
D15*
X161148000Y-73436000D03*
%TD*%
D16*
%TO.C,C5*%
X165288000Y-78486000D03*
X163388000Y-78486000D03*
%TD*%
D17*
%TO.C,C7*%
X169251621Y-78232000D03*
D18*
X171751621Y-78232000D03*
%TD*%
D10*
%TO.C,H3*%
X201249000Y-142686000D03*
%TD*%
D19*
%TO.C,J3*%
X190500000Y-89154000D03*
D20*
X190500000Y-91694000D03*
D21*
X193040000Y-89154000D03*
X193040000Y-91694000D03*
%TD*%
D16*
%TO.C,C2*%
X165750000Y-123100000D03*
X163850000Y-123100000D03*
%TD*%
D22*
%TO.C,U1*%
X160550000Y-116350000D03*
X160550000Y-116850000D03*
X160550000Y-117350000D03*
X160550000Y-117850000D03*
X160550000Y-118350000D03*
X160550000Y-118850000D03*
D23*
X161250000Y-119550000D03*
X161750000Y-119550000D03*
X162250000Y-119550000D03*
X162750000Y-119550000D03*
X163250000Y-119550000D03*
X163750000Y-119550000D03*
D22*
X164450000Y-118850000D03*
X164450000Y-118350000D03*
X164450000Y-117850000D03*
X164450000Y-117350000D03*
X164450000Y-116850000D03*
X164450000Y-116350000D03*
D23*
X163750000Y-115650000D03*
X163250000Y-115650000D03*
X162750000Y-115650000D03*
X162250000Y-115650000D03*
X161750000Y-115650000D03*
X161250000Y-115650000D03*
%TD*%
D16*
%TO.C,C6*%
X165034000Y-103124000D03*
X163134000Y-103124000D03*
%TD*%
D12*
%TO.C,R1*%
X156718000Y-77216000D03*
X156718000Y-79041000D03*
%TD*%
D24*
%TO.C,J4*%
X190350000Y-132674469D03*
D25*
X190350000Y-130134469D03*
X190350000Y-127594469D03*
X190350000Y-125054469D03*
X190350000Y-122514469D03*
X190350000Y-119974469D03*
X190350000Y-117434469D03*
X190350000Y-114894469D03*
%TD*%
D26*
%TO.C,D1*%
X158000000Y-86537500D03*
X158000000Y-84662500D03*
%TD*%
D20*
%TO.C,J1*%
X190500000Y-84582000D03*
D19*
X190500000Y-82042000D03*
X190500000Y-79502000D03*
X190500000Y-76962000D03*
X190500000Y-74422000D03*
X190500000Y-71882000D03*
%TD*%
D10*
%TO.C,H2*%
X201249000Y-64446000D03*
%TD*%
D17*
%TO.C,C9*%
X169317621Y-103000000D03*
D18*
X171817621Y-103000000D03*
%TD*%
D13*
%TO.C,U4*%
X161544000Y-99374000D03*
X161544000Y-98074000D03*
X161544000Y-96774000D03*
X160244000Y-99374000D03*
X160244000Y-98074000D03*
X160244000Y-96774000D03*
D14*
X163769000Y-96169000D03*
X163769000Y-97439000D03*
X163769000Y-98709000D03*
X163769000Y-99979000D03*
X158019000Y-99979000D03*
X158019000Y-98709000D03*
X158019000Y-97439000D03*
X158019000Y-96169000D03*
D15*
X160894000Y-98074000D03*
%TD*%
D16*
%TO.C,C3*%
X161350000Y-123100000D03*
X159450000Y-123100000D03*
%TD*%
%TO.C,C1*%
X165200000Y-112492000D03*
X163300000Y-112492000D03*
%TD*%
D27*
%TO.C,R2*%
X161200000Y-84687500D03*
X161200000Y-86512500D03*
%TD*%
D20*
%TO.C,J2*%
X190500000Y-108966000D03*
D19*
X190500000Y-106426000D03*
X190500000Y-103886000D03*
X190500000Y-101346000D03*
X190500000Y-98806000D03*
X190500000Y-96266000D03*
%TD*%
D11*
%TO.C,R10*%
X125587500Y-96000000D03*
X127412500Y-96000000D03*
%TD*%
D10*
%TO.C,H1*%
X122919000Y-64446000D03*
%TD*%
D28*
%TO.C,C4*%
X169750000Y-118900000D03*
X167850000Y-118900000D03*
%TD*%
D17*
%TO.C,A1*%
X150622000Y-129286000D03*
D18*
X150622000Y-126746000D03*
X150622000Y-124206000D03*
X150622000Y-121666000D03*
X150622000Y-119126000D03*
X150622000Y-116586000D03*
X150622000Y-114046000D03*
X150622000Y-111506000D03*
X150622000Y-108966000D03*
X150622000Y-106426000D03*
X150622000Y-103886000D03*
X150622000Y-101346000D03*
X150622000Y-98806000D03*
X150622000Y-96266000D03*
X150622000Y-93726000D03*
X150622000Y-91186000D03*
X130302000Y-91186000D03*
X130302000Y-93726000D03*
X130302000Y-96266000D03*
X130302000Y-98806000D03*
X130302000Y-101346000D03*
X130302000Y-103886000D03*
X130302000Y-106426000D03*
X130302000Y-108966000D03*
X130302000Y-111506000D03*
X130302000Y-114046000D03*
X130302000Y-116586000D03*
X130302000Y-119126000D03*
%TD*%
M02*
