%TF.GenerationSoftware,KiCad,Pcbnew,7.0.7*%
%TF.CreationDate,2023-11-09T13:22:12-08:00*%
%TF.ProjectId,Balance_Bot,42616c61-6e63-4655-9f42-6f742e6b6963,rev?*%
%TF.SameCoordinates,Original*%
%TF.FileFunction,Drillmap*%
%TF.FilePolarity,Positive*%
%FSLAX45Y45*%
G04 Gerber Fmt 4.5, Leading zero omitted, Abs format (unit mm)*
G04 Created by KiCad (PCBNEW 7.0.7) date 2023-11-09 13:22:12*
%MOMM*%
%LPD*%
G01*
G04 APERTURE LIST*
%ADD10C,0.100000*%
%ADD11C,0.200000*%
%ADD12C,0.033000*%
%ADD13C,0.040000*%
%ADD14C,0.080000*%
%ADD15C,0.110000*%
G04 APERTURE END LIST*
D10*
X11951700Y-6102100D02*
X20485100Y-6102100D01*
X20485100Y-14611100D01*
X11951700Y-14611100D01*
X11951700Y-6102100D01*
D11*
D12*
X16007900Y-9660900D02*
X16040900Y-9693900D01*
X16040900Y-9660900D02*
X16007900Y-9693900D01*
X16007900Y-9790900D02*
X16040900Y-9823900D01*
X16040900Y-9790900D02*
X16007900Y-9823900D01*
X16007900Y-9920900D02*
X16040900Y-9953900D01*
X16040900Y-9920900D02*
X16007900Y-9953900D01*
X16033300Y-7197100D02*
X16066300Y-7230100D01*
X16066300Y-7197100D02*
X16033300Y-7230100D01*
X16033300Y-7327100D02*
X16066300Y-7360100D01*
X16066300Y-7327100D02*
X16033300Y-7360100D01*
X16033300Y-7457100D02*
X16066300Y-7490100D01*
X16066300Y-7457100D02*
X16033300Y-7490100D01*
X16137900Y-9660900D02*
X16170900Y-9693900D01*
X16170900Y-9660900D02*
X16137900Y-9693900D01*
X16137900Y-9790900D02*
X16170900Y-9823900D01*
X16170900Y-9790900D02*
X16137900Y-9823900D01*
X16137900Y-9920900D02*
X16170900Y-9953900D01*
X16170900Y-9920900D02*
X16137900Y-9953900D01*
X16163300Y-7197100D02*
X16196300Y-7230100D01*
X16196300Y-7197100D02*
X16163300Y-7230100D01*
X16163300Y-7327100D02*
X16196300Y-7360100D01*
X16196300Y-7327100D02*
X16163300Y-7360100D01*
X16163300Y-7457100D02*
X16196300Y-7490100D01*
X16196300Y-7457100D02*
X16163300Y-7490100D01*
D13*
X12330000Y-10260000D02*
G75*
G03*
X12330000Y-10260000I-20000J0D01*
G01*
X12445000Y-10365000D02*
G75*
G03*
X12445000Y-10365000I-20000J0D01*
G01*
X12690000Y-9950000D02*
G75*
G03*
X12690000Y-9950000I-20000J0D01*
G01*
X12695000Y-10525000D02*
G75*
G03*
X12695000Y-10525000I-20000J0D01*
G01*
X12745000Y-10260000D02*
G75*
G03*
X12745000Y-10260000I-20000J0D01*
G01*
X12815000Y-10000000D02*
G75*
G03*
X12815000Y-10000000I-20000J0D01*
G01*
X13013680Y-8020000D02*
G75*
G03*
X13013680Y-8020000I-20000J0D01*
G01*
X13013680Y-8300000D02*
G75*
G03*
X13013680Y-8300000I-20000J0D01*
G01*
X13313680Y-12920000D02*
G75*
G03*
X13313680Y-12920000I-20000J0D01*
G01*
X13313680Y-13200000D02*
G75*
G03*
X13313680Y-13200000I-20000J0D01*
G01*
X13363680Y-11020000D02*
G75*
G03*
X13363680Y-11020000I-20000J0D01*
G01*
X13363680Y-11300000D02*
G75*
G03*
X13363680Y-11300000I-20000J0D01*
G01*
X13363680Y-11720000D02*
G75*
G03*
X13363680Y-11720000I-20000J0D01*
G01*
X13363680Y-12000000D02*
G75*
G03*
X13363680Y-12000000I-20000J0D01*
G01*
X13370000Y-8020000D02*
G75*
G03*
X13370000Y-8020000I-20000J0D01*
G01*
X13370000Y-8300000D02*
G75*
G03*
X13370000Y-8300000I-20000J0D01*
G01*
X13663680Y-7820000D02*
G75*
G03*
X13663680Y-7820000I-20000J0D01*
G01*
X13663680Y-8100000D02*
G75*
G03*
X13663680Y-8100000I-20000J0D01*
G01*
X13670000Y-12920000D02*
G75*
G03*
X13670000Y-12920000I-20000J0D01*
G01*
X13670000Y-13200000D02*
G75*
G03*
X13670000Y-13200000I-20000J0D01*
G01*
X13713680Y-6420000D02*
G75*
G03*
X13713680Y-6420000I-20000J0D01*
G01*
X13713680Y-6700000D02*
G75*
G03*
X13713680Y-6700000I-20000J0D01*
G01*
X13718400Y-14039000D02*
G75*
G03*
X13718400Y-14039000I-20000J0D01*
G01*
X13718400Y-14319000D02*
G75*
G03*
X13718400Y-14319000I-20000J0D01*
G01*
X13720000Y-11300000D02*
G75*
G03*
X13720000Y-11300000I-20000J0D01*
G01*
X13720000Y-11720000D02*
G75*
G03*
X13720000Y-11720000I-20000J0D01*
G01*
X13720000Y-12000000D02*
G75*
G03*
X13720000Y-12000000I-20000J0D01*
G01*
X13800000Y-10960000D02*
G75*
G03*
X13800000Y-10960000I-20000J0D01*
G01*
X13813680Y-8670000D02*
G75*
G03*
X13813680Y-8670000I-20000J0D01*
G01*
X13813680Y-8950000D02*
G75*
G03*
X13813680Y-8950000I-20000J0D01*
G01*
X13830000Y-12555000D02*
G75*
G03*
X13830000Y-12555000I-20000J0D01*
G01*
X13920000Y-9640000D02*
G75*
G03*
X13920000Y-9640000I-20000J0D01*
G01*
X14020000Y-7820000D02*
G75*
G03*
X14020000Y-7820000I-20000J0D01*
G01*
X14020000Y-8100000D02*
G75*
G03*
X14020000Y-8100000I-20000J0D01*
G01*
X14070000Y-6420000D02*
G75*
G03*
X14070000Y-6420000I-20000J0D01*
G01*
X14070000Y-6700000D02*
G75*
G03*
X14070000Y-6700000I-20000J0D01*
G01*
X14074720Y-14039000D02*
G75*
G03*
X14074720Y-14039000I-20000J0D01*
G01*
X14074720Y-14319000D02*
G75*
G03*
X14074720Y-14319000I-20000J0D01*
G01*
X14080000Y-11280000D02*
G75*
G03*
X14080000Y-11280000I-20000J0D01*
G01*
X14100000Y-11640000D02*
G75*
G03*
X14100000Y-11640000I-20000J0D01*
G01*
X14100000Y-12820000D02*
G75*
G03*
X14100000Y-12820000I-20000J0D01*
G01*
X14120000Y-10015000D02*
G75*
G03*
X14120000Y-10015000I-20000J0D01*
G01*
X14163680Y-12020000D02*
G75*
G03*
X14163680Y-12020000I-20000J0D01*
G01*
X14163680Y-12300000D02*
G75*
G03*
X14163680Y-12300000I-20000J0D01*
G01*
X14170000Y-8670000D02*
G75*
G03*
X14170000Y-8670000I-20000J0D01*
G01*
X14170000Y-8950000D02*
G75*
G03*
X14170000Y-8950000I-20000J0D01*
G01*
X14220000Y-9760000D02*
G75*
G03*
X14220000Y-9760000I-20000J0D01*
G01*
X14280000Y-12530000D02*
G75*
G03*
X14280000Y-12530000I-20000J0D01*
G01*
X14305000Y-9870000D02*
G75*
G03*
X14305000Y-9870000I-20000J0D01*
G01*
X14400000Y-10145000D02*
G75*
G03*
X14400000Y-10145000I-20000J0D01*
G01*
X14413680Y-12920000D02*
G75*
G03*
X14413680Y-12920000I-20000J0D01*
G01*
X14413680Y-13200000D02*
G75*
G03*
X14413680Y-13200000I-20000J0D01*
G01*
X14431040Y-14039000D02*
G75*
G03*
X14431040Y-14039000I-20000J0D01*
G01*
X14431040Y-14319000D02*
G75*
G03*
X14431040Y-14319000I-20000J0D01*
G01*
X14485000Y-9870000D02*
G75*
G03*
X14485000Y-9870000I-20000J0D01*
G01*
X14520000Y-12020000D02*
G75*
G03*
X14520000Y-12020000I-20000J0D01*
G01*
X14520000Y-12300000D02*
G75*
G03*
X14520000Y-12300000I-20000J0D01*
G01*
X14675000Y-9615000D02*
G75*
G03*
X14675000Y-9615000I-20000J0D01*
G01*
X14690000Y-9870000D02*
G75*
G03*
X14690000Y-9870000I-20000J0D01*
G01*
X14760000Y-12540000D02*
G75*
G03*
X14760000Y-12540000I-20000J0D01*
G01*
X14770000Y-12920000D02*
G75*
G03*
X14770000Y-12920000I-20000J0D01*
G01*
X14770000Y-13200000D02*
G75*
G03*
X14770000Y-13200000I-20000J0D01*
G01*
X14787360Y-14039000D02*
G75*
G03*
X14787360Y-14039000I-20000J0D01*
G01*
X14787360Y-14319000D02*
G75*
G03*
X14787360Y-14319000I-20000J0D01*
G01*
X14815000Y-9870000D02*
G75*
G03*
X14815000Y-9870000I-20000J0D01*
G01*
X14913680Y-7820000D02*
G75*
G03*
X14913680Y-7820000I-20000J0D01*
G01*
X14913680Y-8100000D02*
G75*
G03*
X14913680Y-8100000I-20000J0D01*
G01*
X14920000Y-11020000D02*
G75*
G03*
X14920000Y-11020000I-20000J0D01*
G01*
X15080000Y-7400000D02*
G75*
G03*
X15080000Y-7400000I-20000J0D01*
G01*
X15080000Y-13200000D02*
G75*
G03*
X15080000Y-13200000I-20000J0D01*
G01*
X15143680Y-14039000D02*
G75*
G03*
X15143680Y-14039000I-20000J0D01*
G01*
X15143680Y-14319000D02*
G75*
G03*
X15143680Y-14319000I-20000J0D01*
G01*
X15240000Y-11000000D02*
G75*
G03*
X15240000Y-11000000I-20000J0D01*
G01*
X15270000Y-7550000D02*
G75*
G03*
X15270000Y-7550000I-20000J0D01*
G01*
X15270000Y-7820000D02*
G75*
G03*
X15270000Y-7820000I-20000J0D01*
G01*
X15270000Y-8100000D02*
G75*
G03*
X15270000Y-8100000I-20000J0D01*
G01*
X15290000Y-11355000D02*
G75*
G03*
X15290000Y-11355000I-20000J0D01*
G01*
X15300000Y-7220000D02*
G75*
G03*
X15300000Y-7220000I-20000J0D01*
G01*
X15360000Y-10880000D02*
G75*
G03*
X15360000Y-10880000I-20000J0D01*
G01*
X15360000Y-12520000D02*
G75*
G03*
X15360000Y-12520000I-20000J0D01*
G01*
X15360000Y-12920000D02*
G75*
G03*
X15360000Y-12920000I-20000J0D01*
G01*
X15380000Y-10640000D02*
G75*
G03*
X15380000Y-10640000I-20000J0D01*
G01*
X15420000Y-10040000D02*
G75*
G03*
X15420000Y-10040000I-20000J0D01*
G01*
X15440000Y-9740000D02*
G75*
G03*
X15440000Y-9740000I-20000J0D01*
G01*
X15460000Y-11180000D02*
G75*
G03*
X15460000Y-11180000I-20000J0D01*
G01*
X15470000Y-8520000D02*
G75*
G03*
X15470000Y-8520000I-20000J0D01*
G01*
X15470000Y-8800000D02*
G75*
G03*
X15470000Y-8800000I-20000J0D01*
G01*
X15470000Y-9070000D02*
G75*
G03*
X15470000Y-9070000I-20000J0D01*
G01*
X15470000Y-9350000D02*
G75*
G03*
X15470000Y-9350000I-20000J0D01*
G01*
X15500000Y-14040000D02*
G75*
G03*
X15500000Y-14040000I-20000J0D01*
G01*
X15500000Y-14320000D02*
G75*
G03*
X15500000Y-14320000I-20000J0D01*
G01*
X15520000Y-7550000D02*
G75*
G03*
X15520000Y-7550000I-20000J0D01*
G01*
X15520000Y-10860000D02*
G75*
G03*
X15520000Y-10860000I-20000J0D01*
G01*
X15563680Y-12920000D02*
G75*
G03*
X15563680Y-12920000I-20000J0D01*
G01*
X15563680Y-13200000D02*
G75*
G03*
X15563680Y-13200000I-20000J0D01*
G01*
X15630000Y-7025000D02*
G75*
G03*
X15630000Y-7025000I-20000J0D01*
G01*
X15820000Y-11000000D02*
G75*
G03*
X15820000Y-11000000I-20000J0D01*
G01*
X15870000Y-10200000D02*
G75*
G03*
X15870000Y-10200000I-20000J0D01*
G01*
X15870000Y-10400000D02*
G75*
G03*
X15870000Y-10400000I-20000J0D01*
G01*
X15870000Y-11700000D02*
G75*
G03*
X15870000Y-11700000I-20000J0D01*
G01*
X15870000Y-11900000D02*
G75*
G03*
X15870000Y-11900000I-20000J0D01*
G01*
X15920000Y-12920000D02*
G75*
G03*
X15920000Y-12920000I-20000J0D01*
G01*
X15920000Y-13200000D02*
G75*
G03*
X15920000Y-13200000I-20000J0D01*
G01*
X15921200Y-9250000D02*
G75*
G03*
X15921200Y-9250000I-20000J0D01*
G01*
X15921200Y-9400000D02*
G75*
G03*
X15921200Y-9400000I-20000J0D01*
G01*
X15970000Y-12500000D02*
G75*
G03*
X15970000Y-12500000I-20000J0D01*
G01*
X15971200Y-6800000D02*
G75*
G03*
X15971200Y-6800000I-20000J0D01*
G01*
X15971200Y-6950000D02*
G75*
G03*
X15971200Y-6950000I-20000J0D01*
G01*
X15971200Y-7721600D02*
G75*
G03*
X15971200Y-7721600I-20000J0D01*
G01*
X15971200Y-7900000D02*
G75*
G03*
X15971200Y-7900000I-20000J0D01*
G01*
X16040000Y-11055000D02*
G75*
G03*
X16040000Y-11055000I-20000J0D01*
G01*
X16099000Y-9250000D02*
G75*
G03*
X16099000Y-9250000I-20000J0D01*
G01*
X16099000Y-9400000D02*
G75*
G03*
X16099000Y-9400000I-20000J0D01*
G01*
X16100000Y-12100000D02*
G75*
G03*
X16100000Y-12100000I-20000J0D01*
G01*
X16120000Y-10200000D02*
G75*
G03*
X16120000Y-10200000I-20000J0D01*
G01*
X16120000Y-10400000D02*
G75*
G03*
X16120000Y-10400000I-20000J0D01*
G01*
X16149000Y-6800000D02*
G75*
G03*
X16149000Y-6800000I-20000J0D01*
G01*
X16149000Y-6950000D02*
G75*
G03*
X16149000Y-6950000I-20000J0D01*
G01*
X16149000Y-7721600D02*
G75*
G03*
X16149000Y-7721600I-20000J0D01*
G01*
X16149000Y-7900000D02*
G75*
G03*
X16149000Y-7900000I-20000J0D01*
G01*
X16180000Y-10990000D02*
G75*
G03*
X16180000Y-10990000I-20000J0D01*
G01*
X16200000Y-11140000D02*
G75*
G03*
X16200000Y-11140000I-20000J0D01*
G01*
X16270000Y-9250000D02*
G75*
G03*
X16270000Y-9250000I-20000J0D01*
G01*
X16270000Y-9400000D02*
G75*
G03*
X16270000Y-9400000I-20000J0D01*
G01*
X16280000Y-12500000D02*
G75*
G03*
X16280000Y-12500000I-20000J0D01*
G01*
X16320000Y-6800000D02*
G75*
G03*
X16320000Y-6800000I-20000J0D01*
G01*
X16320000Y-6950000D02*
G75*
G03*
X16320000Y-6950000I-20000J0D01*
G01*
X16400000Y-8660000D02*
G75*
G03*
X16400000Y-8660000I-20000J0D01*
G01*
X16413680Y-12920000D02*
G75*
G03*
X16413680Y-12920000I-20000J0D01*
G01*
X16413680Y-13200000D02*
G75*
G03*
X16413680Y-13200000I-20000J0D01*
G01*
X16505000Y-12160000D02*
G75*
G03*
X16505000Y-12160000I-20000J0D01*
G01*
X16560000Y-8180000D02*
G75*
G03*
X16560000Y-8180000I-20000J0D01*
G01*
X16606200Y-7289800D02*
G75*
G03*
X16606200Y-7289800I-20000J0D01*
G01*
X16620000Y-9750000D02*
G75*
G03*
X16620000Y-9750000I-20000J0D01*
G01*
X16620000Y-11450000D02*
G75*
G03*
X16620000Y-11450000I-20000J0D01*
G01*
X16620000Y-12080000D02*
G75*
G03*
X16620000Y-12080000I-20000J0D01*
G01*
X16620000Y-12500000D02*
G75*
G03*
X16620000Y-12500000I-20000J0D01*
G01*
X16700000Y-11640000D02*
G75*
G03*
X16700000Y-11640000I-20000J0D01*
G01*
X16720000Y-12190000D02*
G75*
G03*
X16720000Y-12190000I-20000J0D01*
G01*
X16730000Y-11000000D02*
G75*
G03*
X16730000Y-11000000I-20000J0D01*
G01*
X16735000Y-11255000D02*
G75*
G03*
X16735000Y-11255000I-20000J0D01*
G01*
X16758600Y-7289800D02*
G75*
G03*
X16758600Y-7289800I-20000J0D01*
G01*
X16770000Y-9750000D02*
G75*
G03*
X16770000Y-9750000I-20000J0D01*
G01*
X16770000Y-12920000D02*
G75*
G03*
X16770000Y-12920000I-20000J0D01*
G01*
X16770000Y-13200000D02*
G75*
G03*
X16770000Y-13200000I-20000J0D01*
G01*
X16820000Y-11450000D02*
G75*
G03*
X16820000Y-11450000I-20000J0D01*
G01*
X16885000Y-11150000D02*
G75*
G03*
X16885000Y-11150000I-20000J0D01*
G01*
X16918400Y-14019000D02*
G75*
G03*
X16918400Y-14019000I-20000J0D01*
G01*
X16918400Y-14299000D02*
G75*
G03*
X16918400Y-14299000I-20000J0D01*
G01*
X16920000Y-7289800D02*
G75*
G03*
X16920000Y-7289800I-20000J0D01*
G01*
X16920000Y-9750000D02*
G75*
G03*
X16920000Y-9750000I-20000J0D01*
G01*
X16940000Y-12500000D02*
G75*
G03*
X16940000Y-12500000I-20000J0D01*
G01*
X16945000Y-11640000D02*
G75*
G03*
X16945000Y-11640000I-20000J0D01*
G01*
X16950000Y-12340000D02*
G75*
G03*
X16950000Y-12340000I-20000J0D01*
G01*
X16955000Y-12200000D02*
G75*
G03*
X16955000Y-12200000I-20000J0D01*
G01*
X16995000Y-11255000D02*
G75*
G03*
X16995000Y-11255000I-20000J0D01*
G01*
X17020000Y-9100000D02*
G75*
G03*
X17020000Y-9100000I-20000J0D01*
G01*
X17070000Y-7289800D02*
G75*
G03*
X17070000Y-7289800I-20000J0D01*
G01*
X17070000Y-8450000D02*
G75*
G03*
X17070000Y-8450000I-20000J0D01*
G01*
X17070000Y-9750000D02*
G75*
G03*
X17070000Y-9750000I-20000J0D01*
G01*
X17105000Y-11370000D02*
G75*
G03*
X17105000Y-11370000I-20000J0D01*
G01*
X17110000Y-11700000D02*
G75*
G03*
X17110000Y-11700000I-20000J0D01*
G01*
X17155000Y-11895000D02*
G75*
G03*
X17155000Y-11895000I-20000J0D01*
G01*
X17160000Y-12640000D02*
G75*
G03*
X17160000Y-12640000I-20000J0D01*
G01*
X17220000Y-7289800D02*
G75*
G03*
X17220000Y-7289800I-20000J0D01*
G01*
X17220000Y-9750000D02*
G75*
G03*
X17220000Y-9750000I-20000J0D01*
G01*
X17240000Y-11505000D02*
G75*
G03*
X17240000Y-11505000I-20000J0D01*
G01*
X17270000Y-6850000D02*
G75*
G03*
X17270000Y-6850000I-20000J0D01*
G01*
X17270000Y-9100000D02*
G75*
G03*
X17270000Y-9100000I-20000J0D01*
G01*
X17274720Y-14019000D02*
G75*
G03*
X17274720Y-14019000I-20000J0D01*
G01*
X17274720Y-14299000D02*
G75*
G03*
X17274720Y-14299000I-20000J0D01*
G01*
X17345000Y-11685000D02*
G75*
G03*
X17345000Y-11685000I-20000J0D01*
G01*
X17345000Y-12260000D02*
G75*
G03*
X17345000Y-12260000I-20000J0D01*
G01*
X17355000Y-12000000D02*
G75*
G03*
X17355000Y-12000000I-20000J0D01*
G01*
X17370000Y-8450000D02*
G75*
G03*
X17370000Y-8450000I-20000J0D01*
G01*
X17450000Y-12465000D02*
G75*
G03*
X17450000Y-12465000I-20000J0D01*
G01*
X17520000Y-6850000D02*
G75*
G03*
X17520000Y-6850000I-20000J0D01*
G01*
X17520000Y-7700000D02*
G75*
G03*
X17520000Y-7700000I-20000J0D01*
G01*
X17520000Y-7850000D02*
G75*
G03*
X17520000Y-7850000I-20000J0D01*
G01*
X17520000Y-8001000D02*
G75*
G03*
X17520000Y-8001000I-20000J0D01*
G01*
X17538400Y-10149000D02*
G75*
G03*
X17538400Y-10149000I-20000J0D01*
G01*
X17538400Y-10299000D02*
G75*
G03*
X17538400Y-10299000I-20000J0D01*
G01*
X17538400Y-10450000D02*
G75*
G03*
X17538400Y-10450000I-20000J0D01*
G01*
X17555000Y-12000000D02*
G75*
G03*
X17555000Y-12000000I-20000J0D01*
G01*
X17560000Y-12245000D02*
G75*
G03*
X17560000Y-12245000I-20000J0D01*
G01*
X17570000Y-9100000D02*
G75*
G03*
X17570000Y-9100000I-20000J0D01*
G01*
X17620000Y-9350000D02*
G75*
G03*
X17620000Y-9350000I-20000J0D01*
G01*
X17631040Y-14019000D02*
G75*
G03*
X17631040Y-14019000I-20000J0D01*
G01*
X17631040Y-14299000D02*
G75*
G03*
X17631040Y-14299000I-20000J0D01*
G01*
X17670000Y-8450000D02*
G75*
G03*
X17670000Y-8450000I-20000J0D01*
G01*
X17720000Y-7700000D02*
G75*
G03*
X17720000Y-7700000I-20000J0D01*
G01*
X17720000Y-7850000D02*
G75*
G03*
X17720000Y-7850000I-20000J0D01*
G01*
X17723800Y-8001000D02*
G75*
G03*
X17723800Y-8001000I-20000J0D01*
G01*
X17738400Y-10149000D02*
G75*
G03*
X17738400Y-10149000I-20000J0D01*
G01*
X17738400Y-10299000D02*
G75*
G03*
X17738400Y-10299000I-20000J0D01*
G01*
X17742200Y-10450000D02*
G75*
G03*
X17742200Y-10450000I-20000J0D01*
G01*
X17770000Y-6850000D02*
G75*
G03*
X17770000Y-6850000I-20000J0D01*
G01*
X17855000Y-12625000D02*
G75*
G03*
X17855000Y-12625000I-20000J0D01*
G01*
X17870000Y-9100000D02*
G75*
G03*
X17870000Y-9100000I-20000J0D01*
G01*
X17901600Y-7700000D02*
G75*
G03*
X17901600Y-7700000I-20000J0D01*
G01*
X17901600Y-7850000D02*
G75*
G03*
X17901600Y-7850000I-20000J0D01*
G01*
X17901600Y-8001000D02*
G75*
G03*
X17901600Y-8001000I-20000J0D01*
G01*
X17920000Y-10149000D02*
G75*
G03*
X17920000Y-10149000I-20000J0D01*
G01*
X17920000Y-10299000D02*
G75*
G03*
X17920000Y-10299000I-20000J0D01*
G01*
X17920000Y-10450000D02*
G75*
G03*
X17920000Y-10450000I-20000J0D01*
G01*
X17970000Y-9750000D02*
G75*
G03*
X17970000Y-9750000I-20000J0D01*
G01*
X17987360Y-14019000D02*
G75*
G03*
X17987360Y-14019000I-20000J0D01*
G01*
X17987360Y-14299000D02*
G75*
G03*
X17987360Y-14299000I-20000J0D01*
G01*
X18175000Y-12630000D02*
G75*
G03*
X18175000Y-12630000I-20000J0D01*
G01*
X18220000Y-9800000D02*
G75*
G03*
X18220000Y-9800000I-20000J0D01*
G01*
X18320000Y-13050000D02*
G75*
G03*
X18320000Y-13050000I-20000J0D01*
G01*
X18343680Y-14019000D02*
G75*
G03*
X18343680Y-14019000I-20000J0D01*
G01*
X18343680Y-14299000D02*
G75*
G03*
X18343680Y-14299000I-20000J0D01*
G01*
X18370000Y-9400000D02*
G75*
G03*
X18370000Y-9400000I-20000J0D01*
G01*
X18475000Y-12630000D02*
G75*
G03*
X18475000Y-12630000I-20000J0D01*
G01*
X18655000Y-13050000D02*
G75*
G03*
X18655000Y-13050000I-20000J0D01*
G01*
X18700000Y-14020000D02*
G75*
G03*
X18700000Y-14020000I-20000J0D01*
G01*
X18700000Y-14300000D02*
G75*
G03*
X18700000Y-14300000I-20000J0D01*
G01*
X18745000Y-12625000D02*
G75*
G03*
X18745000Y-12625000I-20000J0D01*
G01*
X19070000Y-6850000D02*
G75*
G03*
X19070000Y-6850000I-20000J0D01*
G01*
X19260000Y-10260000D02*
G75*
G03*
X19260000Y-10260000I-20000J0D01*
G01*
X19300000Y-10520000D02*
G75*
G03*
X19300000Y-10520000I-20000J0D01*
G01*
X19320000Y-6850000D02*
G75*
G03*
X19320000Y-6850000I-20000J0D01*
G01*
X19480000Y-10520000D02*
G75*
G03*
X19480000Y-10520000I-20000J0D01*
G01*
X19480000Y-10720000D02*
G75*
G03*
X19480000Y-10720000I-20000J0D01*
G01*
X19500000Y-8100000D02*
G75*
G03*
X19500000Y-8100000I-20000J0D01*
G01*
X19500000Y-8440000D02*
G75*
G03*
X19500000Y-8440000I-20000J0D01*
G01*
X19500000Y-8670000D02*
G75*
G03*
X19500000Y-8670000I-20000J0D01*
G01*
X19500000Y-9040000D02*
G75*
G03*
X19500000Y-9040000I-20000J0D01*
G01*
X19500000Y-9240000D02*
G75*
G03*
X19500000Y-9240000I-20000J0D01*
G01*
X19500000Y-9580000D02*
G75*
G03*
X19500000Y-9580000I-20000J0D01*
G01*
X19500000Y-10000000D02*
G75*
G03*
X19500000Y-10000000I-20000J0D01*
G01*
X19505000Y-7810000D02*
G75*
G03*
X19505000Y-7810000I-20000J0D01*
G01*
X19510000Y-7235000D02*
G75*
G03*
X19510000Y-7235000I-20000J0D01*
G01*
X19510000Y-7415000D02*
G75*
G03*
X19510000Y-7415000I-20000J0D01*
G01*
X19510000Y-7600000D02*
G75*
G03*
X19510000Y-7600000I-20000J0D01*
G01*
X19840000Y-10460000D02*
G75*
G03*
X19840000Y-10460000I-20000J0D01*
G01*
X19840000Y-10880000D02*
G75*
G03*
X19840000Y-10880000I-20000J0D01*
G01*
D14*
X13030200Y-9078600D02*
X13030200Y-9158600D01*
X12990200Y-9118600D02*
X13070200Y-9118600D01*
X13030200Y-9332600D02*
X13030200Y-9412600D01*
X12990200Y-9372600D02*
X13070200Y-9372600D01*
X13030200Y-9586600D02*
X13030200Y-9666600D01*
X12990200Y-9626600D02*
X13070200Y-9626600D01*
X13030200Y-9840600D02*
X13030200Y-9920600D01*
X12990200Y-9880600D02*
X13070200Y-9880600D01*
X13030200Y-10094600D02*
X13030200Y-10174600D01*
X12990200Y-10134600D02*
X13070200Y-10134600D01*
X13030200Y-10348600D02*
X13030200Y-10428600D01*
X12990200Y-10388600D02*
X13070200Y-10388600D01*
X13030200Y-10602600D02*
X13030200Y-10682600D01*
X12990200Y-10642600D02*
X13070200Y-10642600D01*
X13030200Y-10856600D02*
X13030200Y-10936600D01*
X12990200Y-10896600D02*
X13070200Y-10896600D01*
X13030200Y-11110600D02*
X13030200Y-11190600D01*
X12990200Y-11150600D02*
X13070200Y-11150600D01*
X13030200Y-11364600D02*
X13030200Y-11444600D01*
X12990200Y-11404600D02*
X13070200Y-11404600D01*
X13030200Y-11618600D02*
X13030200Y-11698600D01*
X12990200Y-11658600D02*
X13070200Y-11658600D01*
X13030200Y-11872600D02*
X13030200Y-11952600D01*
X12990200Y-11912600D02*
X13070200Y-11912600D01*
X15062200Y-9078600D02*
X15062200Y-9158600D01*
X15022200Y-9118600D02*
X15102200Y-9118600D01*
X15062200Y-9332600D02*
X15062200Y-9412600D01*
X15022200Y-9372600D02*
X15102200Y-9372600D01*
X15062200Y-9586600D02*
X15062200Y-9666600D01*
X15022200Y-9626600D02*
X15102200Y-9626600D01*
X15062200Y-9840600D02*
X15062200Y-9920600D01*
X15022200Y-9880600D02*
X15102200Y-9880600D01*
X15062200Y-10094600D02*
X15062200Y-10174600D01*
X15022200Y-10134600D02*
X15102200Y-10134600D01*
X15062200Y-10348600D02*
X15062200Y-10428600D01*
X15022200Y-10388600D02*
X15102200Y-10388600D01*
X15062200Y-10602600D02*
X15062200Y-10682600D01*
X15022200Y-10642600D02*
X15102200Y-10642600D01*
X15062200Y-10856600D02*
X15062200Y-10936600D01*
X15022200Y-10896600D02*
X15102200Y-10896600D01*
X15062200Y-11110600D02*
X15062200Y-11190600D01*
X15022200Y-11150600D02*
X15102200Y-11150600D01*
X15062200Y-11364600D02*
X15062200Y-11444600D01*
X15022200Y-11404600D02*
X15102200Y-11404600D01*
X15062200Y-11618600D02*
X15062200Y-11698600D01*
X15022200Y-11658600D02*
X15102200Y-11658600D01*
X15062200Y-11872600D02*
X15062200Y-11952600D01*
X15022200Y-11912600D02*
X15102200Y-11912600D01*
X15062200Y-12126600D02*
X15062200Y-12206600D01*
X15022200Y-12166600D02*
X15102200Y-12166600D01*
X15062200Y-12380600D02*
X15062200Y-12460600D01*
X15022200Y-12420600D02*
X15102200Y-12420600D01*
X15062200Y-12634600D02*
X15062200Y-12714600D01*
X15022200Y-12674600D02*
X15102200Y-12674600D01*
X15062200Y-12888600D02*
X15062200Y-12968600D01*
X15022200Y-12928600D02*
X15102200Y-12928600D01*
X16925162Y-7783200D02*
X16925162Y-7863200D01*
X16885162Y-7823200D02*
X16965162Y-7823200D01*
X16931762Y-10260000D02*
X16931762Y-10340000D01*
X16891762Y-10300000D02*
X16971762Y-10300000D01*
X17175162Y-7783200D02*
X17175162Y-7863200D01*
X17135162Y-7823200D02*
X17215162Y-7823200D01*
X17181762Y-10260000D02*
X17181762Y-10340000D01*
X17141762Y-10300000D02*
X17221762Y-10300000D01*
D10*
X19070356Y-11524803D02*
X19070356Y-11454091D01*
X18999644Y-11454091D01*
X18999644Y-11524803D01*
X19070356Y-11524803D01*
X19070356Y-11778803D02*
X19070356Y-11708091D01*
X18999644Y-11708091D01*
X18999644Y-11778803D01*
X19070356Y-11778803D01*
X19070356Y-12032803D02*
X19070356Y-11962091D01*
X18999644Y-11962091D01*
X18999644Y-12032803D01*
X19070356Y-12032803D01*
X19070356Y-12286803D02*
X19070356Y-12216091D01*
X18999644Y-12216091D01*
X18999644Y-12286803D01*
X19070356Y-12286803D01*
X19070356Y-12540803D02*
X19070356Y-12470091D01*
X18999644Y-12470091D01*
X18999644Y-12540803D01*
X19070356Y-12540803D01*
X19070356Y-12794803D02*
X19070356Y-12724091D01*
X18999644Y-12724091D01*
X18999644Y-12794803D01*
X19070356Y-12794803D01*
X19070356Y-13048803D02*
X19070356Y-12978091D01*
X18999644Y-12978091D01*
X18999644Y-13048803D01*
X19070356Y-13048803D01*
X19070356Y-13302803D02*
X19070356Y-13232091D01*
X18999644Y-13232091D01*
X18999644Y-13302803D01*
X19070356Y-13302803D01*
D15*
X19050000Y-7243200D02*
X19105000Y-7188200D01*
X19050000Y-7133200D01*
X18995000Y-7188200D01*
X19050000Y-7243200D01*
X19050000Y-7497200D02*
X19105000Y-7442200D01*
X19050000Y-7387200D01*
X18995000Y-7442200D01*
X19050000Y-7497200D01*
X19050000Y-7751200D02*
X19105000Y-7696200D01*
X19050000Y-7641200D01*
X18995000Y-7696200D01*
X19050000Y-7751200D01*
X19050000Y-8005200D02*
X19105000Y-7950200D01*
X19050000Y-7895200D01*
X18995000Y-7950200D01*
X19050000Y-8005200D01*
X19050000Y-8259200D02*
X19105000Y-8204200D01*
X19050000Y-8149200D01*
X18995000Y-8204200D01*
X19050000Y-8259200D01*
X19050000Y-8513200D02*
X19105000Y-8458200D01*
X19050000Y-8403200D01*
X18995000Y-8458200D01*
X19050000Y-8513200D01*
X19050000Y-8970400D02*
X19105000Y-8915400D01*
X19050000Y-8860400D01*
X18995000Y-8915400D01*
X19050000Y-8970400D01*
X19050000Y-9224400D02*
X19105000Y-9169400D01*
X19050000Y-9114400D01*
X18995000Y-9169400D01*
X19050000Y-9224400D01*
X19050000Y-9681600D02*
X19105000Y-9626600D01*
X19050000Y-9571600D01*
X18995000Y-9626600D01*
X19050000Y-9681600D01*
X19050000Y-9935600D02*
X19105000Y-9880600D01*
X19050000Y-9825600D01*
X18995000Y-9880600D01*
X19050000Y-9935600D01*
X19050000Y-10189600D02*
X19105000Y-10134600D01*
X19050000Y-10079600D01*
X18995000Y-10134600D01*
X19050000Y-10189600D01*
X19050000Y-10443600D02*
X19105000Y-10388600D01*
X19050000Y-10333600D01*
X18995000Y-10388600D01*
X19050000Y-10443600D01*
X19050000Y-10697600D02*
X19105000Y-10642600D01*
X19050000Y-10587600D01*
X18995000Y-10642600D01*
X19050000Y-10697600D01*
X19050000Y-10951600D02*
X19105000Y-10896600D01*
X19050000Y-10841600D01*
X18995000Y-10896600D01*
X19050000Y-10951600D01*
D11*
X12207477Y-14927584D02*
X12207477Y-14727584D01*
X12207477Y-14727584D02*
X12255096Y-14727584D01*
X12255096Y-14727584D02*
X12283667Y-14737108D01*
X12283667Y-14737108D02*
X12302715Y-14756155D01*
X12302715Y-14756155D02*
X12312239Y-14775203D01*
X12312239Y-14775203D02*
X12321762Y-14813298D01*
X12321762Y-14813298D02*
X12321762Y-14841869D01*
X12321762Y-14841869D02*
X12312239Y-14879965D01*
X12312239Y-14879965D02*
X12302715Y-14899012D01*
X12302715Y-14899012D02*
X12283667Y-14918060D01*
X12283667Y-14918060D02*
X12255096Y-14927584D01*
X12255096Y-14927584D02*
X12207477Y-14927584D01*
X12407477Y-14927584D02*
X12407477Y-14794250D01*
X12407477Y-14832346D02*
X12417001Y-14813298D01*
X12417001Y-14813298D02*
X12426524Y-14803774D01*
X12426524Y-14803774D02*
X12445572Y-14794250D01*
X12445572Y-14794250D02*
X12464620Y-14794250D01*
X12531286Y-14927584D02*
X12531286Y-14794250D01*
X12531286Y-14727584D02*
X12521762Y-14737108D01*
X12521762Y-14737108D02*
X12531286Y-14746631D01*
X12531286Y-14746631D02*
X12540810Y-14737108D01*
X12540810Y-14737108D02*
X12531286Y-14727584D01*
X12531286Y-14727584D02*
X12531286Y-14746631D01*
X12655096Y-14927584D02*
X12636048Y-14918060D01*
X12636048Y-14918060D02*
X12626524Y-14899012D01*
X12626524Y-14899012D02*
X12626524Y-14727584D01*
X12759858Y-14927584D02*
X12740810Y-14918060D01*
X12740810Y-14918060D02*
X12731286Y-14899012D01*
X12731286Y-14899012D02*
X12731286Y-14727584D01*
X12988429Y-14927584D02*
X12988429Y-14727584D01*
X12988429Y-14727584D02*
X13055096Y-14870441D01*
X13055096Y-14870441D02*
X13121762Y-14727584D01*
X13121762Y-14727584D02*
X13121762Y-14927584D01*
X13302715Y-14927584D02*
X13302715Y-14822822D01*
X13302715Y-14822822D02*
X13293191Y-14803774D01*
X13293191Y-14803774D02*
X13274143Y-14794250D01*
X13274143Y-14794250D02*
X13236048Y-14794250D01*
X13236048Y-14794250D02*
X13217001Y-14803774D01*
X13302715Y-14918060D02*
X13283667Y-14927584D01*
X13283667Y-14927584D02*
X13236048Y-14927584D01*
X13236048Y-14927584D02*
X13217001Y-14918060D01*
X13217001Y-14918060D02*
X13207477Y-14899012D01*
X13207477Y-14899012D02*
X13207477Y-14879965D01*
X13207477Y-14879965D02*
X13217001Y-14860917D01*
X13217001Y-14860917D02*
X13236048Y-14851393D01*
X13236048Y-14851393D02*
X13283667Y-14851393D01*
X13283667Y-14851393D02*
X13302715Y-14841869D01*
X13397953Y-14794250D02*
X13397953Y-14994250D01*
X13397953Y-14803774D02*
X13417001Y-14794250D01*
X13417001Y-14794250D02*
X13455096Y-14794250D01*
X13455096Y-14794250D02*
X13474143Y-14803774D01*
X13474143Y-14803774D02*
X13483667Y-14813298D01*
X13483667Y-14813298D02*
X13493191Y-14832346D01*
X13493191Y-14832346D02*
X13493191Y-14889488D01*
X13493191Y-14889488D02*
X13483667Y-14908536D01*
X13483667Y-14908536D02*
X13474143Y-14918060D01*
X13474143Y-14918060D02*
X13455096Y-14927584D01*
X13455096Y-14927584D02*
X13417001Y-14927584D01*
X13417001Y-14927584D02*
X13397953Y-14918060D01*
X13578905Y-14908536D02*
X13588429Y-14918060D01*
X13588429Y-14918060D02*
X13578905Y-14927584D01*
X13578905Y-14927584D02*
X13569382Y-14918060D01*
X13569382Y-14918060D02*
X13578905Y-14908536D01*
X13578905Y-14908536D02*
X13578905Y-14927584D01*
X13578905Y-14803774D02*
X13588429Y-14813298D01*
X13588429Y-14813298D02*
X13578905Y-14822822D01*
X13578905Y-14822822D02*
X13569382Y-14813298D01*
X13569382Y-14813298D02*
X13578905Y-14803774D01*
X13578905Y-14803774D02*
X13578905Y-14822822D01*
D12*
X11913700Y-15239600D02*
X11946700Y-15272600D01*
X11946700Y-15239600D02*
X11913700Y-15272600D01*
D11*
X12245572Y-15147584D02*
X12264620Y-15147584D01*
X12264620Y-15147584D02*
X12283667Y-15157108D01*
X12283667Y-15157108D02*
X12293191Y-15166631D01*
X12293191Y-15166631D02*
X12302715Y-15185679D01*
X12302715Y-15185679D02*
X12312239Y-15223774D01*
X12312239Y-15223774D02*
X12312239Y-15271393D01*
X12312239Y-15271393D02*
X12302715Y-15309488D01*
X12302715Y-15309488D02*
X12293191Y-15328536D01*
X12293191Y-15328536D02*
X12283667Y-15338060D01*
X12283667Y-15338060D02*
X12264620Y-15347584D01*
X12264620Y-15347584D02*
X12245572Y-15347584D01*
X12245572Y-15347584D02*
X12226524Y-15338060D01*
X12226524Y-15338060D02*
X12217001Y-15328536D01*
X12217001Y-15328536D02*
X12207477Y-15309488D01*
X12207477Y-15309488D02*
X12197953Y-15271393D01*
X12197953Y-15271393D02*
X12197953Y-15223774D01*
X12197953Y-15223774D02*
X12207477Y-15185679D01*
X12207477Y-15185679D02*
X12217001Y-15166631D01*
X12217001Y-15166631D02*
X12226524Y-15157108D01*
X12226524Y-15157108D02*
X12245572Y-15147584D01*
X12397953Y-15328536D02*
X12407477Y-15338060D01*
X12407477Y-15338060D02*
X12397953Y-15347584D01*
X12397953Y-15347584D02*
X12388429Y-15338060D01*
X12388429Y-15338060D02*
X12397953Y-15328536D01*
X12397953Y-15328536D02*
X12397953Y-15347584D01*
X12474143Y-15147584D02*
X12597953Y-15147584D01*
X12597953Y-15147584D02*
X12531286Y-15223774D01*
X12531286Y-15223774D02*
X12559858Y-15223774D01*
X12559858Y-15223774D02*
X12578905Y-15233298D01*
X12578905Y-15233298D02*
X12588429Y-15242822D01*
X12588429Y-15242822D02*
X12597953Y-15261869D01*
X12597953Y-15261869D02*
X12597953Y-15309488D01*
X12597953Y-15309488D02*
X12588429Y-15328536D01*
X12588429Y-15328536D02*
X12578905Y-15338060D01*
X12578905Y-15338060D02*
X12559858Y-15347584D01*
X12559858Y-15347584D02*
X12502715Y-15347584D01*
X12502715Y-15347584D02*
X12483667Y-15338060D01*
X12483667Y-15338060D02*
X12474143Y-15328536D01*
X12664620Y-15147584D02*
X12788429Y-15147584D01*
X12788429Y-15147584D02*
X12721762Y-15223774D01*
X12721762Y-15223774D02*
X12750334Y-15223774D01*
X12750334Y-15223774D02*
X12769382Y-15233298D01*
X12769382Y-15233298D02*
X12778905Y-15242822D01*
X12778905Y-15242822D02*
X12788429Y-15261869D01*
X12788429Y-15261869D02*
X12788429Y-15309488D01*
X12788429Y-15309488D02*
X12778905Y-15328536D01*
X12778905Y-15328536D02*
X12769382Y-15338060D01*
X12769382Y-15338060D02*
X12750334Y-15347584D01*
X12750334Y-15347584D02*
X12693191Y-15347584D01*
X12693191Y-15347584D02*
X12674143Y-15338060D01*
X12674143Y-15338060D02*
X12664620Y-15328536D01*
X12912239Y-15147584D02*
X12931286Y-15147584D01*
X12931286Y-15147584D02*
X12950334Y-15157108D01*
X12950334Y-15157108D02*
X12959858Y-15166631D01*
X12959858Y-15166631D02*
X12969382Y-15185679D01*
X12969382Y-15185679D02*
X12978905Y-15223774D01*
X12978905Y-15223774D02*
X12978905Y-15271393D01*
X12978905Y-15271393D02*
X12969382Y-15309488D01*
X12969382Y-15309488D02*
X12959858Y-15328536D01*
X12959858Y-15328536D02*
X12950334Y-15338060D01*
X12950334Y-15338060D02*
X12931286Y-15347584D01*
X12931286Y-15347584D02*
X12912239Y-15347584D01*
X12912239Y-15347584D02*
X12893191Y-15338060D01*
X12893191Y-15338060D02*
X12883667Y-15328536D01*
X12883667Y-15328536D02*
X12874143Y-15309488D01*
X12874143Y-15309488D02*
X12864620Y-15271393D01*
X12864620Y-15271393D02*
X12864620Y-15223774D01*
X12864620Y-15223774D02*
X12874143Y-15185679D01*
X12874143Y-15185679D02*
X12883667Y-15166631D01*
X12883667Y-15166631D02*
X12893191Y-15157108D01*
X12893191Y-15157108D02*
X12912239Y-15147584D01*
X13064620Y-15347584D02*
X13064620Y-15214250D01*
X13064620Y-15233298D02*
X13074143Y-15223774D01*
X13074143Y-15223774D02*
X13093191Y-15214250D01*
X13093191Y-15214250D02*
X13121763Y-15214250D01*
X13121763Y-15214250D02*
X13140810Y-15223774D01*
X13140810Y-15223774D02*
X13150334Y-15242822D01*
X13150334Y-15242822D02*
X13150334Y-15347584D01*
X13150334Y-15242822D02*
X13159858Y-15223774D01*
X13159858Y-15223774D02*
X13178905Y-15214250D01*
X13178905Y-15214250D02*
X13207477Y-15214250D01*
X13207477Y-15214250D02*
X13226524Y-15223774D01*
X13226524Y-15223774D02*
X13236048Y-15242822D01*
X13236048Y-15242822D02*
X13236048Y-15347584D01*
X13331286Y-15347584D02*
X13331286Y-15214250D01*
X13331286Y-15233298D02*
X13340810Y-15223774D01*
X13340810Y-15223774D02*
X13359858Y-15214250D01*
X13359858Y-15214250D02*
X13388429Y-15214250D01*
X13388429Y-15214250D02*
X13407477Y-15223774D01*
X13407477Y-15223774D02*
X13417001Y-15242822D01*
X13417001Y-15242822D02*
X13417001Y-15347584D01*
X13417001Y-15242822D02*
X13426524Y-15223774D01*
X13426524Y-15223774D02*
X13445572Y-15214250D01*
X13445572Y-15214250D02*
X13474143Y-15214250D01*
X13474143Y-15214250D02*
X13493191Y-15223774D01*
X13493191Y-15223774D02*
X13502715Y-15242822D01*
X13502715Y-15242822D02*
X13502715Y-15347584D01*
X13893191Y-15138060D02*
X13721763Y-15395203D01*
X14150334Y-15147584D02*
X14169382Y-15147584D01*
X14169382Y-15147584D02*
X14188429Y-15157108D01*
X14188429Y-15157108D02*
X14197953Y-15166631D01*
X14197953Y-15166631D02*
X14207477Y-15185679D01*
X14207477Y-15185679D02*
X14217001Y-15223774D01*
X14217001Y-15223774D02*
X14217001Y-15271393D01*
X14217001Y-15271393D02*
X14207477Y-15309488D01*
X14207477Y-15309488D02*
X14197953Y-15328536D01*
X14197953Y-15328536D02*
X14188429Y-15338060D01*
X14188429Y-15338060D02*
X14169382Y-15347584D01*
X14169382Y-15347584D02*
X14150334Y-15347584D01*
X14150334Y-15347584D02*
X14131286Y-15338060D01*
X14131286Y-15338060D02*
X14121763Y-15328536D01*
X14121763Y-15328536D02*
X14112239Y-15309488D01*
X14112239Y-15309488D02*
X14102715Y-15271393D01*
X14102715Y-15271393D02*
X14102715Y-15223774D01*
X14102715Y-15223774D02*
X14112239Y-15185679D01*
X14112239Y-15185679D02*
X14121763Y-15166631D01*
X14121763Y-15166631D02*
X14131286Y-15157108D01*
X14131286Y-15157108D02*
X14150334Y-15147584D01*
X14302715Y-15328536D02*
X14312239Y-15338060D01*
X14312239Y-15338060D02*
X14302715Y-15347584D01*
X14302715Y-15347584D02*
X14293191Y-15338060D01*
X14293191Y-15338060D02*
X14302715Y-15328536D01*
X14302715Y-15328536D02*
X14302715Y-15347584D01*
X14436048Y-15147584D02*
X14455096Y-15147584D01*
X14455096Y-15147584D02*
X14474144Y-15157108D01*
X14474144Y-15157108D02*
X14483667Y-15166631D01*
X14483667Y-15166631D02*
X14493191Y-15185679D01*
X14493191Y-15185679D02*
X14502715Y-15223774D01*
X14502715Y-15223774D02*
X14502715Y-15271393D01*
X14502715Y-15271393D02*
X14493191Y-15309488D01*
X14493191Y-15309488D02*
X14483667Y-15328536D01*
X14483667Y-15328536D02*
X14474144Y-15338060D01*
X14474144Y-15338060D02*
X14455096Y-15347584D01*
X14455096Y-15347584D02*
X14436048Y-15347584D01*
X14436048Y-15347584D02*
X14417001Y-15338060D01*
X14417001Y-15338060D02*
X14407477Y-15328536D01*
X14407477Y-15328536D02*
X14397953Y-15309488D01*
X14397953Y-15309488D02*
X14388429Y-15271393D01*
X14388429Y-15271393D02*
X14388429Y-15223774D01*
X14388429Y-15223774D02*
X14397953Y-15185679D01*
X14397953Y-15185679D02*
X14407477Y-15166631D01*
X14407477Y-15166631D02*
X14417001Y-15157108D01*
X14417001Y-15157108D02*
X14436048Y-15147584D01*
X14693191Y-15347584D02*
X14578906Y-15347584D01*
X14636048Y-15347584D02*
X14636048Y-15147584D01*
X14636048Y-15147584D02*
X14617001Y-15176155D01*
X14617001Y-15176155D02*
X14597953Y-15195203D01*
X14597953Y-15195203D02*
X14578906Y-15204727D01*
X14759858Y-15147584D02*
X14883667Y-15147584D01*
X14883667Y-15147584D02*
X14817001Y-15223774D01*
X14817001Y-15223774D02*
X14845572Y-15223774D01*
X14845572Y-15223774D02*
X14864620Y-15233298D01*
X14864620Y-15233298D02*
X14874144Y-15242822D01*
X14874144Y-15242822D02*
X14883667Y-15261869D01*
X14883667Y-15261869D02*
X14883667Y-15309488D01*
X14883667Y-15309488D02*
X14874144Y-15328536D01*
X14874144Y-15328536D02*
X14864620Y-15338060D01*
X14864620Y-15338060D02*
X14845572Y-15347584D01*
X14845572Y-15347584D02*
X14788429Y-15347584D01*
X14788429Y-15347584D02*
X14769382Y-15338060D01*
X14769382Y-15338060D02*
X14759858Y-15328536D01*
X15007477Y-15147584D02*
X15026525Y-15147584D01*
X15026525Y-15147584D02*
X15045572Y-15157108D01*
X15045572Y-15157108D02*
X15055096Y-15166631D01*
X15055096Y-15166631D02*
X15064620Y-15185679D01*
X15064620Y-15185679D02*
X15074144Y-15223774D01*
X15074144Y-15223774D02*
X15074144Y-15271393D01*
X15074144Y-15271393D02*
X15064620Y-15309488D01*
X15064620Y-15309488D02*
X15055096Y-15328536D01*
X15055096Y-15328536D02*
X15045572Y-15338060D01*
X15045572Y-15338060D02*
X15026525Y-15347584D01*
X15026525Y-15347584D02*
X15007477Y-15347584D01*
X15007477Y-15347584D02*
X14988429Y-15338060D01*
X14988429Y-15338060D02*
X14978906Y-15328536D01*
X14978906Y-15328536D02*
X14969382Y-15309488D01*
X14969382Y-15309488D02*
X14959858Y-15271393D01*
X14959858Y-15271393D02*
X14959858Y-15223774D01*
X14959858Y-15223774D02*
X14969382Y-15185679D01*
X14969382Y-15185679D02*
X14978906Y-15166631D01*
X14978906Y-15166631D02*
X14988429Y-15157108D01*
X14988429Y-15157108D02*
X15007477Y-15147584D01*
X15150334Y-15147584D02*
X15150334Y-15185679D01*
X15226525Y-15147584D02*
X15226525Y-15185679D01*
X15521763Y-15423774D02*
X15512239Y-15414250D01*
X15512239Y-15414250D02*
X15493191Y-15385679D01*
X15493191Y-15385679D02*
X15483668Y-15366631D01*
X15483668Y-15366631D02*
X15474144Y-15338060D01*
X15474144Y-15338060D02*
X15464620Y-15290441D01*
X15464620Y-15290441D02*
X15464620Y-15252346D01*
X15464620Y-15252346D02*
X15474144Y-15204727D01*
X15474144Y-15204727D02*
X15483668Y-15176155D01*
X15483668Y-15176155D02*
X15493191Y-15157108D01*
X15493191Y-15157108D02*
X15512239Y-15128536D01*
X15512239Y-15128536D02*
X15521763Y-15119012D01*
X15702715Y-15347584D02*
X15588429Y-15347584D01*
X15645572Y-15347584D02*
X15645572Y-15147584D01*
X15645572Y-15147584D02*
X15626525Y-15176155D01*
X15626525Y-15176155D02*
X15607477Y-15195203D01*
X15607477Y-15195203D02*
X15588429Y-15204727D01*
X15778906Y-15166631D02*
X15788429Y-15157108D01*
X15788429Y-15157108D02*
X15807477Y-15147584D01*
X15807477Y-15147584D02*
X15855096Y-15147584D01*
X15855096Y-15147584D02*
X15874144Y-15157108D01*
X15874144Y-15157108D02*
X15883668Y-15166631D01*
X15883668Y-15166631D02*
X15893191Y-15185679D01*
X15893191Y-15185679D02*
X15893191Y-15204727D01*
X15893191Y-15204727D02*
X15883668Y-15233298D01*
X15883668Y-15233298D02*
X15769382Y-15347584D01*
X15769382Y-15347584D02*
X15893191Y-15347584D01*
X16131287Y-15347584D02*
X16131287Y-15147584D01*
X16217001Y-15347584D02*
X16217001Y-15242822D01*
X16217001Y-15242822D02*
X16207477Y-15223774D01*
X16207477Y-15223774D02*
X16188430Y-15214250D01*
X16188430Y-15214250D02*
X16159858Y-15214250D01*
X16159858Y-15214250D02*
X16140810Y-15223774D01*
X16140810Y-15223774D02*
X16131287Y-15233298D01*
X16340810Y-15347584D02*
X16321763Y-15338060D01*
X16321763Y-15338060D02*
X16312239Y-15328536D01*
X16312239Y-15328536D02*
X16302715Y-15309488D01*
X16302715Y-15309488D02*
X16302715Y-15252346D01*
X16302715Y-15252346D02*
X16312239Y-15233298D01*
X16312239Y-15233298D02*
X16321763Y-15223774D01*
X16321763Y-15223774D02*
X16340810Y-15214250D01*
X16340810Y-15214250D02*
X16369382Y-15214250D01*
X16369382Y-15214250D02*
X16388430Y-15223774D01*
X16388430Y-15223774D02*
X16397953Y-15233298D01*
X16397953Y-15233298D02*
X16407477Y-15252346D01*
X16407477Y-15252346D02*
X16407477Y-15309488D01*
X16407477Y-15309488D02*
X16397953Y-15328536D01*
X16397953Y-15328536D02*
X16388430Y-15338060D01*
X16388430Y-15338060D02*
X16369382Y-15347584D01*
X16369382Y-15347584D02*
X16340810Y-15347584D01*
X16521763Y-15347584D02*
X16502715Y-15338060D01*
X16502715Y-15338060D02*
X16493191Y-15319012D01*
X16493191Y-15319012D02*
X16493191Y-15147584D01*
X16674144Y-15338060D02*
X16655096Y-15347584D01*
X16655096Y-15347584D02*
X16617001Y-15347584D01*
X16617001Y-15347584D02*
X16597953Y-15338060D01*
X16597953Y-15338060D02*
X16588430Y-15319012D01*
X16588430Y-15319012D02*
X16588430Y-15242822D01*
X16588430Y-15242822D02*
X16597953Y-15223774D01*
X16597953Y-15223774D02*
X16617001Y-15214250D01*
X16617001Y-15214250D02*
X16655096Y-15214250D01*
X16655096Y-15214250D02*
X16674144Y-15223774D01*
X16674144Y-15223774D02*
X16683668Y-15242822D01*
X16683668Y-15242822D02*
X16683668Y-15261869D01*
X16683668Y-15261869D02*
X16588430Y-15280917D01*
X16759858Y-15338060D02*
X16778906Y-15347584D01*
X16778906Y-15347584D02*
X16817001Y-15347584D01*
X16817001Y-15347584D02*
X16836049Y-15338060D01*
X16836049Y-15338060D02*
X16845573Y-15319012D01*
X16845573Y-15319012D02*
X16845573Y-15309488D01*
X16845573Y-15309488D02*
X16836049Y-15290441D01*
X16836049Y-15290441D02*
X16817001Y-15280917D01*
X16817001Y-15280917D02*
X16788430Y-15280917D01*
X16788430Y-15280917D02*
X16769382Y-15271393D01*
X16769382Y-15271393D02*
X16759858Y-15252346D01*
X16759858Y-15252346D02*
X16759858Y-15242822D01*
X16759858Y-15242822D02*
X16769382Y-15223774D01*
X16769382Y-15223774D02*
X16788430Y-15214250D01*
X16788430Y-15214250D02*
X16817001Y-15214250D01*
X16817001Y-15214250D02*
X16836049Y-15223774D01*
X16912239Y-15423774D02*
X16921763Y-15414250D01*
X16921763Y-15414250D02*
X16940811Y-15385679D01*
X16940811Y-15385679D02*
X16950334Y-15366631D01*
X16950334Y-15366631D02*
X16959858Y-15338060D01*
X16959858Y-15338060D02*
X16969382Y-15290441D01*
X16969382Y-15290441D02*
X16969382Y-15252346D01*
X16969382Y-15252346D02*
X16959858Y-15204727D01*
X16959858Y-15204727D02*
X16950334Y-15176155D01*
X16950334Y-15176155D02*
X16940811Y-15157108D01*
X16940811Y-15157108D02*
X16921763Y-15128536D01*
X16921763Y-15128536D02*
X16912239Y-15119012D01*
D13*
X11946700Y-15520100D02*
G75*
G03*
X11946700Y-15520100I-20000J0D01*
G01*
D11*
X12245572Y-15411584D02*
X12264620Y-15411584D01*
X12264620Y-15411584D02*
X12283667Y-15421108D01*
X12283667Y-15421108D02*
X12293191Y-15430631D01*
X12293191Y-15430631D02*
X12302715Y-15449679D01*
X12302715Y-15449679D02*
X12312239Y-15487774D01*
X12312239Y-15487774D02*
X12312239Y-15535393D01*
X12312239Y-15535393D02*
X12302715Y-15573488D01*
X12302715Y-15573488D02*
X12293191Y-15592536D01*
X12293191Y-15592536D02*
X12283667Y-15602060D01*
X12283667Y-15602060D02*
X12264620Y-15611584D01*
X12264620Y-15611584D02*
X12245572Y-15611584D01*
X12245572Y-15611584D02*
X12226524Y-15602060D01*
X12226524Y-15602060D02*
X12217001Y-15592536D01*
X12217001Y-15592536D02*
X12207477Y-15573488D01*
X12207477Y-15573488D02*
X12197953Y-15535393D01*
X12197953Y-15535393D02*
X12197953Y-15487774D01*
X12197953Y-15487774D02*
X12207477Y-15449679D01*
X12207477Y-15449679D02*
X12217001Y-15430631D01*
X12217001Y-15430631D02*
X12226524Y-15421108D01*
X12226524Y-15421108D02*
X12245572Y-15411584D01*
X12397953Y-15592536D02*
X12407477Y-15602060D01*
X12407477Y-15602060D02*
X12397953Y-15611584D01*
X12397953Y-15611584D02*
X12388429Y-15602060D01*
X12388429Y-15602060D02*
X12397953Y-15592536D01*
X12397953Y-15592536D02*
X12397953Y-15611584D01*
X12578905Y-15478250D02*
X12578905Y-15611584D01*
X12531286Y-15402060D02*
X12483667Y-15544917D01*
X12483667Y-15544917D02*
X12607477Y-15544917D01*
X12721762Y-15411584D02*
X12740810Y-15411584D01*
X12740810Y-15411584D02*
X12759858Y-15421108D01*
X12759858Y-15421108D02*
X12769382Y-15430631D01*
X12769382Y-15430631D02*
X12778905Y-15449679D01*
X12778905Y-15449679D02*
X12788429Y-15487774D01*
X12788429Y-15487774D02*
X12788429Y-15535393D01*
X12788429Y-15535393D02*
X12778905Y-15573488D01*
X12778905Y-15573488D02*
X12769382Y-15592536D01*
X12769382Y-15592536D02*
X12759858Y-15602060D01*
X12759858Y-15602060D02*
X12740810Y-15611584D01*
X12740810Y-15611584D02*
X12721762Y-15611584D01*
X12721762Y-15611584D02*
X12702715Y-15602060D01*
X12702715Y-15602060D02*
X12693191Y-15592536D01*
X12693191Y-15592536D02*
X12683667Y-15573488D01*
X12683667Y-15573488D02*
X12674143Y-15535393D01*
X12674143Y-15535393D02*
X12674143Y-15487774D01*
X12674143Y-15487774D02*
X12683667Y-15449679D01*
X12683667Y-15449679D02*
X12693191Y-15430631D01*
X12693191Y-15430631D02*
X12702715Y-15421108D01*
X12702715Y-15421108D02*
X12721762Y-15411584D01*
X12912239Y-15411584D02*
X12931286Y-15411584D01*
X12931286Y-15411584D02*
X12950334Y-15421108D01*
X12950334Y-15421108D02*
X12959858Y-15430631D01*
X12959858Y-15430631D02*
X12969382Y-15449679D01*
X12969382Y-15449679D02*
X12978905Y-15487774D01*
X12978905Y-15487774D02*
X12978905Y-15535393D01*
X12978905Y-15535393D02*
X12969382Y-15573488D01*
X12969382Y-15573488D02*
X12959858Y-15592536D01*
X12959858Y-15592536D02*
X12950334Y-15602060D01*
X12950334Y-15602060D02*
X12931286Y-15611584D01*
X12931286Y-15611584D02*
X12912239Y-15611584D01*
X12912239Y-15611584D02*
X12893191Y-15602060D01*
X12893191Y-15602060D02*
X12883667Y-15592536D01*
X12883667Y-15592536D02*
X12874143Y-15573488D01*
X12874143Y-15573488D02*
X12864620Y-15535393D01*
X12864620Y-15535393D02*
X12864620Y-15487774D01*
X12864620Y-15487774D02*
X12874143Y-15449679D01*
X12874143Y-15449679D02*
X12883667Y-15430631D01*
X12883667Y-15430631D02*
X12893191Y-15421108D01*
X12893191Y-15421108D02*
X12912239Y-15411584D01*
X13064620Y-15611584D02*
X13064620Y-15478250D01*
X13064620Y-15497298D02*
X13074143Y-15487774D01*
X13074143Y-15487774D02*
X13093191Y-15478250D01*
X13093191Y-15478250D02*
X13121763Y-15478250D01*
X13121763Y-15478250D02*
X13140810Y-15487774D01*
X13140810Y-15487774D02*
X13150334Y-15506822D01*
X13150334Y-15506822D02*
X13150334Y-15611584D01*
X13150334Y-15506822D02*
X13159858Y-15487774D01*
X13159858Y-15487774D02*
X13178905Y-15478250D01*
X13178905Y-15478250D02*
X13207477Y-15478250D01*
X13207477Y-15478250D02*
X13226524Y-15487774D01*
X13226524Y-15487774D02*
X13236048Y-15506822D01*
X13236048Y-15506822D02*
X13236048Y-15611584D01*
X13331286Y-15611584D02*
X13331286Y-15478250D01*
X13331286Y-15497298D02*
X13340810Y-15487774D01*
X13340810Y-15487774D02*
X13359858Y-15478250D01*
X13359858Y-15478250D02*
X13388429Y-15478250D01*
X13388429Y-15478250D02*
X13407477Y-15487774D01*
X13407477Y-15487774D02*
X13417001Y-15506822D01*
X13417001Y-15506822D02*
X13417001Y-15611584D01*
X13417001Y-15506822D02*
X13426524Y-15487774D01*
X13426524Y-15487774D02*
X13445572Y-15478250D01*
X13445572Y-15478250D02*
X13474143Y-15478250D01*
X13474143Y-15478250D02*
X13493191Y-15487774D01*
X13493191Y-15487774D02*
X13502715Y-15506822D01*
X13502715Y-15506822D02*
X13502715Y-15611584D01*
X13893191Y-15402060D02*
X13721763Y-15659203D01*
X14150334Y-15411584D02*
X14169382Y-15411584D01*
X14169382Y-15411584D02*
X14188429Y-15421108D01*
X14188429Y-15421108D02*
X14197953Y-15430631D01*
X14197953Y-15430631D02*
X14207477Y-15449679D01*
X14207477Y-15449679D02*
X14217001Y-15487774D01*
X14217001Y-15487774D02*
X14217001Y-15535393D01*
X14217001Y-15535393D02*
X14207477Y-15573488D01*
X14207477Y-15573488D02*
X14197953Y-15592536D01*
X14197953Y-15592536D02*
X14188429Y-15602060D01*
X14188429Y-15602060D02*
X14169382Y-15611584D01*
X14169382Y-15611584D02*
X14150334Y-15611584D01*
X14150334Y-15611584D02*
X14131286Y-15602060D01*
X14131286Y-15602060D02*
X14121763Y-15592536D01*
X14121763Y-15592536D02*
X14112239Y-15573488D01*
X14112239Y-15573488D02*
X14102715Y-15535393D01*
X14102715Y-15535393D02*
X14102715Y-15487774D01*
X14102715Y-15487774D02*
X14112239Y-15449679D01*
X14112239Y-15449679D02*
X14121763Y-15430631D01*
X14121763Y-15430631D02*
X14131286Y-15421108D01*
X14131286Y-15421108D02*
X14150334Y-15411584D01*
X14302715Y-15592536D02*
X14312239Y-15602060D01*
X14312239Y-15602060D02*
X14302715Y-15611584D01*
X14302715Y-15611584D02*
X14293191Y-15602060D01*
X14293191Y-15602060D02*
X14302715Y-15592536D01*
X14302715Y-15592536D02*
X14302715Y-15611584D01*
X14436048Y-15411584D02*
X14455096Y-15411584D01*
X14455096Y-15411584D02*
X14474144Y-15421108D01*
X14474144Y-15421108D02*
X14483667Y-15430631D01*
X14483667Y-15430631D02*
X14493191Y-15449679D01*
X14493191Y-15449679D02*
X14502715Y-15487774D01*
X14502715Y-15487774D02*
X14502715Y-15535393D01*
X14502715Y-15535393D02*
X14493191Y-15573488D01*
X14493191Y-15573488D02*
X14483667Y-15592536D01*
X14483667Y-15592536D02*
X14474144Y-15602060D01*
X14474144Y-15602060D02*
X14455096Y-15611584D01*
X14455096Y-15611584D02*
X14436048Y-15611584D01*
X14436048Y-15611584D02*
X14417001Y-15602060D01*
X14417001Y-15602060D02*
X14407477Y-15592536D01*
X14407477Y-15592536D02*
X14397953Y-15573488D01*
X14397953Y-15573488D02*
X14388429Y-15535393D01*
X14388429Y-15535393D02*
X14388429Y-15487774D01*
X14388429Y-15487774D02*
X14397953Y-15449679D01*
X14397953Y-15449679D02*
X14407477Y-15430631D01*
X14407477Y-15430631D02*
X14417001Y-15421108D01*
X14417001Y-15421108D02*
X14436048Y-15411584D01*
X14693191Y-15611584D02*
X14578906Y-15611584D01*
X14636048Y-15611584D02*
X14636048Y-15411584D01*
X14636048Y-15411584D02*
X14617001Y-15440155D01*
X14617001Y-15440155D02*
X14597953Y-15459203D01*
X14597953Y-15459203D02*
X14578906Y-15468727D01*
X14874144Y-15411584D02*
X14778906Y-15411584D01*
X14778906Y-15411584D02*
X14769382Y-15506822D01*
X14769382Y-15506822D02*
X14778906Y-15497298D01*
X14778906Y-15497298D02*
X14797953Y-15487774D01*
X14797953Y-15487774D02*
X14845572Y-15487774D01*
X14845572Y-15487774D02*
X14864620Y-15497298D01*
X14864620Y-15497298D02*
X14874144Y-15506822D01*
X14874144Y-15506822D02*
X14883667Y-15525869D01*
X14883667Y-15525869D02*
X14883667Y-15573488D01*
X14883667Y-15573488D02*
X14874144Y-15592536D01*
X14874144Y-15592536D02*
X14864620Y-15602060D01*
X14864620Y-15602060D02*
X14845572Y-15611584D01*
X14845572Y-15611584D02*
X14797953Y-15611584D01*
X14797953Y-15611584D02*
X14778906Y-15602060D01*
X14778906Y-15602060D02*
X14769382Y-15592536D01*
X14950334Y-15411584D02*
X15083667Y-15411584D01*
X15083667Y-15411584D02*
X14997953Y-15611584D01*
X15150334Y-15411584D02*
X15150334Y-15449679D01*
X15226525Y-15411584D02*
X15226525Y-15449679D01*
X15521763Y-15687774D02*
X15512239Y-15678250D01*
X15512239Y-15678250D02*
X15493191Y-15649679D01*
X15493191Y-15649679D02*
X15483668Y-15630631D01*
X15483668Y-15630631D02*
X15474144Y-15602060D01*
X15474144Y-15602060D02*
X15464620Y-15554441D01*
X15464620Y-15554441D02*
X15464620Y-15516346D01*
X15464620Y-15516346D02*
X15474144Y-15468727D01*
X15474144Y-15468727D02*
X15483668Y-15440155D01*
X15483668Y-15440155D02*
X15493191Y-15421108D01*
X15493191Y-15421108D02*
X15512239Y-15392536D01*
X15512239Y-15392536D02*
X15521763Y-15383012D01*
X15588429Y-15430631D02*
X15597953Y-15421108D01*
X15597953Y-15421108D02*
X15617001Y-15411584D01*
X15617001Y-15411584D02*
X15664620Y-15411584D01*
X15664620Y-15411584D02*
X15683668Y-15421108D01*
X15683668Y-15421108D02*
X15693191Y-15430631D01*
X15693191Y-15430631D02*
X15702715Y-15449679D01*
X15702715Y-15449679D02*
X15702715Y-15468727D01*
X15702715Y-15468727D02*
X15693191Y-15497298D01*
X15693191Y-15497298D02*
X15578906Y-15611584D01*
X15578906Y-15611584D02*
X15702715Y-15611584D01*
X15769382Y-15411584D02*
X15893191Y-15411584D01*
X15893191Y-15411584D02*
X15826525Y-15487774D01*
X15826525Y-15487774D02*
X15855096Y-15487774D01*
X15855096Y-15487774D02*
X15874144Y-15497298D01*
X15874144Y-15497298D02*
X15883668Y-15506822D01*
X15883668Y-15506822D02*
X15893191Y-15525869D01*
X15893191Y-15525869D02*
X15893191Y-15573488D01*
X15893191Y-15573488D02*
X15883668Y-15592536D01*
X15883668Y-15592536D02*
X15874144Y-15602060D01*
X15874144Y-15602060D02*
X15855096Y-15611584D01*
X15855096Y-15611584D02*
X15797953Y-15611584D01*
X15797953Y-15611584D02*
X15778906Y-15602060D01*
X15778906Y-15602060D02*
X15769382Y-15592536D01*
X16007477Y-15497298D02*
X15988429Y-15487774D01*
X15988429Y-15487774D02*
X15978906Y-15478250D01*
X15978906Y-15478250D02*
X15969382Y-15459203D01*
X15969382Y-15459203D02*
X15969382Y-15449679D01*
X15969382Y-15449679D02*
X15978906Y-15430631D01*
X15978906Y-15430631D02*
X15988429Y-15421108D01*
X15988429Y-15421108D02*
X16007477Y-15411584D01*
X16007477Y-15411584D02*
X16045572Y-15411584D01*
X16045572Y-15411584D02*
X16064620Y-15421108D01*
X16064620Y-15421108D02*
X16074144Y-15430631D01*
X16074144Y-15430631D02*
X16083668Y-15449679D01*
X16083668Y-15449679D02*
X16083668Y-15459203D01*
X16083668Y-15459203D02*
X16074144Y-15478250D01*
X16074144Y-15478250D02*
X16064620Y-15487774D01*
X16064620Y-15487774D02*
X16045572Y-15497298D01*
X16045572Y-15497298D02*
X16007477Y-15497298D01*
X16007477Y-15497298D02*
X15988429Y-15506822D01*
X15988429Y-15506822D02*
X15978906Y-15516346D01*
X15978906Y-15516346D02*
X15969382Y-15535393D01*
X15969382Y-15535393D02*
X15969382Y-15573488D01*
X15969382Y-15573488D02*
X15978906Y-15592536D01*
X15978906Y-15592536D02*
X15988429Y-15602060D01*
X15988429Y-15602060D02*
X16007477Y-15611584D01*
X16007477Y-15611584D02*
X16045572Y-15611584D01*
X16045572Y-15611584D02*
X16064620Y-15602060D01*
X16064620Y-15602060D02*
X16074144Y-15592536D01*
X16074144Y-15592536D02*
X16083668Y-15573488D01*
X16083668Y-15573488D02*
X16083668Y-15535393D01*
X16083668Y-15535393D02*
X16074144Y-15516346D01*
X16074144Y-15516346D02*
X16064620Y-15506822D01*
X16064620Y-15506822D02*
X16045572Y-15497298D01*
X16321763Y-15611584D02*
X16321763Y-15411584D01*
X16407477Y-15611584D02*
X16407477Y-15506822D01*
X16407477Y-15506822D02*
X16397953Y-15487774D01*
X16397953Y-15487774D02*
X16378906Y-15478250D01*
X16378906Y-15478250D02*
X16350334Y-15478250D01*
X16350334Y-15478250D02*
X16331287Y-15487774D01*
X16331287Y-15487774D02*
X16321763Y-15497298D01*
X16531287Y-15611584D02*
X16512239Y-15602060D01*
X16512239Y-15602060D02*
X16502715Y-15592536D01*
X16502715Y-15592536D02*
X16493191Y-15573488D01*
X16493191Y-15573488D02*
X16493191Y-15516346D01*
X16493191Y-15516346D02*
X16502715Y-15497298D01*
X16502715Y-15497298D02*
X16512239Y-15487774D01*
X16512239Y-15487774D02*
X16531287Y-15478250D01*
X16531287Y-15478250D02*
X16559858Y-15478250D01*
X16559858Y-15478250D02*
X16578906Y-15487774D01*
X16578906Y-15487774D02*
X16588430Y-15497298D01*
X16588430Y-15497298D02*
X16597953Y-15516346D01*
X16597953Y-15516346D02*
X16597953Y-15573488D01*
X16597953Y-15573488D02*
X16588430Y-15592536D01*
X16588430Y-15592536D02*
X16578906Y-15602060D01*
X16578906Y-15602060D02*
X16559858Y-15611584D01*
X16559858Y-15611584D02*
X16531287Y-15611584D01*
X16712239Y-15611584D02*
X16693191Y-15602060D01*
X16693191Y-15602060D02*
X16683668Y-15583012D01*
X16683668Y-15583012D02*
X16683668Y-15411584D01*
X16864620Y-15602060D02*
X16845573Y-15611584D01*
X16845573Y-15611584D02*
X16807477Y-15611584D01*
X16807477Y-15611584D02*
X16788430Y-15602060D01*
X16788430Y-15602060D02*
X16778906Y-15583012D01*
X16778906Y-15583012D02*
X16778906Y-15506822D01*
X16778906Y-15506822D02*
X16788430Y-15487774D01*
X16788430Y-15487774D02*
X16807477Y-15478250D01*
X16807477Y-15478250D02*
X16845573Y-15478250D01*
X16845573Y-15478250D02*
X16864620Y-15487774D01*
X16864620Y-15487774D02*
X16874144Y-15506822D01*
X16874144Y-15506822D02*
X16874144Y-15525869D01*
X16874144Y-15525869D02*
X16778906Y-15544917D01*
X16950334Y-15602060D02*
X16969382Y-15611584D01*
X16969382Y-15611584D02*
X17007477Y-15611584D01*
X17007477Y-15611584D02*
X17026525Y-15602060D01*
X17026525Y-15602060D02*
X17036049Y-15583012D01*
X17036049Y-15583012D02*
X17036049Y-15573488D01*
X17036049Y-15573488D02*
X17026525Y-15554441D01*
X17026525Y-15554441D02*
X17007477Y-15544917D01*
X17007477Y-15544917D02*
X16978906Y-15544917D01*
X16978906Y-15544917D02*
X16959858Y-15535393D01*
X16959858Y-15535393D02*
X16950334Y-15516346D01*
X16950334Y-15516346D02*
X16950334Y-15506822D01*
X16950334Y-15506822D02*
X16959858Y-15487774D01*
X16959858Y-15487774D02*
X16978906Y-15478250D01*
X16978906Y-15478250D02*
X17007477Y-15478250D01*
X17007477Y-15478250D02*
X17026525Y-15487774D01*
X17102715Y-15687774D02*
X17112239Y-15678250D01*
X17112239Y-15678250D02*
X17131287Y-15649679D01*
X17131287Y-15649679D02*
X17140811Y-15630631D01*
X17140811Y-15630631D02*
X17150334Y-15602060D01*
X17150334Y-15602060D02*
X17159858Y-15554441D01*
X17159858Y-15554441D02*
X17159858Y-15516346D01*
X17159858Y-15516346D02*
X17150334Y-15468727D01*
X17150334Y-15468727D02*
X17140811Y-15440155D01*
X17140811Y-15440155D02*
X17131287Y-15421108D01*
X17131287Y-15421108D02*
X17112239Y-15392536D01*
X17112239Y-15392536D02*
X17102715Y-15383012D01*
D14*
X11906700Y-15744100D02*
X11906700Y-15824100D01*
X11866700Y-15784100D02*
X11946700Y-15784100D01*
D11*
X12245572Y-15675584D02*
X12264620Y-15675584D01*
X12264620Y-15675584D02*
X12283667Y-15685108D01*
X12283667Y-15685108D02*
X12293191Y-15694631D01*
X12293191Y-15694631D02*
X12302715Y-15713679D01*
X12302715Y-15713679D02*
X12312239Y-15751774D01*
X12312239Y-15751774D02*
X12312239Y-15799393D01*
X12312239Y-15799393D02*
X12302715Y-15837488D01*
X12302715Y-15837488D02*
X12293191Y-15856536D01*
X12293191Y-15856536D02*
X12283667Y-15866060D01*
X12283667Y-15866060D02*
X12264620Y-15875584D01*
X12264620Y-15875584D02*
X12245572Y-15875584D01*
X12245572Y-15875584D02*
X12226524Y-15866060D01*
X12226524Y-15866060D02*
X12217001Y-15856536D01*
X12217001Y-15856536D02*
X12207477Y-15837488D01*
X12207477Y-15837488D02*
X12197953Y-15799393D01*
X12197953Y-15799393D02*
X12197953Y-15751774D01*
X12197953Y-15751774D02*
X12207477Y-15713679D01*
X12207477Y-15713679D02*
X12217001Y-15694631D01*
X12217001Y-15694631D02*
X12226524Y-15685108D01*
X12226524Y-15685108D02*
X12245572Y-15675584D01*
X12397953Y-15856536D02*
X12407477Y-15866060D01*
X12407477Y-15866060D02*
X12397953Y-15875584D01*
X12397953Y-15875584D02*
X12388429Y-15866060D01*
X12388429Y-15866060D02*
X12397953Y-15856536D01*
X12397953Y-15856536D02*
X12397953Y-15875584D01*
X12521762Y-15761298D02*
X12502715Y-15751774D01*
X12502715Y-15751774D02*
X12493191Y-15742250D01*
X12493191Y-15742250D02*
X12483667Y-15723203D01*
X12483667Y-15723203D02*
X12483667Y-15713679D01*
X12483667Y-15713679D02*
X12493191Y-15694631D01*
X12493191Y-15694631D02*
X12502715Y-15685108D01*
X12502715Y-15685108D02*
X12521762Y-15675584D01*
X12521762Y-15675584D02*
X12559858Y-15675584D01*
X12559858Y-15675584D02*
X12578905Y-15685108D01*
X12578905Y-15685108D02*
X12588429Y-15694631D01*
X12588429Y-15694631D02*
X12597953Y-15713679D01*
X12597953Y-15713679D02*
X12597953Y-15723203D01*
X12597953Y-15723203D02*
X12588429Y-15742250D01*
X12588429Y-15742250D02*
X12578905Y-15751774D01*
X12578905Y-15751774D02*
X12559858Y-15761298D01*
X12559858Y-15761298D02*
X12521762Y-15761298D01*
X12521762Y-15761298D02*
X12502715Y-15770822D01*
X12502715Y-15770822D02*
X12493191Y-15780346D01*
X12493191Y-15780346D02*
X12483667Y-15799393D01*
X12483667Y-15799393D02*
X12483667Y-15837488D01*
X12483667Y-15837488D02*
X12493191Y-15856536D01*
X12493191Y-15856536D02*
X12502715Y-15866060D01*
X12502715Y-15866060D02*
X12521762Y-15875584D01*
X12521762Y-15875584D02*
X12559858Y-15875584D01*
X12559858Y-15875584D02*
X12578905Y-15866060D01*
X12578905Y-15866060D02*
X12588429Y-15856536D01*
X12588429Y-15856536D02*
X12597953Y-15837488D01*
X12597953Y-15837488D02*
X12597953Y-15799393D01*
X12597953Y-15799393D02*
X12588429Y-15780346D01*
X12588429Y-15780346D02*
X12578905Y-15770822D01*
X12578905Y-15770822D02*
X12559858Y-15761298D01*
X12721762Y-15675584D02*
X12740810Y-15675584D01*
X12740810Y-15675584D02*
X12759858Y-15685108D01*
X12759858Y-15685108D02*
X12769382Y-15694631D01*
X12769382Y-15694631D02*
X12778905Y-15713679D01*
X12778905Y-15713679D02*
X12788429Y-15751774D01*
X12788429Y-15751774D02*
X12788429Y-15799393D01*
X12788429Y-15799393D02*
X12778905Y-15837488D01*
X12778905Y-15837488D02*
X12769382Y-15856536D01*
X12769382Y-15856536D02*
X12759858Y-15866060D01*
X12759858Y-15866060D02*
X12740810Y-15875584D01*
X12740810Y-15875584D02*
X12721762Y-15875584D01*
X12721762Y-15875584D02*
X12702715Y-15866060D01*
X12702715Y-15866060D02*
X12693191Y-15856536D01*
X12693191Y-15856536D02*
X12683667Y-15837488D01*
X12683667Y-15837488D02*
X12674143Y-15799393D01*
X12674143Y-15799393D02*
X12674143Y-15751774D01*
X12674143Y-15751774D02*
X12683667Y-15713679D01*
X12683667Y-15713679D02*
X12693191Y-15694631D01*
X12693191Y-15694631D02*
X12702715Y-15685108D01*
X12702715Y-15685108D02*
X12721762Y-15675584D01*
X12912239Y-15675584D02*
X12931286Y-15675584D01*
X12931286Y-15675584D02*
X12950334Y-15685108D01*
X12950334Y-15685108D02*
X12959858Y-15694631D01*
X12959858Y-15694631D02*
X12969382Y-15713679D01*
X12969382Y-15713679D02*
X12978905Y-15751774D01*
X12978905Y-15751774D02*
X12978905Y-15799393D01*
X12978905Y-15799393D02*
X12969382Y-15837488D01*
X12969382Y-15837488D02*
X12959858Y-15856536D01*
X12959858Y-15856536D02*
X12950334Y-15866060D01*
X12950334Y-15866060D02*
X12931286Y-15875584D01*
X12931286Y-15875584D02*
X12912239Y-15875584D01*
X12912239Y-15875584D02*
X12893191Y-15866060D01*
X12893191Y-15866060D02*
X12883667Y-15856536D01*
X12883667Y-15856536D02*
X12874143Y-15837488D01*
X12874143Y-15837488D02*
X12864620Y-15799393D01*
X12864620Y-15799393D02*
X12864620Y-15751774D01*
X12864620Y-15751774D02*
X12874143Y-15713679D01*
X12874143Y-15713679D02*
X12883667Y-15694631D01*
X12883667Y-15694631D02*
X12893191Y-15685108D01*
X12893191Y-15685108D02*
X12912239Y-15675584D01*
X13064620Y-15875584D02*
X13064620Y-15742250D01*
X13064620Y-15761298D02*
X13074143Y-15751774D01*
X13074143Y-15751774D02*
X13093191Y-15742250D01*
X13093191Y-15742250D02*
X13121763Y-15742250D01*
X13121763Y-15742250D02*
X13140810Y-15751774D01*
X13140810Y-15751774D02*
X13150334Y-15770822D01*
X13150334Y-15770822D02*
X13150334Y-15875584D01*
X13150334Y-15770822D02*
X13159858Y-15751774D01*
X13159858Y-15751774D02*
X13178905Y-15742250D01*
X13178905Y-15742250D02*
X13207477Y-15742250D01*
X13207477Y-15742250D02*
X13226524Y-15751774D01*
X13226524Y-15751774D02*
X13236048Y-15770822D01*
X13236048Y-15770822D02*
X13236048Y-15875584D01*
X13331286Y-15875584D02*
X13331286Y-15742250D01*
X13331286Y-15761298D02*
X13340810Y-15751774D01*
X13340810Y-15751774D02*
X13359858Y-15742250D01*
X13359858Y-15742250D02*
X13388429Y-15742250D01*
X13388429Y-15742250D02*
X13407477Y-15751774D01*
X13407477Y-15751774D02*
X13417001Y-15770822D01*
X13417001Y-15770822D02*
X13417001Y-15875584D01*
X13417001Y-15770822D02*
X13426524Y-15751774D01*
X13426524Y-15751774D02*
X13445572Y-15742250D01*
X13445572Y-15742250D02*
X13474143Y-15742250D01*
X13474143Y-15742250D02*
X13493191Y-15751774D01*
X13493191Y-15751774D02*
X13502715Y-15770822D01*
X13502715Y-15770822D02*
X13502715Y-15875584D01*
X13893191Y-15666060D02*
X13721763Y-15923203D01*
X14150334Y-15675584D02*
X14169382Y-15675584D01*
X14169382Y-15675584D02*
X14188429Y-15685108D01*
X14188429Y-15685108D02*
X14197953Y-15694631D01*
X14197953Y-15694631D02*
X14207477Y-15713679D01*
X14207477Y-15713679D02*
X14217001Y-15751774D01*
X14217001Y-15751774D02*
X14217001Y-15799393D01*
X14217001Y-15799393D02*
X14207477Y-15837488D01*
X14207477Y-15837488D02*
X14197953Y-15856536D01*
X14197953Y-15856536D02*
X14188429Y-15866060D01*
X14188429Y-15866060D02*
X14169382Y-15875584D01*
X14169382Y-15875584D02*
X14150334Y-15875584D01*
X14150334Y-15875584D02*
X14131286Y-15866060D01*
X14131286Y-15866060D02*
X14121763Y-15856536D01*
X14121763Y-15856536D02*
X14112239Y-15837488D01*
X14112239Y-15837488D02*
X14102715Y-15799393D01*
X14102715Y-15799393D02*
X14102715Y-15751774D01*
X14102715Y-15751774D02*
X14112239Y-15713679D01*
X14112239Y-15713679D02*
X14121763Y-15694631D01*
X14121763Y-15694631D02*
X14131286Y-15685108D01*
X14131286Y-15685108D02*
X14150334Y-15675584D01*
X14302715Y-15856536D02*
X14312239Y-15866060D01*
X14312239Y-15866060D02*
X14302715Y-15875584D01*
X14302715Y-15875584D02*
X14293191Y-15866060D01*
X14293191Y-15866060D02*
X14302715Y-15856536D01*
X14302715Y-15856536D02*
X14302715Y-15875584D01*
X14436048Y-15675584D02*
X14455096Y-15675584D01*
X14455096Y-15675584D02*
X14474144Y-15685108D01*
X14474144Y-15685108D02*
X14483667Y-15694631D01*
X14483667Y-15694631D02*
X14493191Y-15713679D01*
X14493191Y-15713679D02*
X14502715Y-15751774D01*
X14502715Y-15751774D02*
X14502715Y-15799393D01*
X14502715Y-15799393D02*
X14493191Y-15837488D01*
X14493191Y-15837488D02*
X14483667Y-15856536D01*
X14483667Y-15856536D02*
X14474144Y-15866060D01*
X14474144Y-15866060D02*
X14455096Y-15875584D01*
X14455096Y-15875584D02*
X14436048Y-15875584D01*
X14436048Y-15875584D02*
X14417001Y-15866060D01*
X14417001Y-15866060D02*
X14407477Y-15856536D01*
X14407477Y-15856536D02*
X14397953Y-15837488D01*
X14397953Y-15837488D02*
X14388429Y-15799393D01*
X14388429Y-15799393D02*
X14388429Y-15751774D01*
X14388429Y-15751774D02*
X14397953Y-15713679D01*
X14397953Y-15713679D02*
X14407477Y-15694631D01*
X14407477Y-15694631D02*
X14417001Y-15685108D01*
X14417001Y-15685108D02*
X14436048Y-15675584D01*
X14569382Y-15675584D02*
X14693191Y-15675584D01*
X14693191Y-15675584D02*
X14626525Y-15751774D01*
X14626525Y-15751774D02*
X14655096Y-15751774D01*
X14655096Y-15751774D02*
X14674144Y-15761298D01*
X14674144Y-15761298D02*
X14683667Y-15770822D01*
X14683667Y-15770822D02*
X14693191Y-15789869D01*
X14693191Y-15789869D02*
X14693191Y-15837488D01*
X14693191Y-15837488D02*
X14683667Y-15856536D01*
X14683667Y-15856536D02*
X14674144Y-15866060D01*
X14674144Y-15866060D02*
X14655096Y-15875584D01*
X14655096Y-15875584D02*
X14597953Y-15875584D01*
X14597953Y-15875584D02*
X14578906Y-15866060D01*
X14578906Y-15866060D02*
X14569382Y-15856536D01*
X14883667Y-15875584D02*
X14769382Y-15875584D01*
X14826525Y-15875584D02*
X14826525Y-15675584D01*
X14826525Y-15675584D02*
X14807477Y-15704155D01*
X14807477Y-15704155D02*
X14788429Y-15723203D01*
X14788429Y-15723203D02*
X14769382Y-15732727D01*
X15064620Y-15675584D02*
X14969382Y-15675584D01*
X14969382Y-15675584D02*
X14959858Y-15770822D01*
X14959858Y-15770822D02*
X14969382Y-15761298D01*
X14969382Y-15761298D02*
X14988429Y-15751774D01*
X14988429Y-15751774D02*
X15036048Y-15751774D01*
X15036048Y-15751774D02*
X15055096Y-15761298D01*
X15055096Y-15761298D02*
X15064620Y-15770822D01*
X15064620Y-15770822D02*
X15074144Y-15789869D01*
X15074144Y-15789869D02*
X15074144Y-15837488D01*
X15074144Y-15837488D02*
X15064620Y-15856536D01*
X15064620Y-15856536D02*
X15055096Y-15866060D01*
X15055096Y-15866060D02*
X15036048Y-15875584D01*
X15036048Y-15875584D02*
X14988429Y-15875584D01*
X14988429Y-15875584D02*
X14969382Y-15866060D01*
X14969382Y-15866060D02*
X14959858Y-15856536D01*
X15150334Y-15675584D02*
X15150334Y-15713679D01*
X15226525Y-15675584D02*
X15226525Y-15713679D01*
X15521763Y-15951774D02*
X15512239Y-15942250D01*
X15512239Y-15942250D02*
X15493191Y-15913679D01*
X15493191Y-15913679D02*
X15483668Y-15894631D01*
X15483668Y-15894631D02*
X15474144Y-15866060D01*
X15474144Y-15866060D02*
X15464620Y-15818441D01*
X15464620Y-15818441D02*
X15464620Y-15780346D01*
X15464620Y-15780346D02*
X15474144Y-15732727D01*
X15474144Y-15732727D02*
X15483668Y-15704155D01*
X15483668Y-15704155D02*
X15493191Y-15685108D01*
X15493191Y-15685108D02*
X15512239Y-15656536D01*
X15512239Y-15656536D02*
X15521763Y-15647012D01*
X15578906Y-15675584D02*
X15702715Y-15675584D01*
X15702715Y-15675584D02*
X15636048Y-15751774D01*
X15636048Y-15751774D02*
X15664620Y-15751774D01*
X15664620Y-15751774D02*
X15683668Y-15761298D01*
X15683668Y-15761298D02*
X15693191Y-15770822D01*
X15693191Y-15770822D02*
X15702715Y-15789869D01*
X15702715Y-15789869D02*
X15702715Y-15837488D01*
X15702715Y-15837488D02*
X15693191Y-15856536D01*
X15693191Y-15856536D02*
X15683668Y-15866060D01*
X15683668Y-15866060D02*
X15664620Y-15875584D01*
X15664620Y-15875584D02*
X15607477Y-15875584D01*
X15607477Y-15875584D02*
X15588429Y-15866060D01*
X15588429Y-15866060D02*
X15578906Y-15856536D01*
X15778906Y-15694631D02*
X15788429Y-15685108D01*
X15788429Y-15685108D02*
X15807477Y-15675584D01*
X15807477Y-15675584D02*
X15855096Y-15675584D01*
X15855096Y-15675584D02*
X15874144Y-15685108D01*
X15874144Y-15685108D02*
X15883668Y-15694631D01*
X15883668Y-15694631D02*
X15893191Y-15713679D01*
X15893191Y-15713679D02*
X15893191Y-15732727D01*
X15893191Y-15732727D02*
X15883668Y-15761298D01*
X15883668Y-15761298D02*
X15769382Y-15875584D01*
X15769382Y-15875584D02*
X15893191Y-15875584D01*
X16131287Y-15875584D02*
X16131287Y-15675584D01*
X16217001Y-15875584D02*
X16217001Y-15770822D01*
X16217001Y-15770822D02*
X16207477Y-15751774D01*
X16207477Y-15751774D02*
X16188430Y-15742250D01*
X16188430Y-15742250D02*
X16159858Y-15742250D01*
X16159858Y-15742250D02*
X16140810Y-15751774D01*
X16140810Y-15751774D02*
X16131287Y-15761298D01*
X16340810Y-15875584D02*
X16321763Y-15866060D01*
X16321763Y-15866060D02*
X16312239Y-15856536D01*
X16312239Y-15856536D02*
X16302715Y-15837488D01*
X16302715Y-15837488D02*
X16302715Y-15780346D01*
X16302715Y-15780346D02*
X16312239Y-15761298D01*
X16312239Y-15761298D02*
X16321763Y-15751774D01*
X16321763Y-15751774D02*
X16340810Y-15742250D01*
X16340810Y-15742250D02*
X16369382Y-15742250D01*
X16369382Y-15742250D02*
X16388430Y-15751774D01*
X16388430Y-15751774D02*
X16397953Y-15761298D01*
X16397953Y-15761298D02*
X16407477Y-15780346D01*
X16407477Y-15780346D02*
X16407477Y-15837488D01*
X16407477Y-15837488D02*
X16397953Y-15856536D01*
X16397953Y-15856536D02*
X16388430Y-15866060D01*
X16388430Y-15866060D02*
X16369382Y-15875584D01*
X16369382Y-15875584D02*
X16340810Y-15875584D01*
X16521763Y-15875584D02*
X16502715Y-15866060D01*
X16502715Y-15866060D02*
X16493191Y-15847012D01*
X16493191Y-15847012D02*
X16493191Y-15675584D01*
X16674144Y-15866060D02*
X16655096Y-15875584D01*
X16655096Y-15875584D02*
X16617001Y-15875584D01*
X16617001Y-15875584D02*
X16597953Y-15866060D01*
X16597953Y-15866060D02*
X16588430Y-15847012D01*
X16588430Y-15847012D02*
X16588430Y-15770822D01*
X16588430Y-15770822D02*
X16597953Y-15751774D01*
X16597953Y-15751774D02*
X16617001Y-15742250D01*
X16617001Y-15742250D02*
X16655096Y-15742250D01*
X16655096Y-15742250D02*
X16674144Y-15751774D01*
X16674144Y-15751774D02*
X16683668Y-15770822D01*
X16683668Y-15770822D02*
X16683668Y-15789869D01*
X16683668Y-15789869D02*
X16588430Y-15808917D01*
X16759858Y-15866060D02*
X16778906Y-15875584D01*
X16778906Y-15875584D02*
X16817001Y-15875584D01*
X16817001Y-15875584D02*
X16836049Y-15866060D01*
X16836049Y-15866060D02*
X16845573Y-15847012D01*
X16845573Y-15847012D02*
X16845573Y-15837488D01*
X16845573Y-15837488D02*
X16836049Y-15818441D01*
X16836049Y-15818441D02*
X16817001Y-15808917D01*
X16817001Y-15808917D02*
X16788430Y-15808917D01*
X16788430Y-15808917D02*
X16769382Y-15799393D01*
X16769382Y-15799393D02*
X16759858Y-15780346D01*
X16759858Y-15780346D02*
X16759858Y-15770822D01*
X16759858Y-15770822D02*
X16769382Y-15751774D01*
X16769382Y-15751774D02*
X16788430Y-15742250D01*
X16788430Y-15742250D02*
X16817001Y-15742250D01*
X16817001Y-15742250D02*
X16836049Y-15751774D01*
X16912239Y-15951774D02*
X16921763Y-15942250D01*
X16921763Y-15942250D02*
X16940811Y-15913679D01*
X16940811Y-15913679D02*
X16950334Y-15894631D01*
X16950334Y-15894631D02*
X16959858Y-15866060D01*
X16959858Y-15866060D02*
X16969382Y-15818441D01*
X16969382Y-15818441D02*
X16969382Y-15780346D01*
X16969382Y-15780346D02*
X16959858Y-15732727D01*
X16959858Y-15732727D02*
X16950334Y-15704155D01*
X16950334Y-15704155D02*
X16940811Y-15685108D01*
X16940811Y-15685108D02*
X16921763Y-15656536D01*
X16921763Y-15656536D02*
X16912239Y-15647012D01*
D10*
X11932056Y-16083456D02*
X11932056Y-16012744D01*
X11861344Y-16012744D01*
X11861344Y-16083456D01*
X11932056Y-16083456D01*
D11*
X12312239Y-16139584D02*
X12197953Y-16139584D01*
X12255096Y-16139584D02*
X12255096Y-15939584D01*
X12255096Y-15939584D02*
X12236048Y-15968155D01*
X12236048Y-15968155D02*
X12217001Y-15987203D01*
X12217001Y-15987203D02*
X12197953Y-15996727D01*
X12397953Y-16120536D02*
X12407477Y-16130060D01*
X12407477Y-16130060D02*
X12397953Y-16139584D01*
X12397953Y-16139584D02*
X12388429Y-16130060D01*
X12388429Y-16130060D02*
X12397953Y-16120536D01*
X12397953Y-16120536D02*
X12397953Y-16139584D01*
X12531286Y-15939584D02*
X12550334Y-15939584D01*
X12550334Y-15939584D02*
X12569382Y-15949108D01*
X12569382Y-15949108D02*
X12578905Y-15958631D01*
X12578905Y-15958631D02*
X12588429Y-15977679D01*
X12588429Y-15977679D02*
X12597953Y-16015774D01*
X12597953Y-16015774D02*
X12597953Y-16063393D01*
X12597953Y-16063393D02*
X12588429Y-16101488D01*
X12588429Y-16101488D02*
X12578905Y-16120536D01*
X12578905Y-16120536D02*
X12569382Y-16130060D01*
X12569382Y-16130060D02*
X12550334Y-16139584D01*
X12550334Y-16139584D02*
X12531286Y-16139584D01*
X12531286Y-16139584D02*
X12512239Y-16130060D01*
X12512239Y-16130060D02*
X12502715Y-16120536D01*
X12502715Y-16120536D02*
X12493191Y-16101488D01*
X12493191Y-16101488D02*
X12483667Y-16063393D01*
X12483667Y-16063393D02*
X12483667Y-16015774D01*
X12483667Y-16015774D02*
X12493191Y-15977679D01*
X12493191Y-15977679D02*
X12502715Y-15958631D01*
X12502715Y-15958631D02*
X12512239Y-15949108D01*
X12512239Y-15949108D02*
X12531286Y-15939584D01*
X12721762Y-15939584D02*
X12740810Y-15939584D01*
X12740810Y-15939584D02*
X12759858Y-15949108D01*
X12759858Y-15949108D02*
X12769382Y-15958631D01*
X12769382Y-15958631D02*
X12778905Y-15977679D01*
X12778905Y-15977679D02*
X12788429Y-16015774D01*
X12788429Y-16015774D02*
X12788429Y-16063393D01*
X12788429Y-16063393D02*
X12778905Y-16101488D01*
X12778905Y-16101488D02*
X12769382Y-16120536D01*
X12769382Y-16120536D02*
X12759858Y-16130060D01*
X12759858Y-16130060D02*
X12740810Y-16139584D01*
X12740810Y-16139584D02*
X12721762Y-16139584D01*
X12721762Y-16139584D02*
X12702715Y-16130060D01*
X12702715Y-16130060D02*
X12693191Y-16120536D01*
X12693191Y-16120536D02*
X12683667Y-16101488D01*
X12683667Y-16101488D02*
X12674143Y-16063393D01*
X12674143Y-16063393D02*
X12674143Y-16015774D01*
X12674143Y-16015774D02*
X12683667Y-15977679D01*
X12683667Y-15977679D02*
X12693191Y-15958631D01*
X12693191Y-15958631D02*
X12702715Y-15949108D01*
X12702715Y-15949108D02*
X12721762Y-15939584D01*
X12912239Y-15939584D02*
X12931286Y-15939584D01*
X12931286Y-15939584D02*
X12950334Y-15949108D01*
X12950334Y-15949108D02*
X12959858Y-15958631D01*
X12959858Y-15958631D02*
X12969382Y-15977679D01*
X12969382Y-15977679D02*
X12978905Y-16015774D01*
X12978905Y-16015774D02*
X12978905Y-16063393D01*
X12978905Y-16063393D02*
X12969382Y-16101488D01*
X12969382Y-16101488D02*
X12959858Y-16120536D01*
X12959858Y-16120536D02*
X12950334Y-16130060D01*
X12950334Y-16130060D02*
X12931286Y-16139584D01*
X12931286Y-16139584D02*
X12912239Y-16139584D01*
X12912239Y-16139584D02*
X12893191Y-16130060D01*
X12893191Y-16130060D02*
X12883667Y-16120536D01*
X12883667Y-16120536D02*
X12874143Y-16101488D01*
X12874143Y-16101488D02*
X12864620Y-16063393D01*
X12864620Y-16063393D02*
X12864620Y-16015774D01*
X12864620Y-16015774D02*
X12874143Y-15977679D01*
X12874143Y-15977679D02*
X12883667Y-15958631D01*
X12883667Y-15958631D02*
X12893191Y-15949108D01*
X12893191Y-15949108D02*
X12912239Y-15939584D01*
X13064620Y-16139584D02*
X13064620Y-16006250D01*
X13064620Y-16025298D02*
X13074143Y-16015774D01*
X13074143Y-16015774D02*
X13093191Y-16006250D01*
X13093191Y-16006250D02*
X13121763Y-16006250D01*
X13121763Y-16006250D02*
X13140810Y-16015774D01*
X13140810Y-16015774D02*
X13150334Y-16034822D01*
X13150334Y-16034822D02*
X13150334Y-16139584D01*
X13150334Y-16034822D02*
X13159858Y-16015774D01*
X13159858Y-16015774D02*
X13178905Y-16006250D01*
X13178905Y-16006250D02*
X13207477Y-16006250D01*
X13207477Y-16006250D02*
X13226524Y-16015774D01*
X13226524Y-16015774D02*
X13236048Y-16034822D01*
X13236048Y-16034822D02*
X13236048Y-16139584D01*
X13331286Y-16139584D02*
X13331286Y-16006250D01*
X13331286Y-16025298D02*
X13340810Y-16015774D01*
X13340810Y-16015774D02*
X13359858Y-16006250D01*
X13359858Y-16006250D02*
X13388429Y-16006250D01*
X13388429Y-16006250D02*
X13407477Y-16015774D01*
X13407477Y-16015774D02*
X13417001Y-16034822D01*
X13417001Y-16034822D02*
X13417001Y-16139584D01*
X13417001Y-16034822D02*
X13426524Y-16015774D01*
X13426524Y-16015774D02*
X13445572Y-16006250D01*
X13445572Y-16006250D02*
X13474143Y-16006250D01*
X13474143Y-16006250D02*
X13493191Y-16015774D01*
X13493191Y-16015774D02*
X13502715Y-16034822D01*
X13502715Y-16034822D02*
X13502715Y-16139584D01*
X13893191Y-15930060D02*
X13721763Y-16187203D01*
X14150334Y-15939584D02*
X14169382Y-15939584D01*
X14169382Y-15939584D02*
X14188429Y-15949108D01*
X14188429Y-15949108D02*
X14197953Y-15958631D01*
X14197953Y-15958631D02*
X14207477Y-15977679D01*
X14207477Y-15977679D02*
X14217001Y-16015774D01*
X14217001Y-16015774D02*
X14217001Y-16063393D01*
X14217001Y-16063393D02*
X14207477Y-16101488D01*
X14207477Y-16101488D02*
X14197953Y-16120536D01*
X14197953Y-16120536D02*
X14188429Y-16130060D01*
X14188429Y-16130060D02*
X14169382Y-16139584D01*
X14169382Y-16139584D02*
X14150334Y-16139584D01*
X14150334Y-16139584D02*
X14131286Y-16130060D01*
X14131286Y-16130060D02*
X14121763Y-16120536D01*
X14121763Y-16120536D02*
X14112239Y-16101488D01*
X14112239Y-16101488D02*
X14102715Y-16063393D01*
X14102715Y-16063393D02*
X14102715Y-16015774D01*
X14102715Y-16015774D02*
X14112239Y-15977679D01*
X14112239Y-15977679D02*
X14121763Y-15958631D01*
X14121763Y-15958631D02*
X14131286Y-15949108D01*
X14131286Y-15949108D02*
X14150334Y-15939584D01*
X14302715Y-16120536D02*
X14312239Y-16130060D01*
X14312239Y-16130060D02*
X14302715Y-16139584D01*
X14302715Y-16139584D02*
X14293191Y-16130060D01*
X14293191Y-16130060D02*
X14302715Y-16120536D01*
X14302715Y-16120536D02*
X14302715Y-16139584D01*
X14436048Y-15939584D02*
X14455096Y-15939584D01*
X14455096Y-15939584D02*
X14474144Y-15949108D01*
X14474144Y-15949108D02*
X14483667Y-15958631D01*
X14483667Y-15958631D02*
X14493191Y-15977679D01*
X14493191Y-15977679D02*
X14502715Y-16015774D01*
X14502715Y-16015774D02*
X14502715Y-16063393D01*
X14502715Y-16063393D02*
X14493191Y-16101488D01*
X14493191Y-16101488D02*
X14483667Y-16120536D01*
X14483667Y-16120536D02*
X14474144Y-16130060D01*
X14474144Y-16130060D02*
X14455096Y-16139584D01*
X14455096Y-16139584D02*
X14436048Y-16139584D01*
X14436048Y-16139584D02*
X14417001Y-16130060D01*
X14417001Y-16130060D02*
X14407477Y-16120536D01*
X14407477Y-16120536D02*
X14397953Y-16101488D01*
X14397953Y-16101488D02*
X14388429Y-16063393D01*
X14388429Y-16063393D02*
X14388429Y-16015774D01*
X14388429Y-16015774D02*
X14397953Y-15977679D01*
X14397953Y-15977679D02*
X14407477Y-15958631D01*
X14407477Y-15958631D02*
X14417001Y-15949108D01*
X14417001Y-15949108D02*
X14436048Y-15939584D01*
X14569382Y-15939584D02*
X14693191Y-15939584D01*
X14693191Y-15939584D02*
X14626525Y-16015774D01*
X14626525Y-16015774D02*
X14655096Y-16015774D01*
X14655096Y-16015774D02*
X14674144Y-16025298D01*
X14674144Y-16025298D02*
X14683667Y-16034822D01*
X14683667Y-16034822D02*
X14693191Y-16053869D01*
X14693191Y-16053869D02*
X14693191Y-16101488D01*
X14693191Y-16101488D02*
X14683667Y-16120536D01*
X14683667Y-16120536D02*
X14674144Y-16130060D01*
X14674144Y-16130060D02*
X14655096Y-16139584D01*
X14655096Y-16139584D02*
X14597953Y-16139584D01*
X14597953Y-16139584D02*
X14578906Y-16130060D01*
X14578906Y-16130060D02*
X14569382Y-16120536D01*
X14788429Y-16139584D02*
X14826525Y-16139584D01*
X14826525Y-16139584D02*
X14845572Y-16130060D01*
X14845572Y-16130060D02*
X14855096Y-16120536D01*
X14855096Y-16120536D02*
X14874144Y-16091965D01*
X14874144Y-16091965D02*
X14883667Y-16053869D01*
X14883667Y-16053869D02*
X14883667Y-15977679D01*
X14883667Y-15977679D02*
X14874144Y-15958631D01*
X14874144Y-15958631D02*
X14864620Y-15949108D01*
X14864620Y-15949108D02*
X14845572Y-15939584D01*
X14845572Y-15939584D02*
X14807477Y-15939584D01*
X14807477Y-15939584D02*
X14788429Y-15949108D01*
X14788429Y-15949108D02*
X14778906Y-15958631D01*
X14778906Y-15958631D02*
X14769382Y-15977679D01*
X14769382Y-15977679D02*
X14769382Y-16025298D01*
X14769382Y-16025298D02*
X14778906Y-16044346D01*
X14778906Y-16044346D02*
X14788429Y-16053869D01*
X14788429Y-16053869D02*
X14807477Y-16063393D01*
X14807477Y-16063393D02*
X14845572Y-16063393D01*
X14845572Y-16063393D02*
X14864620Y-16053869D01*
X14864620Y-16053869D02*
X14874144Y-16044346D01*
X14874144Y-16044346D02*
X14883667Y-16025298D01*
X15055096Y-16006250D02*
X15055096Y-16139584D01*
X15007477Y-15930060D02*
X14959858Y-16072917D01*
X14959858Y-16072917D02*
X15083667Y-16072917D01*
X15150334Y-15939584D02*
X15150334Y-15977679D01*
X15226525Y-15939584D02*
X15226525Y-15977679D01*
X15521763Y-16215774D02*
X15512239Y-16206250D01*
X15512239Y-16206250D02*
X15493191Y-16177679D01*
X15493191Y-16177679D02*
X15483668Y-16158631D01*
X15483668Y-16158631D02*
X15474144Y-16130060D01*
X15474144Y-16130060D02*
X15464620Y-16082441D01*
X15464620Y-16082441D02*
X15464620Y-16044346D01*
X15464620Y-16044346D02*
X15474144Y-15996727D01*
X15474144Y-15996727D02*
X15483668Y-15968155D01*
X15483668Y-15968155D02*
X15493191Y-15949108D01*
X15493191Y-15949108D02*
X15512239Y-15920536D01*
X15512239Y-15920536D02*
X15521763Y-15911012D01*
X15626525Y-16025298D02*
X15607477Y-16015774D01*
X15607477Y-16015774D02*
X15597953Y-16006250D01*
X15597953Y-16006250D02*
X15588429Y-15987203D01*
X15588429Y-15987203D02*
X15588429Y-15977679D01*
X15588429Y-15977679D02*
X15597953Y-15958631D01*
X15597953Y-15958631D02*
X15607477Y-15949108D01*
X15607477Y-15949108D02*
X15626525Y-15939584D01*
X15626525Y-15939584D02*
X15664620Y-15939584D01*
X15664620Y-15939584D02*
X15683668Y-15949108D01*
X15683668Y-15949108D02*
X15693191Y-15958631D01*
X15693191Y-15958631D02*
X15702715Y-15977679D01*
X15702715Y-15977679D02*
X15702715Y-15987203D01*
X15702715Y-15987203D02*
X15693191Y-16006250D01*
X15693191Y-16006250D02*
X15683668Y-16015774D01*
X15683668Y-16015774D02*
X15664620Y-16025298D01*
X15664620Y-16025298D02*
X15626525Y-16025298D01*
X15626525Y-16025298D02*
X15607477Y-16034822D01*
X15607477Y-16034822D02*
X15597953Y-16044346D01*
X15597953Y-16044346D02*
X15588429Y-16063393D01*
X15588429Y-16063393D02*
X15588429Y-16101488D01*
X15588429Y-16101488D02*
X15597953Y-16120536D01*
X15597953Y-16120536D02*
X15607477Y-16130060D01*
X15607477Y-16130060D02*
X15626525Y-16139584D01*
X15626525Y-16139584D02*
X15664620Y-16139584D01*
X15664620Y-16139584D02*
X15683668Y-16130060D01*
X15683668Y-16130060D02*
X15693191Y-16120536D01*
X15693191Y-16120536D02*
X15702715Y-16101488D01*
X15702715Y-16101488D02*
X15702715Y-16063393D01*
X15702715Y-16063393D02*
X15693191Y-16044346D01*
X15693191Y-16044346D02*
X15683668Y-16034822D01*
X15683668Y-16034822D02*
X15664620Y-16025298D01*
X15940810Y-16139584D02*
X15940810Y-15939584D01*
X16026525Y-16139584D02*
X16026525Y-16034822D01*
X16026525Y-16034822D02*
X16017001Y-16015774D01*
X16017001Y-16015774D02*
X15997953Y-16006250D01*
X15997953Y-16006250D02*
X15969382Y-16006250D01*
X15969382Y-16006250D02*
X15950334Y-16015774D01*
X15950334Y-16015774D02*
X15940810Y-16025298D01*
X16150334Y-16139584D02*
X16131287Y-16130060D01*
X16131287Y-16130060D02*
X16121763Y-16120536D01*
X16121763Y-16120536D02*
X16112239Y-16101488D01*
X16112239Y-16101488D02*
X16112239Y-16044346D01*
X16112239Y-16044346D02*
X16121763Y-16025298D01*
X16121763Y-16025298D02*
X16131287Y-16015774D01*
X16131287Y-16015774D02*
X16150334Y-16006250D01*
X16150334Y-16006250D02*
X16178906Y-16006250D01*
X16178906Y-16006250D02*
X16197953Y-16015774D01*
X16197953Y-16015774D02*
X16207477Y-16025298D01*
X16207477Y-16025298D02*
X16217001Y-16044346D01*
X16217001Y-16044346D02*
X16217001Y-16101488D01*
X16217001Y-16101488D02*
X16207477Y-16120536D01*
X16207477Y-16120536D02*
X16197953Y-16130060D01*
X16197953Y-16130060D02*
X16178906Y-16139584D01*
X16178906Y-16139584D02*
X16150334Y-16139584D01*
X16331287Y-16139584D02*
X16312239Y-16130060D01*
X16312239Y-16130060D02*
X16302715Y-16111012D01*
X16302715Y-16111012D02*
X16302715Y-15939584D01*
X16483668Y-16130060D02*
X16464620Y-16139584D01*
X16464620Y-16139584D02*
X16426525Y-16139584D01*
X16426525Y-16139584D02*
X16407477Y-16130060D01*
X16407477Y-16130060D02*
X16397953Y-16111012D01*
X16397953Y-16111012D02*
X16397953Y-16034822D01*
X16397953Y-16034822D02*
X16407477Y-16015774D01*
X16407477Y-16015774D02*
X16426525Y-16006250D01*
X16426525Y-16006250D02*
X16464620Y-16006250D01*
X16464620Y-16006250D02*
X16483668Y-16015774D01*
X16483668Y-16015774D02*
X16493191Y-16034822D01*
X16493191Y-16034822D02*
X16493191Y-16053869D01*
X16493191Y-16053869D02*
X16397953Y-16072917D01*
X16569382Y-16130060D02*
X16588430Y-16139584D01*
X16588430Y-16139584D02*
X16626525Y-16139584D01*
X16626525Y-16139584D02*
X16645572Y-16130060D01*
X16645572Y-16130060D02*
X16655096Y-16111012D01*
X16655096Y-16111012D02*
X16655096Y-16101488D01*
X16655096Y-16101488D02*
X16645572Y-16082441D01*
X16645572Y-16082441D02*
X16626525Y-16072917D01*
X16626525Y-16072917D02*
X16597953Y-16072917D01*
X16597953Y-16072917D02*
X16578906Y-16063393D01*
X16578906Y-16063393D02*
X16569382Y-16044346D01*
X16569382Y-16044346D02*
X16569382Y-16034822D01*
X16569382Y-16034822D02*
X16578906Y-16015774D01*
X16578906Y-16015774D02*
X16597953Y-16006250D01*
X16597953Y-16006250D02*
X16626525Y-16006250D01*
X16626525Y-16006250D02*
X16645572Y-16015774D01*
X16721763Y-16215774D02*
X16731287Y-16206250D01*
X16731287Y-16206250D02*
X16750334Y-16177679D01*
X16750334Y-16177679D02*
X16759858Y-16158631D01*
X16759858Y-16158631D02*
X16769382Y-16130060D01*
X16769382Y-16130060D02*
X16778906Y-16082441D01*
X16778906Y-16082441D02*
X16778906Y-16044346D01*
X16778906Y-16044346D02*
X16769382Y-15996727D01*
X16769382Y-15996727D02*
X16759858Y-15968155D01*
X16759858Y-15968155D02*
X16750334Y-15949108D01*
X16750334Y-15949108D02*
X16731287Y-15920536D01*
X16731287Y-15920536D02*
X16721763Y-15911012D01*
D15*
X11891700Y-16367100D02*
X11946700Y-16312100D01*
X11891700Y-16257100D01*
X11836700Y-16312100D01*
X11891700Y-16367100D01*
D11*
X12312239Y-16403584D02*
X12197953Y-16403584D01*
X12255096Y-16403584D02*
X12255096Y-16203584D01*
X12255096Y-16203584D02*
X12236048Y-16232155D01*
X12236048Y-16232155D02*
X12217001Y-16251203D01*
X12217001Y-16251203D02*
X12197953Y-16260727D01*
X12397953Y-16384536D02*
X12407477Y-16394060D01*
X12407477Y-16394060D02*
X12397953Y-16403584D01*
X12397953Y-16403584D02*
X12388429Y-16394060D01*
X12388429Y-16394060D02*
X12397953Y-16384536D01*
X12397953Y-16384536D02*
X12397953Y-16403584D01*
X12597953Y-16403584D02*
X12483667Y-16403584D01*
X12540810Y-16403584D02*
X12540810Y-16203584D01*
X12540810Y-16203584D02*
X12521762Y-16232155D01*
X12521762Y-16232155D02*
X12502715Y-16251203D01*
X12502715Y-16251203D02*
X12483667Y-16260727D01*
X12721762Y-16203584D02*
X12740810Y-16203584D01*
X12740810Y-16203584D02*
X12759858Y-16213108D01*
X12759858Y-16213108D02*
X12769382Y-16222631D01*
X12769382Y-16222631D02*
X12778905Y-16241679D01*
X12778905Y-16241679D02*
X12788429Y-16279774D01*
X12788429Y-16279774D02*
X12788429Y-16327393D01*
X12788429Y-16327393D02*
X12778905Y-16365488D01*
X12778905Y-16365488D02*
X12769382Y-16384536D01*
X12769382Y-16384536D02*
X12759858Y-16394060D01*
X12759858Y-16394060D02*
X12740810Y-16403584D01*
X12740810Y-16403584D02*
X12721762Y-16403584D01*
X12721762Y-16403584D02*
X12702715Y-16394060D01*
X12702715Y-16394060D02*
X12693191Y-16384536D01*
X12693191Y-16384536D02*
X12683667Y-16365488D01*
X12683667Y-16365488D02*
X12674143Y-16327393D01*
X12674143Y-16327393D02*
X12674143Y-16279774D01*
X12674143Y-16279774D02*
X12683667Y-16241679D01*
X12683667Y-16241679D02*
X12693191Y-16222631D01*
X12693191Y-16222631D02*
X12702715Y-16213108D01*
X12702715Y-16213108D02*
X12721762Y-16203584D01*
X12912239Y-16203584D02*
X12931286Y-16203584D01*
X12931286Y-16203584D02*
X12950334Y-16213108D01*
X12950334Y-16213108D02*
X12959858Y-16222631D01*
X12959858Y-16222631D02*
X12969382Y-16241679D01*
X12969382Y-16241679D02*
X12978905Y-16279774D01*
X12978905Y-16279774D02*
X12978905Y-16327393D01*
X12978905Y-16327393D02*
X12969382Y-16365488D01*
X12969382Y-16365488D02*
X12959858Y-16384536D01*
X12959858Y-16384536D02*
X12950334Y-16394060D01*
X12950334Y-16394060D02*
X12931286Y-16403584D01*
X12931286Y-16403584D02*
X12912239Y-16403584D01*
X12912239Y-16403584D02*
X12893191Y-16394060D01*
X12893191Y-16394060D02*
X12883667Y-16384536D01*
X12883667Y-16384536D02*
X12874143Y-16365488D01*
X12874143Y-16365488D02*
X12864620Y-16327393D01*
X12864620Y-16327393D02*
X12864620Y-16279774D01*
X12864620Y-16279774D02*
X12874143Y-16241679D01*
X12874143Y-16241679D02*
X12883667Y-16222631D01*
X12883667Y-16222631D02*
X12893191Y-16213108D01*
X12893191Y-16213108D02*
X12912239Y-16203584D01*
X13064620Y-16403584D02*
X13064620Y-16270250D01*
X13064620Y-16289298D02*
X13074143Y-16279774D01*
X13074143Y-16279774D02*
X13093191Y-16270250D01*
X13093191Y-16270250D02*
X13121763Y-16270250D01*
X13121763Y-16270250D02*
X13140810Y-16279774D01*
X13140810Y-16279774D02*
X13150334Y-16298822D01*
X13150334Y-16298822D02*
X13150334Y-16403584D01*
X13150334Y-16298822D02*
X13159858Y-16279774D01*
X13159858Y-16279774D02*
X13178905Y-16270250D01*
X13178905Y-16270250D02*
X13207477Y-16270250D01*
X13207477Y-16270250D02*
X13226524Y-16279774D01*
X13226524Y-16279774D02*
X13236048Y-16298822D01*
X13236048Y-16298822D02*
X13236048Y-16403584D01*
X13331286Y-16403584D02*
X13331286Y-16270250D01*
X13331286Y-16289298D02*
X13340810Y-16279774D01*
X13340810Y-16279774D02*
X13359858Y-16270250D01*
X13359858Y-16270250D02*
X13388429Y-16270250D01*
X13388429Y-16270250D02*
X13407477Y-16279774D01*
X13407477Y-16279774D02*
X13417001Y-16298822D01*
X13417001Y-16298822D02*
X13417001Y-16403584D01*
X13417001Y-16298822D02*
X13426524Y-16279774D01*
X13426524Y-16279774D02*
X13445572Y-16270250D01*
X13445572Y-16270250D02*
X13474143Y-16270250D01*
X13474143Y-16270250D02*
X13493191Y-16279774D01*
X13493191Y-16279774D02*
X13502715Y-16298822D01*
X13502715Y-16298822D02*
X13502715Y-16403584D01*
X13893191Y-16194060D02*
X13721763Y-16451203D01*
X14150334Y-16203584D02*
X14169382Y-16203584D01*
X14169382Y-16203584D02*
X14188429Y-16213108D01*
X14188429Y-16213108D02*
X14197953Y-16222631D01*
X14197953Y-16222631D02*
X14207477Y-16241679D01*
X14207477Y-16241679D02*
X14217001Y-16279774D01*
X14217001Y-16279774D02*
X14217001Y-16327393D01*
X14217001Y-16327393D02*
X14207477Y-16365488D01*
X14207477Y-16365488D02*
X14197953Y-16384536D01*
X14197953Y-16384536D02*
X14188429Y-16394060D01*
X14188429Y-16394060D02*
X14169382Y-16403584D01*
X14169382Y-16403584D02*
X14150334Y-16403584D01*
X14150334Y-16403584D02*
X14131286Y-16394060D01*
X14131286Y-16394060D02*
X14121763Y-16384536D01*
X14121763Y-16384536D02*
X14112239Y-16365488D01*
X14112239Y-16365488D02*
X14102715Y-16327393D01*
X14102715Y-16327393D02*
X14102715Y-16279774D01*
X14102715Y-16279774D02*
X14112239Y-16241679D01*
X14112239Y-16241679D02*
X14121763Y-16222631D01*
X14121763Y-16222631D02*
X14131286Y-16213108D01*
X14131286Y-16213108D02*
X14150334Y-16203584D01*
X14302715Y-16384536D02*
X14312239Y-16394060D01*
X14312239Y-16394060D02*
X14302715Y-16403584D01*
X14302715Y-16403584D02*
X14293191Y-16394060D01*
X14293191Y-16394060D02*
X14302715Y-16384536D01*
X14302715Y-16384536D02*
X14302715Y-16403584D01*
X14436048Y-16203584D02*
X14455096Y-16203584D01*
X14455096Y-16203584D02*
X14474144Y-16213108D01*
X14474144Y-16213108D02*
X14483667Y-16222631D01*
X14483667Y-16222631D02*
X14493191Y-16241679D01*
X14493191Y-16241679D02*
X14502715Y-16279774D01*
X14502715Y-16279774D02*
X14502715Y-16327393D01*
X14502715Y-16327393D02*
X14493191Y-16365488D01*
X14493191Y-16365488D02*
X14483667Y-16384536D01*
X14483667Y-16384536D02*
X14474144Y-16394060D01*
X14474144Y-16394060D02*
X14455096Y-16403584D01*
X14455096Y-16403584D02*
X14436048Y-16403584D01*
X14436048Y-16403584D02*
X14417001Y-16394060D01*
X14417001Y-16394060D02*
X14407477Y-16384536D01*
X14407477Y-16384536D02*
X14397953Y-16365488D01*
X14397953Y-16365488D02*
X14388429Y-16327393D01*
X14388429Y-16327393D02*
X14388429Y-16279774D01*
X14388429Y-16279774D02*
X14397953Y-16241679D01*
X14397953Y-16241679D02*
X14407477Y-16222631D01*
X14407477Y-16222631D02*
X14417001Y-16213108D01*
X14417001Y-16213108D02*
X14436048Y-16203584D01*
X14674144Y-16270250D02*
X14674144Y-16403584D01*
X14626525Y-16194060D02*
X14578906Y-16336917D01*
X14578906Y-16336917D02*
X14702715Y-16336917D01*
X14759858Y-16203584D02*
X14883667Y-16203584D01*
X14883667Y-16203584D02*
X14817001Y-16279774D01*
X14817001Y-16279774D02*
X14845572Y-16279774D01*
X14845572Y-16279774D02*
X14864620Y-16289298D01*
X14864620Y-16289298D02*
X14874144Y-16298822D01*
X14874144Y-16298822D02*
X14883667Y-16317869D01*
X14883667Y-16317869D02*
X14883667Y-16365488D01*
X14883667Y-16365488D02*
X14874144Y-16384536D01*
X14874144Y-16384536D02*
X14864620Y-16394060D01*
X14864620Y-16394060D02*
X14845572Y-16403584D01*
X14845572Y-16403584D02*
X14788429Y-16403584D01*
X14788429Y-16403584D02*
X14769382Y-16394060D01*
X14769382Y-16394060D02*
X14759858Y-16384536D01*
X14950334Y-16203584D02*
X15074144Y-16203584D01*
X15074144Y-16203584D02*
X15007477Y-16279774D01*
X15007477Y-16279774D02*
X15036048Y-16279774D01*
X15036048Y-16279774D02*
X15055096Y-16289298D01*
X15055096Y-16289298D02*
X15064620Y-16298822D01*
X15064620Y-16298822D02*
X15074144Y-16317869D01*
X15074144Y-16317869D02*
X15074144Y-16365488D01*
X15074144Y-16365488D02*
X15064620Y-16384536D01*
X15064620Y-16384536D02*
X15055096Y-16394060D01*
X15055096Y-16394060D02*
X15036048Y-16403584D01*
X15036048Y-16403584D02*
X14978906Y-16403584D01*
X14978906Y-16403584D02*
X14959858Y-16394060D01*
X14959858Y-16394060D02*
X14950334Y-16384536D01*
X15150334Y-16203584D02*
X15150334Y-16241679D01*
X15226525Y-16203584D02*
X15226525Y-16241679D01*
X15521763Y-16479774D02*
X15512239Y-16470250D01*
X15512239Y-16470250D02*
X15493191Y-16441679D01*
X15493191Y-16441679D02*
X15483668Y-16422631D01*
X15483668Y-16422631D02*
X15474144Y-16394060D01*
X15474144Y-16394060D02*
X15464620Y-16346441D01*
X15464620Y-16346441D02*
X15464620Y-16308346D01*
X15464620Y-16308346D02*
X15474144Y-16260727D01*
X15474144Y-16260727D02*
X15483668Y-16232155D01*
X15483668Y-16232155D02*
X15493191Y-16213108D01*
X15493191Y-16213108D02*
X15512239Y-16184536D01*
X15512239Y-16184536D02*
X15521763Y-16175012D01*
X15702715Y-16403584D02*
X15588429Y-16403584D01*
X15645572Y-16403584D02*
X15645572Y-16203584D01*
X15645572Y-16203584D02*
X15626525Y-16232155D01*
X15626525Y-16232155D02*
X15607477Y-16251203D01*
X15607477Y-16251203D02*
X15588429Y-16260727D01*
X15874144Y-16270250D02*
X15874144Y-16403584D01*
X15826525Y-16194060D02*
X15778906Y-16336917D01*
X15778906Y-16336917D02*
X15902715Y-16336917D01*
X16131287Y-16403584D02*
X16131287Y-16203584D01*
X16217001Y-16403584D02*
X16217001Y-16298822D01*
X16217001Y-16298822D02*
X16207477Y-16279774D01*
X16207477Y-16279774D02*
X16188430Y-16270250D01*
X16188430Y-16270250D02*
X16159858Y-16270250D01*
X16159858Y-16270250D02*
X16140810Y-16279774D01*
X16140810Y-16279774D02*
X16131287Y-16289298D01*
X16340810Y-16403584D02*
X16321763Y-16394060D01*
X16321763Y-16394060D02*
X16312239Y-16384536D01*
X16312239Y-16384536D02*
X16302715Y-16365488D01*
X16302715Y-16365488D02*
X16302715Y-16308346D01*
X16302715Y-16308346D02*
X16312239Y-16289298D01*
X16312239Y-16289298D02*
X16321763Y-16279774D01*
X16321763Y-16279774D02*
X16340810Y-16270250D01*
X16340810Y-16270250D02*
X16369382Y-16270250D01*
X16369382Y-16270250D02*
X16388430Y-16279774D01*
X16388430Y-16279774D02*
X16397953Y-16289298D01*
X16397953Y-16289298D02*
X16407477Y-16308346D01*
X16407477Y-16308346D02*
X16407477Y-16365488D01*
X16407477Y-16365488D02*
X16397953Y-16384536D01*
X16397953Y-16384536D02*
X16388430Y-16394060D01*
X16388430Y-16394060D02*
X16369382Y-16403584D01*
X16369382Y-16403584D02*
X16340810Y-16403584D01*
X16521763Y-16403584D02*
X16502715Y-16394060D01*
X16502715Y-16394060D02*
X16493191Y-16375012D01*
X16493191Y-16375012D02*
X16493191Y-16203584D01*
X16674144Y-16394060D02*
X16655096Y-16403584D01*
X16655096Y-16403584D02*
X16617001Y-16403584D01*
X16617001Y-16403584D02*
X16597953Y-16394060D01*
X16597953Y-16394060D02*
X16588430Y-16375012D01*
X16588430Y-16375012D02*
X16588430Y-16298822D01*
X16588430Y-16298822D02*
X16597953Y-16279774D01*
X16597953Y-16279774D02*
X16617001Y-16270250D01*
X16617001Y-16270250D02*
X16655096Y-16270250D01*
X16655096Y-16270250D02*
X16674144Y-16279774D01*
X16674144Y-16279774D02*
X16683668Y-16298822D01*
X16683668Y-16298822D02*
X16683668Y-16317869D01*
X16683668Y-16317869D02*
X16588430Y-16336917D01*
X16759858Y-16394060D02*
X16778906Y-16403584D01*
X16778906Y-16403584D02*
X16817001Y-16403584D01*
X16817001Y-16403584D02*
X16836049Y-16394060D01*
X16836049Y-16394060D02*
X16845573Y-16375012D01*
X16845573Y-16375012D02*
X16845573Y-16365488D01*
X16845573Y-16365488D02*
X16836049Y-16346441D01*
X16836049Y-16346441D02*
X16817001Y-16336917D01*
X16817001Y-16336917D02*
X16788430Y-16336917D01*
X16788430Y-16336917D02*
X16769382Y-16327393D01*
X16769382Y-16327393D02*
X16759858Y-16308346D01*
X16759858Y-16308346D02*
X16759858Y-16298822D01*
X16759858Y-16298822D02*
X16769382Y-16279774D01*
X16769382Y-16279774D02*
X16788430Y-16270250D01*
X16788430Y-16270250D02*
X16817001Y-16270250D01*
X16817001Y-16270250D02*
X16836049Y-16279774D01*
X16912239Y-16479774D02*
X16921763Y-16470250D01*
X16921763Y-16470250D02*
X16940811Y-16441679D01*
X16940811Y-16441679D02*
X16950334Y-16422631D01*
X16950334Y-16422631D02*
X16959858Y-16394060D01*
X16959858Y-16394060D02*
X16969382Y-16346441D01*
X16969382Y-16346441D02*
X16969382Y-16308346D01*
X16969382Y-16308346D02*
X16959858Y-16260727D01*
X16959858Y-16260727D02*
X16950334Y-16232155D01*
X16950334Y-16232155D02*
X16940811Y-16213108D01*
X16940811Y-16213108D02*
X16921763Y-16184536D01*
X16921763Y-16184536D02*
X16912239Y-16175012D01*
M02*
