%TF.GenerationSoftware,KiCad,Pcbnew,7.0.7*%
%TF.CreationDate,2023-11-09T13:22:12-08:00*%
%TF.ProjectId,Balance_Bot,42616c61-6e63-4655-9f42-6f742e6b6963,rev?*%
%TF.SameCoordinates,Original*%
%TF.FileFunction,Drillmap*%
%TF.FilePolarity,Positive*%
%FSLAX45Y45*%
G04 Gerber Fmt 4.5, Leading zero omitted, Abs format (unit mm)*
G04 Created by KiCad (PCBNEW 7.0.7) date 2023-11-09 13:22:12*
%MOMM*%
%LPD*%
G01*
G04 APERTURE LIST*
%ADD10C,0.100000*%
%ADD11C,0.200000*%
%ADD12C,0.110000*%
%ADD13C,0.320000*%
G04 APERTURE END LIST*
D10*
X11951700Y-6102100D02*
X20485100Y-6102100D01*
X20485100Y-14611100D01*
X11951700Y-14611100D01*
X11951700Y-6102100D01*
D11*
D12*
X19249000Y-8860400D02*
X19359000Y-8970400D01*
X19359000Y-8860400D02*
X19249000Y-8970400D01*
X19249000Y-9114400D02*
X19359000Y-9224400D01*
X19359000Y-9114400D02*
X19249000Y-9224400D01*
D13*
X12451900Y-6444600D02*
G75*
G03*
X12451900Y-6444600I-160000J0D01*
G01*
X12451900Y-14268600D02*
G75*
G03*
X12451900Y-14268600I-160000J0D01*
G01*
X18020000Y-11605000D02*
G75*
G03*
X18020000Y-11605000I-160000J0D01*
G01*
X18020000Y-13135000D02*
G75*
G03*
X18020000Y-13135000I-160000J0D01*
G01*
X20284900Y-6444600D02*
G75*
G03*
X20284900Y-6444600I-160000J0D01*
G01*
X20284900Y-14268600D02*
G75*
G03*
X20284900Y-14268600I-160000J0D01*
G01*
D11*
X12207477Y-14927584D02*
X12207477Y-14727584D01*
X12207477Y-14727584D02*
X12255096Y-14727584D01*
X12255096Y-14727584D02*
X12283667Y-14737108D01*
X12283667Y-14737108D02*
X12302715Y-14756155D01*
X12302715Y-14756155D02*
X12312239Y-14775203D01*
X12312239Y-14775203D02*
X12321762Y-14813298D01*
X12321762Y-14813298D02*
X12321762Y-14841869D01*
X12321762Y-14841869D02*
X12312239Y-14879965D01*
X12312239Y-14879965D02*
X12302715Y-14899012D01*
X12302715Y-14899012D02*
X12283667Y-14918060D01*
X12283667Y-14918060D02*
X12255096Y-14927584D01*
X12255096Y-14927584D02*
X12207477Y-14927584D01*
X12407477Y-14927584D02*
X12407477Y-14794250D01*
X12407477Y-14832346D02*
X12417001Y-14813298D01*
X12417001Y-14813298D02*
X12426524Y-14803774D01*
X12426524Y-14803774D02*
X12445572Y-14794250D01*
X12445572Y-14794250D02*
X12464620Y-14794250D01*
X12531286Y-14927584D02*
X12531286Y-14794250D01*
X12531286Y-14727584D02*
X12521762Y-14737108D01*
X12521762Y-14737108D02*
X12531286Y-14746631D01*
X12531286Y-14746631D02*
X12540810Y-14737108D01*
X12540810Y-14737108D02*
X12531286Y-14727584D01*
X12531286Y-14727584D02*
X12531286Y-14746631D01*
X12655096Y-14927584D02*
X12636048Y-14918060D01*
X12636048Y-14918060D02*
X12626524Y-14899012D01*
X12626524Y-14899012D02*
X12626524Y-14727584D01*
X12759858Y-14927584D02*
X12740810Y-14918060D01*
X12740810Y-14918060D02*
X12731286Y-14899012D01*
X12731286Y-14899012D02*
X12731286Y-14727584D01*
X12988429Y-14927584D02*
X12988429Y-14727584D01*
X12988429Y-14727584D02*
X13055096Y-14870441D01*
X13055096Y-14870441D02*
X13121762Y-14727584D01*
X13121762Y-14727584D02*
X13121762Y-14927584D01*
X13302715Y-14927584D02*
X13302715Y-14822822D01*
X13302715Y-14822822D02*
X13293191Y-14803774D01*
X13293191Y-14803774D02*
X13274143Y-14794250D01*
X13274143Y-14794250D02*
X13236048Y-14794250D01*
X13236048Y-14794250D02*
X13217001Y-14803774D01*
X13302715Y-14918060D02*
X13283667Y-14927584D01*
X13283667Y-14927584D02*
X13236048Y-14927584D01*
X13236048Y-14927584D02*
X13217001Y-14918060D01*
X13217001Y-14918060D02*
X13207477Y-14899012D01*
X13207477Y-14899012D02*
X13207477Y-14879965D01*
X13207477Y-14879965D02*
X13217001Y-14860917D01*
X13217001Y-14860917D02*
X13236048Y-14851393D01*
X13236048Y-14851393D02*
X13283667Y-14851393D01*
X13283667Y-14851393D02*
X13302715Y-14841869D01*
X13397953Y-14794250D02*
X13397953Y-14994250D01*
X13397953Y-14803774D02*
X13417001Y-14794250D01*
X13417001Y-14794250D02*
X13455096Y-14794250D01*
X13455096Y-14794250D02*
X13474143Y-14803774D01*
X13474143Y-14803774D02*
X13483667Y-14813298D01*
X13483667Y-14813298D02*
X13493191Y-14832346D01*
X13493191Y-14832346D02*
X13493191Y-14889488D01*
X13493191Y-14889488D02*
X13483667Y-14908536D01*
X13483667Y-14908536D02*
X13474143Y-14918060D01*
X13474143Y-14918060D02*
X13455096Y-14927584D01*
X13455096Y-14927584D02*
X13417001Y-14927584D01*
X13417001Y-14927584D02*
X13397953Y-14918060D01*
X13578905Y-14908536D02*
X13588429Y-14918060D01*
X13588429Y-14918060D02*
X13578905Y-14927584D01*
X13578905Y-14927584D02*
X13569382Y-14918060D01*
X13569382Y-14918060D02*
X13578905Y-14908536D01*
X13578905Y-14908536D02*
X13578905Y-14927584D01*
X13578905Y-14803774D02*
X13588429Y-14813298D01*
X13588429Y-14813298D02*
X13578905Y-14822822D01*
X13578905Y-14822822D02*
X13569382Y-14813298D01*
X13569382Y-14813298D02*
X13578905Y-14803774D01*
X13578905Y-14803774D02*
X13578905Y-14822822D01*
D12*
X11836700Y-15201100D02*
X11946700Y-15311100D01*
X11946700Y-15201100D02*
X11836700Y-15311100D01*
D11*
X12312239Y-15347584D02*
X12197953Y-15347584D01*
X12255096Y-15347584D02*
X12255096Y-15147584D01*
X12255096Y-15147584D02*
X12236048Y-15176155D01*
X12236048Y-15176155D02*
X12217001Y-15195203D01*
X12217001Y-15195203D02*
X12197953Y-15204727D01*
X12397953Y-15328536D02*
X12407477Y-15338060D01*
X12407477Y-15338060D02*
X12397953Y-15347584D01*
X12397953Y-15347584D02*
X12388429Y-15338060D01*
X12388429Y-15338060D02*
X12397953Y-15328536D01*
X12397953Y-15328536D02*
X12397953Y-15347584D01*
X12597953Y-15347584D02*
X12483667Y-15347584D01*
X12540810Y-15347584D02*
X12540810Y-15147584D01*
X12540810Y-15147584D02*
X12521762Y-15176155D01*
X12521762Y-15176155D02*
X12502715Y-15195203D01*
X12502715Y-15195203D02*
X12483667Y-15204727D01*
X12721762Y-15147584D02*
X12740810Y-15147584D01*
X12740810Y-15147584D02*
X12759858Y-15157108D01*
X12759858Y-15157108D02*
X12769382Y-15166631D01*
X12769382Y-15166631D02*
X12778905Y-15185679D01*
X12778905Y-15185679D02*
X12788429Y-15223774D01*
X12788429Y-15223774D02*
X12788429Y-15271393D01*
X12788429Y-15271393D02*
X12778905Y-15309488D01*
X12778905Y-15309488D02*
X12769382Y-15328536D01*
X12769382Y-15328536D02*
X12759858Y-15338060D01*
X12759858Y-15338060D02*
X12740810Y-15347584D01*
X12740810Y-15347584D02*
X12721762Y-15347584D01*
X12721762Y-15347584D02*
X12702715Y-15338060D01*
X12702715Y-15338060D02*
X12693191Y-15328536D01*
X12693191Y-15328536D02*
X12683667Y-15309488D01*
X12683667Y-15309488D02*
X12674143Y-15271393D01*
X12674143Y-15271393D02*
X12674143Y-15223774D01*
X12674143Y-15223774D02*
X12683667Y-15185679D01*
X12683667Y-15185679D02*
X12693191Y-15166631D01*
X12693191Y-15166631D02*
X12702715Y-15157108D01*
X12702715Y-15157108D02*
X12721762Y-15147584D01*
X12912239Y-15147584D02*
X12931286Y-15147584D01*
X12931286Y-15147584D02*
X12950334Y-15157108D01*
X12950334Y-15157108D02*
X12959858Y-15166631D01*
X12959858Y-15166631D02*
X12969382Y-15185679D01*
X12969382Y-15185679D02*
X12978905Y-15223774D01*
X12978905Y-15223774D02*
X12978905Y-15271393D01*
X12978905Y-15271393D02*
X12969382Y-15309488D01*
X12969382Y-15309488D02*
X12959858Y-15328536D01*
X12959858Y-15328536D02*
X12950334Y-15338060D01*
X12950334Y-15338060D02*
X12931286Y-15347584D01*
X12931286Y-15347584D02*
X12912239Y-15347584D01*
X12912239Y-15347584D02*
X12893191Y-15338060D01*
X12893191Y-15338060D02*
X12883667Y-15328536D01*
X12883667Y-15328536D02*
X12874143Y-15309488D01*
X12874143Y-15309488D02*
X12864620Y-15271393D01*
X12864620Y-15271393D02*
X12864620Y-15223774D01*
X12864620Y-15223774D02*
X12874143Y-15185679D01*
X12874143Y-15185679D02*
X12883667Y-15166631D01*
X12883667Y-15166631D02*
X12893191Y-15157108D01*
X12893191Y-15157108D02*
X12912239Y-15147584D01*
X13064620Y-15347584D02*
X13064620Y-15214250D01*
X13064620Y-15233298D02*
X13074143Y-15223774D01*
X13074143Y-15223774D02*
X13093191Y-15214250D01*
X13093191Y-15214250D02*
X13121763Y-15214250D01*
X13121763Y-15214250D02*
X13140810Y-15223774D01*
X13140810Y-15223774D02*
X13150334Y-15242822D01*
X13150334Y-15242822D02*
X13150334Y-15347584D01*
X13150334Y-15242822D02*
X13159858Y-15223774D01*
X13159858Y-15223774D02*
X13178905Y-15214250D01*
X13178905Y-15214250D02*
X13207477Y-15214250D01*
X13207477Y-15214250D02*
X13226524Y-15223774D01*
X13226524Y-15223774D02*
X13236048Y-15242822D01*
X13236048Y-15242822D02*
X13236048Y-15347584D01*
X13331286Y-15347584D02*
X13331286Y-15214250D01*
X13331286Y-15233298D02*
X13340810Y-15223774D01*
X13340810Y-15223774D02*
X13359858Y-15214250D01*
X13359858Y-15214250D02*
X13388429Y-15214250D01*
X13388429Y-15214250D02*
X13407477Y-15223774D01*
X13407477Y-15223774D02*
X13417001Y-15242822D01*
X13417001Y-15242822D02*
X13417001Y-15347584D01*
X13417001Y-15242822D02*
X13426524Y-15223774D01*
X13426524Y-15223774D02*
X13445572Y-15214250D01*
X13445572Y-15214250D02*
X13474143Y-15214250D01*
X13474143Y-15214250D02*
X13493191Y-15223774D01*
X13493191Y-15223774D02*
X13502715Y-15242822D01*
X13502715Y-15242822D02*
X13502715Y-15347584D01*
X13893191Y-15138060D02*
X13721763Y-15395203D01*
X14150334Y-15147584D02*
X14169382Y-15147584D01*
X14169382Y-15147584D02*
X14188429Y-15157108D01*
X14188429Y-15157108D02*
X14197953Y-15166631D01*
X14197953Y-15166631D02*
X14207477Y-15185679D01*
X14207477Y-15185679D02*
X14217001Y-15223774D01*
X14217001Y-15223774D02*
X14217001Y-15271393D01*
X14217001Y-15271393D02*
X14207477Y-15309488D01*
X14207477Y-15309488D02*
X14197953Y-15328536D01*
X14197953Y-15328536D02*
X14188429Y-15338060D01*
X14188429Y-15338060D02*
X14169382Y-15347584D01*
X14169382Y-15347584D02*
X14150334Y-15347584D01*
X14150334Y-15347584D02*
X14131286Y-15338060D01*
X14131286Y-15338060D02*
X14121763Y-15328536D01*
X14121763Y-15328536D02*
X14112239Y-15309488D01*
X14112239Y-15309488D02*
X14102715Y-15271393D01*
X14102715Y-15271393D02*
X14102715Y-15223774D01*
X14102715Y-15223774D02*
X14112239Y-15185679D01*
X14112239Y-15185679D02*
X14121763Y-15166631D01*
X14121763Y-15166631D02*
X14131286Y-15157108D01*
X14131286Y-15157108D02*
X14150334Y-15147584D01*
X14302715Y-15328536D02*
X14312239Y-15338060D01*
X14312239Y-15338060D02*
X14302715Y-15347584D01*
X14302715Y-15347584D02*
X14293191Y-15338060D01*
X14293191Y-15338060D02*
X14302715Y-15328536D01*
X14302715Y-15328536D02*
X14302715Y-15347584D01*
X14436048Y-15147584D02*
X14455096Y-15147584D01*
X14455096Y-15147584D02*
X14474144Y-15157108D01*
X14474144Y-15157108D02*
X14483667Y-15166631D01*
X14483667Y-15166631D02*
X14493191Y-15185679D01*
X14493191Y-15185679D02*
X14502715Y-15223774D01*
X14502715Y-15223774D02*
X14502715Y-15271393D01*
X14502715Y-15271393D02*
X14493191Y-15309488D01*
X14493191Y-15309488D02*
X14483667Y-15328536D01*
X14483667Y-15328536D02*
X14474144Y-15338060D01*
X14474144Y-15338060D02*
X14455096Y-15347584D01*
X14455096Y-15347584D02*
X14436048Y-15347584D01*
X14436048Y-15347584D02*
X14417001Y-15338060D01*
X14417001Y-15338060D02*
X14407477Y-15328536D01*
X14407477Y-15328536D02*
X14397953Y-15309488D01*
X14397953Y-15309488D02*
X14388429Y-15271393D01*
X14388429Y-15271393D02*
X14388429Y-15223774D01*
X14388429Y-15223774D02*
X14397953Y-15185679D01*
X14397953Y-15185679D02*
X14407477Y-15166631D01*
X14407477Y-15166631D02*
X14417001Y-15157108D01*
X14417001Y-15157108D02*
X14436048Y-15147584D01*
X14674144Y-15214250D02*
X14674144Y-15347584D01*
X14626525Y-15138060D02*
X14578906Y-15280917D01*
X14578906Y-15280917D02*
X14702715Y-15280917D01*
X14759858Y-15147584D02*
X14883667Y-15147584D01*
X14883667Y-15147584D02*
X14817001Y-15223774D01*
X14817001Y-15223774D02*
X14845572Y-15223774D01*
X14845572Y-15223774D02*
X14864620Y-15233298D01*
X14864620Y-15233298D02*
X14874144Y-15242822D01*
X14874144Y-15242822D02*
X14883667Y-15261869D01*
X14883667Y-15261869D02*
X14883667Y-15309488D01*
X14883667Y-15309488D02*
X14874144Y-15328536D01*
X14874144Y-15328536D02*
X14864620Y-15338060D01*
X14864620Y-15338060D02*
X14845572Y-15347584D01*
X14845572Y-15347584D02*
X14788429Y-15347584D01*
X14788429Y-15347584D02*
X14769382Y-15338060D01*
X14769382Y-15338060D02*
X14759858Y-15328536D01*
X14950334Y-15147584D02*
X15074144Y-15147584D01*
X15074144Y-15147584D02*
X15007477Y-15223774D01*
X15007477Y-15223774D02*
X15036048Y-15223774D01*
X15036048Y-15223774D02*
X15055096Y-15233298D01*
X15055096Y-15233298D02*
X15064620Y-15242822D01*
X15064620Y-15242822D02*
X15074144Y-15261869D01*
X15074144Y-15261869D02*
X15074144Y-15309488D01*
X15074144Y-15309488D02*
X15064620Y-15328536D01*
X15064620Y-15328536D02*
X15055096Y-15338060D01*
X15055096Y-15338060D02*
X15036048Y-15347584D01*
X15036048Y-15347584D02*
X14978906Y-15347584D01*
X14978906Y-15347584D02*
X14959858Y-15338060D01*
X14959858Y-15338060D02*
X14950334Y-15328536D01*
X15150334Y-15147584D02*
X15150334Y-15185679D01*
X15226525Y-15147584D02*
X15226525Y-15185679D01*
X15521763Y-15423774D02*
X15512239Y-15414250D01*
X15512239Y-15414250D02*
X15493191Y-15385679D01*
X15493191Y-15385679D02*
X15483668Y-15366631D01*
X15483668Y-15366631D02*
X15474144Y-15338060D01*
X15474144Y-15338060D02*
X15464620Y-15290441D01*
X15464620Y-15290441D02*
X15464620Y-15252346D01*
X15464620Y-15252346D02*
X15474144Y-15204727D01*
X15474144Y-15204727D02*
X15483668Y-15176155D01*
X15483668Y-15176155D02*
X15493191Y-15157108D01*
X15493191Y-15157108D02*
X15512239Y-15128536D01*
X15512239Y-15128536D02*
X15521763Y-15119012D01*
X15588429Y-15166631D02*
X15597953Y-15157108D01*
X15597953Y-15157108D02*
X15617001Y-15147584D01*
X15617001Y-15147584D02*
X15664620Y-15147584D01*
X15664620Y-15147584D02*
X15683668Y-15157108D01*
X15683668Y-15157108D02*
X15693191Y-15166631D01*
X15693191Y-15166631D02*
X15702715Y-15185679D01*
X15702715Y-15185679D02*
X15702715Y-15204727D01*
X15702715Y-15204727D02*
X15693191Y-15233298D01*
X15693191Y-15233298D02*
X15578906Y-15347584D01*
X15578906Y-15347584D02*
X15702715Y-15347584D01*
X15940810Y-15347584D02*
X15940810Y-15147584D01*
X16026525Y-15347584D02*
X16026525Y-15242822D01*
X16026525Y-15242822D02*
X16017001Y-15223774D01*
X16017001Y-15223774D02*
X15997953Y-15214250D01*
X15997953Y-15214250D02*
X15969382Y-15214250D01*
X15969382Y-15214250D02*
X15950334Y-15223774D01*
X15950334Y-15223774D02*
X15940810Y-15233298D01*
X16150334Y-15347584D02*
X16131287Y-15338060D01*
X16131287Y-15338060D02*
X16121763Y-15328536D01*
X16121763Y-15328536D02*
X16112239Y-15309488D01*
X16112239Y-15309488D02*
X16112239Y-15252346D01*
X16112239Y-15252346D02*
X16121763Y-15233298D01*
X16121763Y-15233298D02*
X16131287Y-15223774D01*
X16131287Y-15223774D02*
X16150334Y-15214250D01*
X16150334Y-15214250D02*
X16178906Y-15214250D01*
X16178906Y-15214250D02*
X16197953Y-15223774D01*
X16197953Y-15223774D02*
X16207477Y-15233298D01*
X16207477Y-15233298D02*
X16217001Y-15252346D01*
X16217001Y-15252346D02*
X16217001Y-15309488D01*
X16217001Y-15309488D02*
X16207477Y-15328536D01*
X16207477Y-15328536D02*
X16197953Y-15338060D01*
X16197953Y-15338060D02*
X16178906Y-15347584D01*
X16178906Y-15347584D02*
X16150334Y-15347584D01*
X16331287Y-15347584D02*
X16312239Y-15338060D01*
X16312239Y-15338060D02*
X16302715Y-15319012D01*
X16302715Y-15319012D02*
X16302715Y-15147584D01*
X16483668Y-15338060D02*
X16464620Y-15347584D01*
X16464620Y-15347584D02*
X16426525Y-15347584D01*
X16426525Y-15347584D02*
X16407477Y-15338060D01*
X16407477Y-15338060D02*
X16397953Y-15319012D01*
X16397953Y-15319012D02*
X16397953Y-15242822D01*
X16397953Y-15242822D02*
X16407477Y-15223774D01*
X16407477Y-15223774D02*
X16426525Y-15214250D01*
X16426525Y-15214250D02*
X16464620Y-15214250D01*
X16464620Y-15214250D02*
X16483668Y-15223774D01*
X16483668Y-15223774D02*
X16493191Y-15242822D01*
X16493191Y-15242822D02*
X16493191Y-15261869D01*
X16493191Y-15261869D02*
X16397953Y-15280917D01*
X16569382Y-15338060D02*
X16588430Y-15347584D01*
X16588430Y-15347584D02*
X16626525Y-15347584D01*
X16626525Y-15347584D02*
X16645572Y-15338060D01*
X16645572Y-15338060D02*
X16655096Y-15319012D01*
X16655096Y-15319012D02*
X16655096Y-15309488D01*
X16655096Y-15309488D02*
X16645572Y-15290441D01*
X16645572Y-15290441D02*
X16626525Y-15280917D01*
X16626525Y-15280917D02*
X16597953Y-15280917D01*
X16597953Y-15280917D02*
X16578906Y-15271393D01*
X16578906Y-15271393D02*
X16569382Y-15252346D01*
X16569382Y-15252346D02*
X16569382Y-15242822D01*
X16569382Y-15242822D02*
X16578906Y-15223774D01*
X16578906Y-15223774D02*
X16597953Y-15214250D01*
X16597953Y-15214250D02*
X16626525Y-15214250D01*
X16626525Y-15214250D02*
X16645572Y-15223774D01*
X16721763Y-15423774D02*
X16731287Y-15414250D01*
X16731287Y-15414250D02*
X16750334Y-15385679D01*
X16750334Y-15385679D02*
X16759858Y-15366631D01*
X16759858Y-15366631D02*
X16769382Y-15338060D01*
X16769382Y-15338060D02*
X16778906Y-15290441D01*
X16778906Y-15290441D02*
X16778906Y-15252346D01*
X16778906Y-15252346D02*
X16769382Y-15204727D01*
X16769382Y-15204727D02*
X16759858Y-15176155D01*
X16759858Y-15176155D02*
X16750334Y-15157108D01*
X16750334Y-15157108D02*
X16731287Y-15128536D01*
X16731287Y-15128536D02*
X16721763Y-15119012D01*
X17083668Y-15423774D02*
X17074144Y-15414250D01*
X17074144Y-15414250D02*
X17055096Y-15385679D01*
X17055096Y-15385679D02*
X17045573Y-15366631D01*
X17045573Y-15366631D02*
X17036049Y-15338060D01*
X17036049Y-15338060D02*
X17026525Y-15290441D01*
X17026525Y-15290441D02*
X17026525Y-15252346D01*
X17026525Y-15252346D02*
X17036049Y-15204727D01*
X17036049Y-15204727D02*
X17045573Y-15176155D01*
X17045573Y-15176155D02*
X17055096Y-15157108D01*
X17055096Y-15157108D02*
X17074144Y-15128536D01*
X17074144Y-15128536D02*
X17083668Y-15119012D01*
X17159858Y-15214250D02*
X17159858Y-15347584D01*
X17159858Y-15233298D02*
X17169382Y-15223774D01*
X17169382Y-15223774D02*
X17188430Y-15214250D01*
X17188430Y-15214250D02*
X17217001Y-15214250D01*
X17217001Y-15214250D02*
X17236049Y-15223774D01*
X17236049Y-15223774D02*
X17245573Y-15242822D01*
X17245573Y-15242822D02*
X17245573Y-15347584D01*
X17369382Y-15347584D02*
X17350334Y-15338060D01*
X17350334Y-15338060D02*
X17340811Y-15328536D01*
X17340811Y-15328536D02*
X17331287Y-15309488D01*
X17331287Y-15309488D02*
X17331287Y-15252346D01*
X17331287Y-15252346D02*
X17340811Y-15233298D01*
X17340811Y-15233298D02*
X17350334Y-15223774D01*
X17350334Y-15223774D02*
X17369382Y-15214250D01*
X17369382Y-15214250D02*
X17397954Y-15214250D01*
X17397954Y-15214250D02*
X17417001Y-15223774D01*
X17417001Y-15223774D02*
X17426525Y-15233298D01*
X17426525Y-15233298D02*
X17436049Y-15252346D01*
X17436049Y-15252346D02*
X17436049Y-15309488D01*
X17436049Y-15309488D02*
X17426525Y-15328536D01*
X17426525Y-15328536D02*
X17417001Y-15338060D01*
X17417001Y-15338060D02*
X17397954Y-15347584D01*
X17397954Y-15347584D02*
X17369382Y-15347584D01*
X17493192Y-15214250D02*
X17569382Y-15214250D01*
X17521763Y-15147584D02*
X17521763Y-15319012D01*
X17521763Y-15319012D02*
X17531287Y-15338060D01*
X17531287Y-15338060D02*
X17550334Y-15347584D01*
X17550334Y-15347584D02*
X17569382Y-15347584D01*
X17788430Y-15214250D02*
X17788430Y-15414250D01*
X17788430Y-15223774D02*
X17807477Y-15214250D01*
X17807477Y-15214250D02*
X17845573Y-15214250D01*
X17845573Y-15214250D02*
X17864620Y-15223774D01*
X17864620Y-15223774D02*
X17874144Y-15233298D01*
X17874144Y-15233298D02*
X17883668Y-15252346D01*
X17883668Y-15252346D02*
X17883668Y-15309488D01*
X17883668Y-15309488D02*
X17874144Y-15328536D01*
X17874144Y-15328536D02*
X17864620Y-15338060D01*
X17864620Y-15338060D02*
X17845573Y-15347584D01*
X17845573Y-15347584D02*
X17807477Y-15347584D01*
X17807477Y-15347584D02*
X17788430Y-15338060D01*
X17997954Y-15347584D02*
X17978906Y-15338060D01*
X17978906Y-15338060D02*
X17969382Y-15319012D01*
X17969382Y-15319012D02*
X17969382Y-15147584D01*
X18159858Y-15347584D02*
X18159858Y-15242822D01*
X18159858Y-15242822D02*
X18150335Y-15223774D01*
X18150335Y-15223774D02*
X18131287Y-15214250D01*
X18131287Y-15214250D02*
X18093192Y-15214250D01*
X18093192Y-15214250D02*
X18074144Y-15223774D01*
X18159858Y-15338060D02*
X18140811Y-15347584D01*
X18140811Y-15347584D02*
X18093192Y-15347584D01*
X18093192Y-15347584D02*
X18074144Y-15338060D01*
X18074144Y-15338060D02*
X18064620Y-15319012D01*
X18064620Y-15319012D02*
X18064620Y-15299965D01*
X18064620Y-15299965D02*
X18074144Y-15280917D01*
X18074144Y-15280917D02*
X18093192Y-15271393D01*
X18093192Y-15271393D02*
X18140811Y-15271393D01*
X18140811Y-15271393D02*
X18159858Y-15261869D01*
X18226525Y-15214250D02*
X18302715Y-15214250D01*
X18255096Y-15147584D02*
X18255096Y-15319012D01*
X18255096Y-15319012D02*
X18264620Y-15338060D01*
X18264620Y-15338060D02*
X18283668Y-15347584D01*
X18283668Y-15347584D02*
X18302715Y-15347584D01*
X18445573Y-15338060D02*
X18426525Y-15347584D01*
X18426525Y-15347584D02*
X18388430Y-15347584D01*
X18388430Y-15347584D02*
X18369382Y-15338060D01*
X18369382Y-15338060D02*
X18359858Y-15319012D01*
X18359858Y-15319012D02*
X18359858Y-15242822D01*
X18359858Y-15242822D02*
X18369382Y-15223774D01*
X18369382Y-15223774D02*
X18388430Y-15214250D01*
X18388430Y-15214250D02*
X18426525Y-15214250D01*
X18426525Y-15214250D02*
X18445573Y-15223774D01*
X18445573Y-15223774D02*
X18455096Y-15242822D01*
X18455096Y-15242822D02*
X18455096Y-15261869D01*
X18455096Y-15261869D02*
X18359858Y-15280917D01*
X18626525Y-15347584D02*
X18626525Y-15147584D01*
X18626525Y-15338060D02*
X18607477Y-15347584D01*
X18607477Y-15347584D02*
X18569382Y-15347584D01*
X18569382Y-15347584D02*
X18550335Y-15338060D01*
X18550335Y-15338060D02*
X18540811Y-15328536D01*
X18540811Y-15328536D02*
X18531287Y-15309488D01*
X18531287Y-15309488D02*
X18531287Y-15252346D01*
X18531287Y-15252346D02*
X18540811Y-15233298D01*
X18540811Y-15233298D02*
X18550335Y-15223774D01*
X18550335Y-15223774D02*
X18569382Y-15214250D01*
X18569382Y-15214250D02*
X18607477Y-15214250D01*
X18607477Y-15214250D02*
X18626525Y-15223774D01*
X18702716Y-15423774D02*
X18712239Y-15414250D01*
X18712239Y-15414250D02*
X18731287Y-15385679D01*
X18731287Y-15385679D02*
X18740811Y-15366631D01*
X18740811Y-15366631D02*
X18750335Y-15338060D01*
X18750335Y-15338060D02*
X18759858Y-15290441D01*
X18759858Y-15290441D02*
X18759858Y-15252346D01*
X18759858Y-15252346D02*
X18750335Y-15204727D01*
X18750335Y-15204727D02*
X18740811Y-15176155D01*
X18740811Y-15176155D02*
X18731287Y-15157108D01*
X18731287Y-15157108D02*
X18712239Y-15128536D01*
X18712239Y-15128536D02*
X18702716Y-15119012D01*
X11946700Y-15520100D02*
G75*
G03*
X11946700Y-15520100I-100000J0D01*
G01*
X12188429Y-15411584D02*
X12312239Y-15411584D01*
X12312239Y-15411584D02*
X12245572Y-15487774D01*
X12245572Y-15487774D02*
X12274143Y-15487774D01*
X12274143Y-15487774D02*
X12293191Y-15497298D01*
X12293191Y-15497298D02*
X12302715Y-15506822D01*
X12302715Y-15506822D02*
X12312239Y-15525869D01*
X12312239Y-15525869D02*
X12312239Y-15573488D01*
X12312239Y-15573488D02*
X12302715Y-15592536D01*
X12302715Y-15592536D02*
X12293191Y-15602060D01*
X12293191Y-15602060D02*
X12274143Y-15611584D01*
X12274143Y-15611584D02*
X12217001Y-15611584D01*
X12217001Y-15611584D02*
X12197953Y-15602060D01*
X12197953Y-15602060D02*
X12188429Y-15592536D01*
X12397953Y-15592536D02*
X12407477Y-15602060D01*
X12407477Y-15602060D02*
X12397953Y-15611584D01*
X12397953Y-15611584D02*
X12388429Y-15602060D01*
X12388429Y-15602060D02*
X12397953Y-15592536D01*
X12397953Y-15592536D02*
X12397953Y-15611584D01*
X12483667Y-15430631D02*
X12493191Y-15421108D01*
X12493191Y-15421108D02*
X12512239Y-15411584D01*
X12512239Y-15411584D02*
X12559858Y-15411584D01*
X12559858Y-15411584D02*
X12578905Y-15421108D01*
X12578905Y-15421108D02*
X12588429Y-15430631D01*
X12588429Y-15430631D02*
X12597953Y-15449679D01*
X12597953Y-15449679D02*
X12597953Y-15468727D01*
X12597953Y-15468727D02*
X12588429Y-15497298D01*
X12588429Y-15497298D02*
X12474143Y-15611584D01*
X12474143Y-15611584D02*
X12597953Y-15611584D01*
X12721762Y-15411584D02*
X12740810Y-15411584D01*
X12740810Y-15411584D02*
X12759858Y-15421108D01*
X12759858Y-15421108D02*
X12769382Y-15430631D01*
X12769382Y-15430631D02*
X12778905Y-15449679D01*
X12778905Y-15449679D02*
X12788429Y-15487774D01*
X12788429Y-15487774D02*
X12788429Y-15535393D01*
X12788429Y-15535393D02*
X12778905Y-15573488D01*
X12778905Y-15573488D02*
X12769382Y-15592536D01*
X12769382Y-15592536D02*
X12759858Y-15602060D01*
X12759858Y-15602060D02*
X12740810Y-15611584D01*
X12740810Y-15611584D02*
X12721762Y-15611584D01*
X12721762Y-15611584D02*
X12702715Y-15602060D01*
X12702715Y-15602060D02*
X12693191Y-15592536D01*
X12693191Y-15592536D02*
X12683667Y-15573488D01*
X12683667Y-15573488D02*
X12674143Y-15535393D01*
X12674143Y-15535393D02*
X12674143Y-15487774D01*
X12674143Y-15487774D02*
X12683667Y-15449679D01*
X12683667Y-15449679D02*
X12693191Y-15430631D01*
X12693191Y-15430631D02*
X12702715Y-15421108D01*
X12702715Y-15421108D02*
X12721762Y-15411584D01*
X12912239Y-15411584D02*
X12931286Y-15411584D01*
X12931286Y-15411584D02*
X12950334Y-15421108D01*
X12950334Y-15421108D02*
X12959858Y-15430631D01*
X12959858Y-15430631D02*
X12969382Y-15449679D01*
X12969382Y-15449679D02*
X12978905Y-15487774D01*
X12978905Y-15487774D02*
X12978905Y-15535393D01*
X12978905Y-15535393D02*
X12969382Y-15573488D01*
X12969382Y-15573488D02*
X12959858Y-15592536D01*
X12959858Y-15592536D02*
X12950334Y-15602060D01*
X12950334Y-15602060D02*
X12931286Y-15611584D01*
X12931286Y-15611584D02*
X12912239Y-15611584D01*
X12912239Y-15611584D02*
X12893191Y-15602060D01*
X12893191Y-15602060D02*
X12883667Y-15592536D01*
X12883667Y-15592536D02*
X12874143Y-15573488D01*
X12874143Y-15573488D02*
X12864620Y-15535393D01*
X12864620Y-15535393D02*
X12864620Y-15487774D01*
X12864620Y-15487774D02*
X12874143Y-15449679D01*
X12874143Y-15449679D02*
X12883667Y-15430631D01*
X12883667Y-15430631D02*
X12893191Y-15421108D01*
X12893191Y-15421108D02*
X12912239Y-15411584D01*
X13064620Y-15611584D02*
X13064620Y-15478250D01*
X13064620Y-15497298D02*
X13074143Y-15487774D01*
X13074143Y-15487774D02*
X13093191Y-15478250D01*
X13093191Y-15478250D02*
X13121763Y-15478250D01*
X13121763Y-15478250D02*
X13140810Y-15487774D01*
X13140810Y-15487774D02*
X13150334Y-15506822D01*
X13150334Y-15506822D02*
X13150334Y-15611584D01*
X13150334Y-15506822D02*
X13159858Y-15487774D01*
X13159858Y-15487774D02*
X13178905Y-15478250D01*
X13178905Y-15478250D02*
X13207477Y-15478250D01*
X13207477Y-15478250D02*
X13226524Y-15487774D01*
X13226524Y-15487774D02*
X13236048Y-15506822D01*
X13236048Y-15506822D02*
X13236048Y-15611584D01*
X13331286Y-15611584D02*
X13331286Y-15478250D01*
X13331286Y-15497298D02*
X13340810Y-15487774D01*
X13340810Y-15487774D02*
X13359858Y-15478250D01*
X13359858Y-15478250D02*
X13388429Y-15478250D01*
X13388429Y-15478250D02*
X13407477Y-15487774D01*
X13407477Y-15487774D02*
X13417001Y-15506822D01*
X13417001Y-15506822D02*
X13417001Y-15611584D01*
X13417001Y-15506822D02*
X13426524Y-15487774D01*
X13426524Y-15487774D02*
X13445572Y-15478250D01*
X13445572Y-15478250D02*
X13474143Y-15478250D01*
X13474143Y-15478250D02*
X13493191Y-15487774D01*
X13493191Y-15487774D02*
X13502715Y-15506822D01*
X13502715Y-15506822D02*
X13502715Y-15611584D01*
X13893191Y-15402060D02*
X13721763Y-15659203D01*
X14150334Y-15411584D02*
X14169382Y-15411584D01*
X14169382Y-15411584D02*
X14188429Y-15421108D01*
X14188429Y-15421108D02*
X14197953Y-15430631D01*
X14197953Y-15430631D02*
X14207477Y-15449679D01*
X14207477Y-15449679D02*
X14217001Y-15487774D01*
X14217001Y-15487774D02*
X14217001Y-15535393D01*
X14217001Y-15535393D02*
X14207477Y-15573488D01*
X14207477Y-15573488D02*
X14197953Y-15592536D01*
X14197953Y-15592536D02*
X14188429Y-15602060D01*
X14188429Y-15602060D02*
X14169382Y-15611584D01*
X14169382Y-15611584D02*
X14150334Y-15611584D01*
X14150334Y-15611584D02*
X14131286Y-15602060D01*
X14131286Y-15602060D02*
X14121763Y-15592536D01*
X14121763Y-15592536D02*
X14112239Y-15573488D01*
X14112239Y-15573488D02*
X14102715Y-15535393D01*
X14102715Y-15535393D02*
X14102715Y-15487774D01*
X14102715Y-15487774D02*
X14112239Y-15449679D01*
X14112239Y-15449679D02*
X14121763Y-15430631D01*
X14121763Y-15430631D02*
X14131286Y-15421108D01*
X14131286Y-15421108D02*
X14150334Y-15411584D01*
X14302715Y-15592536D02*
X14312239Y-15602060D01*
X14312239Y-15602060D02*
X14302715Y-15611584D01*
X14302715Y-15611584D02*
X14293191Y-15602060D01*
X14293191Y-15602060D02*
X14302715Y-15592536D01*
X14302715Y-15592536D02*
X14302715Y-15611584D01*
X14502715Y-15611584D02*
X14388429Y-15611584D01*
X14445572Y-15611584D02*
X14445572Y-15411584D01*
X14445572Y-15411584D02*
X14426525Y-15440155D01*
X14426525Y-15440155D02*
X14407477Y-15459203D01*
X14407477Y-15459203D02*
X14388429Y-15468727D01*
X14578906Y-15430631D02*
X14588429Y-15421108D01*
X14588429Y-15421108D02*
X14607477Y-15411584D01*
X14607477Y-15411584D02*
X14655096Y-15411584D01*
X14655096Y-15411584D02*
X14674144Y-15421108D01*
X14674144Y-15421108D02*
X14683667Y-15430631D01*
X14683667Y-15430631D02*
X14693191Y-15449679D01*
X14693191Y-15449679D02*
X14693191Y-15468727D01*
X14693191Y-15468727D02*
X14683667Y-15497298D01*
X14683667Y-15497298D02*
X14569382Y-15611584D01*
X14569382Y-15611584D02*
X14693191Y-15611584D01*
X14864620Y-15411584D02*
X14826525Y-15411584D01*
X14826525Y-15411584D02*
X14807477Y-15421108D01*
X14807477Y-15421108D02*
X14797953Y-15430631D01*
X14797953Y-15430631D02*
X14778906Y-15459203D01*
X14778906Y-15459203D02*
X14769382Y-15497298D01*
X14769382Y-15497298D02*
X14769382Y-15573488D01*
X14769382Y-15573488D02*
X14778906Y-15592536D01*
X14778906Y-15592536D02*
X14788429Y-15602060D01*
X14788429Y-15602060D02*
X14807477Y-15611584D01*
X14807477Y-15611584D02*
X14845572Y-15611584D01*
X14845572Y-15611584D02*
X14864620Y-15602060D01*
X14864620Y-15602060D02*
X14874144Y-15592536D01*
X14874144Y-15592536D02*
X14883667Y-15573488D01*
X14883667Y-15573488D02*
X14883667Y-15525869D01*
X14883667Y-15525869D02*
X14874144Y-15506822D01*
X14874144Y-15506822D02*
X14864620Y-15497298D01*
X14864620Y-15497298D02*
X14845572Y-15487774D01*
X14845572Y-15487774D02*
X14807477Y-15487774D01*
X14807477Y-15487774D02*
X14788429Y-15497298D01*
X14788429Y-15497298D02*
X14778906Y-15506822D01*
X14778906Y-15506822D02*
X14769382Y-15525869D01*
X15007477Y-15411584D02*
X15026525Y-15411584D01*
X15026525Y-15411584D02*
X15045572Y-15421108D01*
X15045572Y-15421108D02*
X15055096Y-15430631D01*
X15055096Y-15430631D02*
X15064620Y-15449679D01*
X15064620Y-15449679D02*
X15074144Y-15487774D01*
X15074144Y-15487774D02*
X15074144Y-15535393D01*
X15074144Y-15535393D02*
X15064620Y-15573488D01*
X15064620Y-15573488D02*
X15055096Y-15592536D01*
X15055096Y-15592536D02*
X15045572Y-15602060D01*
X15045572Y-15602060D02*
X15026525Y-15611584D01*
X15026525Y-15611584D02*
X15007477Y-15611584D01*
X15007477Y-15611584D02*
X14988429Y-15602060D01*
X14988429Y-15602060D02*
X14978906Y-15592536D01*
X14978906Y-15592536D02*
X14969382Y-15573488D01*
X14969382Y-15573488D02*
X14959858Y-15535393D01*
X14959858Y-15535393D02*
X14959858Y-15487774D01*
X14959858Y-15487774D02*
X14969382Y-15449679D01*
X14969382Y-15449679D02*
X14978906Y-15430631D01*
X14978906Y-15430631D02*
X14988429Y-15421108D01*
X14988429Y-15421108D02*
X15007477Y-15411584D01*
X15150334Y-15411584D02*
X15150334Y-15449679D01*
X15226525Y-15411584D02*
X15226525Y-15449679D01*
X15521763Y-15687774D02*
X15512239Y-15678250D01*
X15512239Y-15678250D02*
X15493191Y-15649679D01*
X15493191Y-15649679D02*
X15483668Y-15630631D01*
X15483668Y-15630631D02*
X15474144Y-15602060D01*
X15474144Y-15602060D02*
X15464620Y-15554441D01*
X15464620Y-15554441D02*
X15464620Y-15516346D01*
X15464620Y-15516346D02*
X15474144Y-15468727D01*
X15474144Y-15468727D02*
X15483668Y-15440155D01*
X15483668Y-15440155D02*
X15493191Y-15421108D01*
X15493191Y-15421108D02*
X15512239Y-15392536D01*
X15512239Y-15392536D02*
X15521763Y-15383012D01*
X15683668Y-15411584D02*
X15645572Y-15411584D01*
X15645572Y-15411584D02*
X15626525Y-15421108D01*
X15626525Y-15421108D02*
X15617001Y-15430631D01*
X15617001Y-15430631D02*
X15597953Y-15459203D01*
X15597953Y-15459203D02*
X15588429Y-15497298D01*
X15588429Y-15497298D02*
X15588429Y-15573488D01*
X15588429Y-15573488D02*
X15597953Y-15592536D01*
X15597953Y-15592536D02*
X15607477Y-15602060D01*
X15607477Y-15602060D02*
X15626525Y-15611584D01*
X15626525Y-15611584D02*
X15664620Y-15611584D01*
X15664620Y-15611584D02*
X15683668Y-15602060D01*
X15683668Y-15602060D02*
X15693191Y-15592536D01*
X15693191Y-15592536D02*
X15702715Y-15573488D01*
X15702715Y-15573488D02*
X15702715Y-15525869D01*
X15702715Y-15525869D02*
X15693191Y-15506822D01*
X15693191Y-15506822D02*
X15683668Y-15497298D01*
X15683668Y-15497298D02*
X15664620Y-15487774D01*
X15664620Y-15487774D02*
X15626525Y-15487774D01*
X15626525Y-15487774D02*
X15607477Y-15497298D01*
X15607477Y-15497298D02*
X15597953Y-15506822D01*
X15597953Y-15506822D02*
X15588429Y-15525869D01*
X15940810Y-15611584D02*
X15940810Y-15411584D01*
X16026525Y-15611584D02*
X16026525Y-15506822D01*
X16026525Y-15506822D02*
X16017001Y-15487774D01*
X16017001Y-15487774D02*
X15997953Y-15478250D01*
X15997953Y-15478250D02*
X15969382Y-15478250D01*
X15969382Y-15478250D02*
X15950334Y-15487774D01*
X15950334Y-15487774D02*
X15940810Y-15497298D01*
X16150334Y-15611584D02*
X16131287Y-15602060D01*
X16131287Y-15602060D02*
X16121763Y-15592536D01*
X16121763Y-15592536D02*
X16112239Y-15573488D01*
X16112239Y-15573488D02*
X16112239Y-15516346D01*
X16112239Y-15516346D02*
X16121763Y-15497298D01*
X16121763Y-15497298D02*
X16131287Y-15487774D01*
X16131287Y-15487774D02*
X16150334Y-15478250D01*
X16150334Y-15478250D02*
X16178906Y-15478250D01*
X16178906Y-15478250D02*
X16197953Y-15487774D01*
X16197953Y-15487774D02*
X16207477Y-15497298D01*
X16207477Y-15497298D02*
X16217001Y-15516346D01*
X16217001Y-15516346D02*
X16217001Y-15573488D01*
X16217001Y-15573488D02*
X16207477Y-15592536D01*
X16207477Y-15592536D02*
X16197953Y-15602060D01*
X16197953Y-15602060D02*
X16178906Y-15611584D01*
X16178906Y-15611584D02*
X16150334Y-15611584D01*
X16331287Y-15611584D02*
X16312239Y-15602060D01*
X16312239Y-15602060D02*
X16302715Y-15583012D01*
X16302715Y-15583012D02*
X16302715Y-15411584D01*
X16483668Y-15602060D02*
X16464620Y-15611584D01*
X16464620Y-15611584D02*
X16426525Y-15611584D01*
X16426525Y-15611584D02*
X16407477Y-15602060D01*
X16407477Y-15602060D02*
X16397953Y-15583012D01*
X16397953Y-15583012D02*
X16397953Y-15506822D01*
X16397953Y-15506822D02*
X16407477Y-15487774D01*
X16407477Y-15487774D02*
X16426525Y-15478250D01*
X16426525Y-15478250D02*
X16464620Y-15478250D01*
X16464620Y-15478250D02*
X16483668Y-15487774D01*
X16483668Y-15487774D02*
X16493191Y-15506822D01*
X16493191Y-15506822D02*
X16493191Y-15525869D01*
X16493191Y-15525869D02*
X16397953Y-15544917D01*
X16569382Y-15602060D02*
X16588430Y-15611584D01*
X16588430Y-15611584D02*
X16626525Y-15611584D01*
X16626525Y-15611584D02*
X16645572Y-15602060D01*
X16645572Y-15602060D02*
X16655096Y-15583012D01*
X16655096Y-15583012D02*
X16655096Y-15573488D01*
X16655096Y-15573488D02*
X16645572Y-15554441D01*
X16645572Y-15554441D02*
X16626525Y-15544917D01*
X16626525Y-15544917D02*
X16597953Y-15544917D01*
X16597953Y-15544917D02*
X16578906Y-15535393D01*
X16578906Y-15535393D02*
X16569382Y-15516346D01*
X16569382Y-15516346D02*
X16569382Y-15506822D01*
X16569382Y-15506822D02*
X16578906Y-15487774D01*
X16578906Y-15487774D02*
X16597953Y-15478250D01*
X16597953Y-15478250D02*
X16626525Y-15478250D01*
X16626525Y-15478250D02*
X16645572Y-15487774D01*
X16721763Y-15687774D02*
X16731287Y-15678250D01*
X16731287Y-15678250D02*
X16750334Y-15649679D01*
X16750334Y-15649679D02*
X16759858Y-15630631D01*
X16759858Y-15630631D02*
X16769382Y-15602060D01*
X16769382Y-15602060D02*
X16778906Y-15554441D01*
X16778906Y-15554441D02*
X16778906Y-15516346D01*
X16778906Y-15516346D02*
X16769382Y-15468727D01*
X16769382Y-15468727D02*
X16759858Y-15440155D01*
X16759858Y-15440155D02*
X16750334Y-15421108D01*
X16750334Y-15421108D02*
X16731287Y-15392536D01*
X16731287Y-15392536D02*
X16721763Y-15383012D01*
X17083668Y-15687774D02*
X17074144Y-15678250D01*
X17074144Y-15678250D02*
X17055096Y-15649679D01*
X17055096Y-15649679D02*
X17045573Y-15630631D01*
X17045573Y-15630631D02*
X17036049Y-15602060D01*
X17036049Y-15602060D02*
X17026525Y-15554441D01*
X17026525Y-15554441D02*
X17026525Y-15516346D01*
X17026525Y-15516346D02*
X17036049Y-15468727D01*
X17036049Y-15468727D02*
X17045573Y-15440155D01*
X17045573Y-15440155D02*
X17055096Y-15421108D01*
X17055096Y-15421108D02*
X17074144Y-15392536D01*
X17074144Y-15392536D02*
X17083668Y-15383012D01*
X17159858Y-15478250D02*
X17159858Y-15611584D01*
X17159858Y-15497298D02*
X17169382Y-15487774D01*
X17169382Y-15487774D02*
X17188430Y-15478250D01*
X17188430Y-15478250D02*
X17217001Y-15478250D01*
X17217001Y-15478250D02*
X17236049Y-15487774D01*
X17236049Y-15487774D02*
X17245573Y-15506822D01*
X17245573Y-15506822D02*
X17245573Y-15611584D01*
X17369382Y-15611584D02*
X17350334Y-15602060D01*
X17350334Y-15602060D02*
X17340811Y-15592536D01*
X17340811Y-15592536D02*
X17331287Y-15573488D01*
X17331287Y-15573488D02*
X17331287Y-15516346D01*
X17331287Y-15516346D02*
X17340811Y-15497298D01*
X17340811Y-15497298D02*
X17350334Y-15487774D01*
X17350334Y-15487774D02*
X17369382Y-15478250D01*
X17369382Y-15478250D02*
X17397954Y-15478250D01*
X17397954Y-15478250D02*
X17417001Y-15487774D01*
X17417001Y-15487774D02*
X17426525Y-15497298D01*
X17426525Y-15497298D02*
X17436049Y-15516346D01*
X17436049Y-15516346D02*
X17436049Y-15573488D01*
X17436049Y-15573488D02*
X17426525Y-15592536D01*
X17426525Y-15592536D02*
X17417001Y-15602060D01*
X17417001Y-15602060D02*
X17397954Y-15611584D01*
X17397954Y-15611584D02*
X17369382Y-15611584D01*
X17493192Y-15478250D02*
X17569382Y-15478250D01*
X17521763Y-15411584D02*
X17521763Y-15583012D01*
X17521763Y-15583012D02*
X17531287Y-15602060D01*
X17531287Y-15602060D02*
X17550334Y-15611584D01*
X17550334Y-15611584D02*
X17569382Y-15611584D01*
X17788430Y-15478250D02*
X17788430Y-15678250D01*
X17788430Y-15487774D02*
X17807477Y-15478250D01*
X17807477Y-15478250D02*
X17845573Y-15478250D01*
X17845573Y-15478250D02*
X17864620Y-15487774D01*
X17864620Y-15487774D02*
X17874144Y-15497298D01*
X17874144Y-15497298D02*
X17883668Y-15516346D01*
X17883668Y-15516346D02*
X17883668Y-15573488D01*
X17883668Y-15573488D02*
X17874144Y-15592536D01*
X17874144Y-15592536D02*
X17864620Y-15602060D01*
X17864620Y-15602060D02*
X17845573Y-15611584D01*
X17845573Y-15611584D02*
X17807477Y-15611584D01*
X17807477Y-15611584D02*
X17788430Y-15602060D01*
X17997954Y-15611584D02*
X17978906Y-15602060D01*
X17978906Y-15602060D02*
X17969382Y-15583012D01*
X17969382Y-15583012D02*
X17969382Y-15411584D01*
X18159858Y-15611584D02*
X18159858Y-15506822D01*
X18159858Y-15506822D02*
X18150335Y-15487774D01*
X18150335Y-15487774D02*
X18131287Y-15478250D01*
X18131287Y-15478250D02*
X18093192Y-15478250D01*
X18093192Y-15478250D02*
X18074144Y-15487774D01*
X18159858Y-15602060D02*
X18140811Y-15611584D01*
X18140811Y-15611584D02*
X18093192Y-15611584D01*
X18093192Y-15611584D02*
X18074144Y-15602060D01*
X18074144Y-15602060D02*
X18064620Y-15583012D01*
X18064620Y-15583012D02*
X18064620Y-15563965D01*
X18064620Y-15563965D02*
X18074144Y-15544917D01*
X18074144Y-15544917D02*
X18093192Y-15535393D01*
X18093192Y-15535393D02*
X18140811Y-15535393D01*
X18140811Y-15535393D02*
X18159858Y-15525869D01*
X18226525Y-15478250D02*
X18302715Y-15478250D01*
X18255096Y-15411584D02*
X18255096Y-15583012D01*
X18255096Y-15583012D02*
X18264620Y-15602060D01*
X18264620Y-15602060D02*
X18283668Y-15611584D01*
X18283668Y-15611584D02*
X18302715Y-15611584D01*
X18445573Y-15602060D02*
X18426525Y-15611584D01*
X18426525Y-15611584D02*
X18388430Y-15611584D01*
X18388430Y-15611584D02*
X18369382Y-15602060D01*
X18369382Y-15602060D02*
X18359858Y-15583012D01*
X18359858Y-15583012D02*
X18359858Y-15506822D01*
X18359858Y-15506822D02*
X18369382Y-15487774D01*
X18369382Y-15487774D02*
X18388430Y-15478250D01*
X18388430Y-15478250D02*
X18426525Y-15478250D01*
X18426525Y-15478250D02*
X18445573Y-15487774D01*
X18445573Y-15487774D02*
X18455096Y-15506822D01*
X18455096Y-15506822D02*
X18455096Y-15525869D01*
X18455096Y-15525869D02*
X18359858Y-15544917D01*
X18626525Y-15611584D02*
X18626525Y-15411584D01*
X18626525Y-15602060D02*
X18607477Y-15611584D01*
X18607477Y-15611584D02*
X18569382Y-15611584D01*
X18569382Y-15611584D02*
X18550335Y-15602060D01*
X18550335Y-15602060D02*
X18540811Y-15592536D01*
X18540811Y-15592536D02*
X18531287Y-15573488D01*
X18531287Y-15573488D02*
X18531287Y-15516346D01*
X18531287Y-15516346D02*
X18540811Y-15497298D01*
X18540811Y-15497298D02*
X18550335Y-15487774D01*
X18550335Y-15487774D02*
X18569382Y-15478250D01*
X18569382Y-15478250D02*
X18607477Y-15478250D01*
X18607477Y-15478250D02*
X18626525Y-15487774D01*
X18702716Y-15687774D02*
X18712239Y-15678250D01*
X18712239Y-15678250D02*
X18731287Y-15649679D01*
X18731287Y-15649679D02*
X18740811Y-15630631D01*
X18740811Y-15630631D02*
X18750335Y-15602060D01*
X18750335Y-15602060D02*
X18759858Y-15554441D01*
X18759858Y-15554441D02*
X18759858Y-15516346D01*
X18759858Y-15516346D02*
X18750335Y-15468727D01*
X18750335Y-15468727D02*
X18740811Y-15440155D01*
X18740811Y-15440155D02*
X18731287Y-15421108D01*
X18731287Y-15421108D02*
X18712239Y-15392536D01*
X18712239Y-15392536D02*
X18702716Y-15383012D01*
M02*
