%TF.GenerationSoftware,KiCad,Pcbnew,7.0.7*%
%TF.CreationDate,2023-11-09T13:19:11-08:00*%
%TF.ProjectId,Balance_Bot,42616c61-6e63-4655-9f42-6f742e6b6963,rev?*%
%TF.SameCoordinates,Original*%
%TF.FileFunction,Copper,L2,Bot*%
%TF.FilePolarity,Positive*%
%FSLAX46Y46*%
G04 Gerber Fmt 4.6, Leading zero omitted, Abs format (unit mm)*
G04 Created by KiCad (PCBNEW 7.0.7) date 2023-11-09 13:19:11*
%MOMM*%
%LPD*%
G01*
G04 APERTURE LIST*
%TA.AperFunction,ComponentPad*%
%ADD10C,0.630000*%
%TD*%
%TA.AperFunction,SMDPad,CuDef*%
%ADD11R,2.600000X3.300000*%
%TD*%
%TA.AperFunction,ComponentPad*%
%ADD12R,1.600000X1.600000*%
%TD*%
%TA.AperFunction,ComponentPad*%
%ADD13C,1.600000*%
%TD*%
%TA.AperFunction,ComponentPad*%
%ADD14C,2.200000*%
%TD*%
%TA.AperFunction,ComponentPad*%
%ADD15R,2.200000X2.200000*%
%TD*%
%TA.AperFunction,ComponentPad*%
%ADD16R,1.700000X1.700000*%
%TD*%
%TA.AperFunction,ComponentPad*%
%ADD17O,1.700000X1.700000*%
%TD*%
%TA.AperFunction,ViaPad*%
%ADD18C,0.800000*%
%TD*%
%TA.AperFunction,Conductor*%
%ADD19C,0.250000*%
%TD*%
%TA.AperFunction,Conductor*%
%ADD20C,2.000000*%
%TD*%
%TA.AperFunction,Conductor*%
%ADD21C,0.600000*%
%TD*%
G04 APERTURE END LIST*
D10*
%TO.P,U2,9,GND*%
%TO.N,GND*%
X161798000Y-74736000D03*
X161798000Y-73436000D03*
X161798000Y-72136000D03*
D11*
X161148000Y-73436000D03*
D10*
X160498000Y-74736000D03*
X160498000Y-73436000D03*
X160498000Y-72136000D03*
%TD*%
D12*
%TO.P,C7,1*%
%TO.N,12V_BAT*%
X169251621Y-78232000D03*
D13*
%TO.P,C7,2*%
%TO.N,GND*%
X171751621Y-78232000D03*
%TD*%
D14*
%TO.P,J3,2,Pin_2*%
%TO.N,GND*%
X190500000Y-89154000D03*
D15*
%TO.P,J3,1,Pin_1*%
%TO.N,12V_BAT*%
X190500000Y-91694000D03*
%TD*%
D16*
%TO.P,J4,1,Pin_1*%
%TO.N,+3.3V*%
X190350000Y-132674469D03*
D17*
%TO.P,J4,2,Pin_2*%
%TO.N,GND*%
X190350000Y-130134469D03*
%TO.P,J4,3,Pin_3*%
%TO.N,SCL*%
X190350000Y-127594469D03*
%TO.P,J4,4,Pin_4*%
%TO.N,SDA*%
X190350000Y-125054469D03*
%TO.P,J4,5,Pin_5*%
%TO.N,unconnected-(J4-Pin_5-Pad5)*%
X190350000Y-122514469D03*
%TO.P,J4,6,Pin_6*%
%TO.N,unconnected-(J4-Pin_6-Pad6)*%
X190350000Y-119974469D03*
%TO.P,J4,7,Pin_7*%
%TO.N,unconnected-(J4-Pin_7-Pad7)*%
X190350000Y-117434469D03*
%TO.P,J4,8,Pin_8*%
%TO.N,INT*%
X190350000Y-114894469D03*
%TD*%
D15*
%TO.P,J1,1,Pin_1*%
%TO.N,Net-(J1-Pin_1)*%
X190500000Y-84582000D03*
D14*
%TO.P,J1,2,Pin_2*%
%TO.N,Net-(J1-Pin_2)*%
X190500000Y-82042000D03*
%TO.P,J1,3,Pin_3*%
%TO.N,+3.3V*%
X190500000Y-79502000D03*
%TO.P,J1,4,Pin_4*%
%TO.N,OUT_A_LEFT*%
X190500000Y-76962000D03*
%TO.P,J1,5,Pin_5*%
%TO.N,OUT_B_LEFT*%
X190500000Y-74422000D03*
%TO.P,J1,6,Pin_6*%
%TO.N,GND*%
X190500000Y-71882000D03*
%TD*%
D12*
%TO.P,C9,1*%
%TO.N,12V_BAT*%
X169317621Y-103000000D03*
D13*
%TO.P,C9,2*%
%TO.N,GND*%
X171817621Y-103000000D03*
%TD*%
D10*
%TO.P,U4,9,GND*%
%TO.N,GND*%
X161544000Y-99374000D03*
X161544000Y-98074000D03*
X161544000Y-96774000D03*
D11*
X160894000Y-98074000D03*
D10*
X160244000Y-99374000D03*
X160244000Y-98074000D03*
X160244000Y-96774000D03*
%TD*%
D15*
%TO.P,J2,1,Pin_1*%
%TO.N,Net-(J2-Pin_1)*%
X190500000Y-108966000D03*
D14*
%TO.P,J2,2,Pin_2*%
%TO.N,Net-(J2-Pin_2)*%
X190500000Y-106426000D03*
%TO.P,J2,3,Pin_3*%
%TO.N,+3.3V*%
X190500000Y-103886000D03*
%TO.P,J2,4,Pin_4*%
%TO.N,OUT_A_RIGHT*%
X190500000Y-101346000D03*
%TO.P,J2,5,Pin_5*%
%TO.N,OUT_B_RIGHT*%
X190500000Y-98806000D03*
%TO.P,J2,6,Pin_6*%
%TO.N,GND*%
X190500000Y-96266000D03*
%TD*%
D12*
%TO.P,A1,1,~{RESET}*%
%TO.N,unconnected-(A1-~{RESET}-Pad1)*%
X150622000Y-129286000D03*
D13*
%TO.P,A1,2,3V3*%
%TO.N,+3.3V*%
X150622000Y-126746000D03*
%TO.P,A1,3,NC*%
%TO.N,unconnected-(A1-NC-Pad3)*%
X150622000Y-124206000D03*
%TO.P,A1,4,GND*%
%TO.N,GND*%
X150622000Y-121666000D03*
%TO.P,A1,5,DAC2/A0*%
%TO.N,unconnected-(A1-DAC2{slash}A0-Pad5)*%
X150622000Y-119126000D03*
%TO.P,A1,6,DAC1/A1*%
%TO.N,unconnected-(A1-DAC1{slash}A1-Pad6)*%
X150622000Y-116586000D03*
%TO.P,A1,7,I34/A2*%
%TO.N,OUT_A_RIGHT*%
X150622000Y-114046000D03*
%TO.P,A1,8,I39/A3*%
%TO.N,OUT_B_RIGHT*%
X150622000Y-111506000D03*
%TO.P,A1,9,IO36/A4*%
%TO.N,OUT_A_LEFT*%
X150622000Y-108966000D03*
%TO.P,A1,10,IO4/A5*%
%TO.N,OUT_B_LEFT*%
X150622000Y-106426000D03*
%TO.P,A1,11,SCK/IO5*%
%TO.N,unconnected-(A1-SCK{slash}IO5-Pad11)*%
X150622000Y-103886000D03*
%TO.P,A1,12,MOSI/IO18*%
%TO.N,unconnected-(A1-MOSI{slash}IO18-Pad12)*%
X150622000Y-101346000D03*
%TO.P,A1,13,MISO/IO19*%
%TO.N,unconnected-(A1-MISO{slash}IO19-Pad13)*%
X150622000Y-98806000D03*
%TO.P,A1,14,RX/IO16*%
%TO.N,unconnected-(A1-RX{slash}IO16-Pad14)*%
X150622000Y-96266000D03*
%TO.P,A1,15,TX/IO17*%
%TO.N,unconnected-(A1-TX{slash}IO17-Pad15)*%
X150622000Y-93726000D03*
%TO.P,A1,16,IO21*%
%TO.N,unconnected-(A1-IO21-Pad16)*%
X150622000Y-91186000D03*
%TO.P,A1,17,SDA/IO23*%
%TO.N,SDA*%
X130302000Y-91186000D03*
%TO.P,A1,18,SCL/IO22*%
%TO.N,SCL*%
X130302000Y-93726000D03*
%TO.P,A1,19,A6/IO14*%
%TO.N,IN1_RIGHT*%
X130302000Y-96266000D03*
%TO.P,A1,20,A7/IO32*%
%TO.N,IN2_RIGHT*%
X130302000Y-98806000D03*
%TO.P,A1,21,A8/IO15*%
%TO.N,IN1_LEFT*%
X130302000Y-101346000D03*
%TO.P,A1,22,A9/IO33*%
%TO.N,IN2_LEFT*%
X130302000Y-103886000D03*
%TO.P,A1,23,A10/IO27*%
%TO.N,INT*%
X130302000Y-106426000D03*
%TO.P,A1,24,A11/IO12*%
%TO.N,unconnected-(A1-A11{slash}IO12-Pad24)*%
X130302000Y-108966000D03*
%TO.P,A1,25,A12/IO13*%
%TO.N,unconnected-(A1-A12{slash}IO13-Pad25)*%
X130302000Y-111506000D03*
%TO.P,A1,26,USB*%
%TO.N,unconnected-(A1-USB-Pad26)*%
X130302000Y-114046000D03*
%TO.P,A1,27,EN*%
%TO.N,unconnected-(A1-EN-Pad27)*%
X130302000Y-116586000D03*
%TO.P,A1,28,VBAT*%
%TO.N,unconnected-(A1-VBAT-Pad28)*%
X130302000Y-119126000D03*
%TD*%
D18*
%TO.N,GND*%
X167000000Y-121900000D03*
X187250000Y-126250000D03*
X184550000Y-126300000D03*
X181550000Y-126300000D03*
X178350000Y-126250000D03*
X170900000Y-117000000D03*
X171350000Y-118950000D03*
X174300000Y-124650000D03*
X175400000Y-122450000D03*
X175350000Y-120000000D03*
X173250000Y-122600000D03*
X173350000Y-120000000D03*
X173250000Y-116850000D03*
X172200000Y-115050000D03*
X170850000Y-113700000D03*
X169750000Y-112550000D03*
X152700000Y-113550000D03*
X160200000Y-110550000D03*
X161600000Y-109900000D03*
X167100000Y-110000000D03*
X168650000Y-111500000D03*
X138100000Y-125550000D03*
X142600000Y-125300000D03*
X140800000Y-128200000D03*
X127950000Y-100000000D03*
X123100000Y-102600000D03*
X126700000Y-99500000D03*
X126750000Y-105250000D03*
X124250000Y-103650000D03*
X127250000Y-102600000D03*
X168984000Y-140190000D03*
X169350000Y-122000000D03*
X141436800Y-120200000D03*
X194800000Y-90400000D03*
X144650000Y-98700000D03*
X194800000Y-86700000D03*
X149000000Y-110200000D03*
X158500000Y-102000000D03*
X136984000Y-143190000D03*
X140000000Y-81000000D03*
X140800000Y-116400000D03*
X168000000Y-114500000D03*
X161290000Y-69500000D03*
X170500000Y-84500000D03*
X140547200Y-140390000D03*
X152200000Y-110000000D03*
X165862000Y-72898000D03*
X156100000Y-70250000D03*
X194800000Y-95800000D03*
X166000000Y-97500000D03*
X151236800Y-143190000D03*
X151236800Y-140390000D03*
X163936800Y-132000000D03*
X136436800Y-81000000D03*
X159500000Y-125000000D03*
X194800000Y-84400000D03*
X175184000Y-102990000D03*
X167386000Y-72898000D03*
X178500000Y-91000000D03*
X166000000Y-125000000D03*
X155000000Y-75500000D03*
X182000000Y-98000000D03*
X175000000Y-80010000D03*
X133436800Y-113000000D03*
X147950000Y-98700000D03*
X175184000Y-101490000D03*
X154500000Y-88000000D03*
X144110400Y-140390000D03*
X194800000Y-100000000D03*
X194800000Y-92400000D03*
X178816000Y-77000000D03*
X146700000Y-98700000D03*
X152500000Y-75500000D03*
X159512000Y-69500000D03*
X170500000Y-72898000D03*
X154800000Y-143200000D03*
X159012000Y-92500000D03*
X137936800Y-86700000D03*
X183000000Y-130500000D03*
X173500000Y-84500000D03*
X167500000Y-129200000D03*
X169250000Y-116400000D03*
X137000000Y-117200000D03*
X159000000Y-129200000D03*
X190500000Y-68500000D03*
X160790000Y-94000000D03*
X137000000Y-120000000D03*
X198200000Y-104600000D03*
X150600000Y-132000000D03*
X141500000Y-86700000D03*
X155436800Y-129200000D03*
X140500000Y-67000000D03*
X176000000Y-93500000D03*
X172000000Y-97500000D03*
X160800000Y-121000000D03*
X172000000Y-72898000D03*
X175000000Y-78500000D03*
X179500000Y-97500000D03*
X186800000Y-140200000D03*
X136936800Y-67000000D03*
X144110400Y-143190000D03*
X186800000Y-143000000D03*
X193000000Y-68500000D03*
X163000000Y-69500000D03*
X172500000Y-68500000D03*
X177184000Y-101490000D03*
X147673600Y-143190000D03*
X179673600Y-142990000D03*
X194600000Y-107200000D03*
X145000000Y-123000000D03*
X159512000Y-77216000D03*
X133500000Y-80200000D03*
X137800000Y-109600000D03*
X161000000Y-104000000D03*
X161290000Y-79000000D03*
X169000000Y-72898000D03*
X136500000Y-132000000D03*
X170000000Y-91000000D03*
X192800000Y-105200000D03*
X152500000Y-78200000D03*
X132936800Y-132000000D03*
X177500000Y-68500000D03*
X154500000Y-85200000D03*
X158500000Y-117000000D03*
X154800000Y-140400000D03*
X176500000Y-84500000D03*
X154500000Y-90700000D03*
X169000000Y-97500000D03*
X154500000Y-93500000D03*
X175500000Y-91000000D03*
X162500000Y-92500000D03*
X186350000Y-130500000D03*
X155000000Y-108600000D03*
X176110400Y-140190000D03*
X161000000Y-102000000D03*
X129936800Y-83000000D03*
X153600000Y-106400000D03*
X194850000Y-78100000D03*
X183500000Y-94000000D03*
X137936800Y-89500000D03*
X183236800Y-142990000D03*
X192400000Y-102600000D03*
X143936800Y-129200000D03*
X169200000Y-125000000D03*
X132936800Y-129200000D03*
X194600000Y-105200000D03*
X148936800Y-81000000D03*
X143800000Y-101450000D03*
X146550000Y-96150000D03*
X179673600Y-140190000D03*
X148936800Y-78200000D03*
X147673600Y-140390000D03*
X137000000Y-113000000D03*
X169300000Y-123400000D03*
X147500000Y-129200000D03*
X163936800Y-129200000D03*
X133500000Y-83000000D03*
X160790000Y-92500000D03*
X179000000Y-101490000D03*
X155436800Y-132000000D03*
X141500000Y-89500000D03*
X159000000Y-132000000D03*
X183236800Y-140190000D03*
X177038000Y-80010000D03*
X136436800Y-78200000D03*
X129936800Y-80200000D03*
X166000000Y-114500000D03*
X168984000Y-142990000D03*
X172547200Y-140190000D03*
X159012000Y-94000000D03*
X140600000Y-112800000D03*
X140547200Y-143190000D03*
X154400000Y-111800000D03*
X158500000Y-119000000D03*
X161290000Y-68000000D03*
X143936800Y-132000000D03*
X162500000Y-94000000D03*
X133436800Y-117200000D03*
X140500000Y-64200000D03*
X172500000Y-91000000D03*
X179000000Y-102990000D03*
X136984000Y-140390000D03*
X142850000Y-98700000D03*
X164850000Y-121600000D03*
X175000000Y-77000000D03*
X175184000Y-104500000D03*
X153400000Y-125200000D03*
X167150000Y-112550000D03*
X176110400Y-142990000D03*
X167500000Y-97500000D03*
X163000000Y-68000000D03*
X133436800Y-110200000D03*
X161290000Y-77216000D03*
X175000000Y-68500000D03*
X177000000Y-78500000D03*
X162600000Y-125000000D03*
X136936800Y-64200000D03*
X198200000Y-108800000D03*
X177000000Y-77000000D03*
X159512000Y-79000000D03*
X167500000Y-132000000D03*
X133436800Y-120000000D03*
X194900000Y-74150000D03*
X172547200Y-142990000D03*
X140000000Y-78200000D03*
X170500000Y-97500000D03*
X171400000Y-126400000D03*
X159512000Y-68000000D03*
X141000000Y-100150000D03*
X179000000Y-104500000D03*
X194900000Y-76000000D03*
X194900000Y-72350000D03*
X194800000Y-81000000D03*
X177222000Y-104500000D03*
X166800000Y-116400000D03*
X158500000Y-104000000D03*
X147400000Y-125400000D03*
X152500000Y-81000000D03*
X153400000Y-129200000D03*
X141436800Y-123000000D03*
X147500000Y-132000000D03*
X136500000Y-129200000D03*
X165400000Y-81800000D03*
X178816000Y-80010000D03*
X178816000Y-78500000D03*
X145000000Y-120200000D03*
X177184000Y-102990000D03*
%TO.N,OUT_A_RIGHT*%
X153400000Y-108800000D03*
%TO.N,IN1_RIGHT*%
X139000000Y-96400000D03*
X154000000Y-100400000D03*
%TO.N,IN2_RIGHT*%
X142000000Y-97600000D03*
X154200000Y-97400000D03*
%TO.N,IN1_LEFT*%
X150600000Y-74000000D03*
%TO.N,IN2_LEFT*%
X152800000Y-72200000D03*
%TO.N,+3.3V*%
X163800000Y-86600000D03*
%TO.N,SDA*%
X158000000Y-110000000D03*
%TO.N,SCL*%
X161800000Y-111400000D03*
%TO.N,INT*%
X166000000Y-120800000D03*
%TD*%
D19*
%TO.N,INT*%
X178950000Y-121200000D02*
X185230000Y-114920000D01*
X170600000Y-121200000D02*
X178950000Y-121200000D01*
X185230000Y-114920000D02*
X190500000Y-114920000D01*
%TO.N,OUT_A_RIGHT*%
X153400000Y-111268000D02*
X150622000Y-114046000D01*
X153400000Y-108800000D02*
X153400000Y-111268000D01*
%TO.N,IN1_RIGHT*%
X142821000Y-100221000D02*
X139000000Y-96400000D01*
X153821000Y-100221000D02*
X142821000Y-100221000D01*
X154000000Y-100400000D02*
X153821000Y-100221000D01*
%TO.N,IN2_RIGHT*%
X142200000Y-97400000D02*
X142000000Y-97600000D01*
X154200000Y-97400000D02*
X154000000Y-97200000D01*
X154200000Y-97400000D02*
X142200000Y-97400000D01*
%TO.N,IN1_LEFT*%
X123600000Y-83400000D02*
X132500000Y-74500000D01*
X130302000Y-101346000D02*
X126546000Y-101346000D01*
X133000000Y-74000000D02*
X150600000Y-74000000D01*
X132500000Y-74500000D02*
X133000000Y-74000000D01*
X126546000Y-101346000D02*
X123600000Y-98400000D01*
X123600000Y-98400000D02*
X123600000Y-83400000D01*
%TO.N,IN2_LEFT*%
X130302000Y-103886000D02*
X126486000Y-103886000D01*
X150800000Y-70200000D02*
X152800000Y-72200000D01*
X122000000Y-99400000D02*
X122000000Y-82200000D01*
X134000000Y-70200000D02*
X150800000Y-70200000D01*
X122000000Y-82200000D02*
X134000000Y-70200000D01*
X126486000Y-103886000D02*
X122000000Y-99400000D01*
D20*
%TO.N,12V_BAT*%
X190500000Y-91694000D02*
X181706000Y-91694000D01*
X169200000Y-101600000D02*
X169200000Y-102882379D01*
X170200000Y-100600000D02*
X169200000Y-101600000D01*
X169200000Y-102882379D02*
X169317621Y-103000000D01*
X181706000Y-91694000D02*
X172800000Y-100600000D01*
X172800000Y-100600000D02*
X170200000Y-100600000D01*
D21*
%TO.N,+3.3V*%
X190500000Y-132700000D02*
X196900000Y-132700000D01*
X199600000Y-130000000D02*
X199600000Y-108200000D01*
X163800000Y-86600000D02*
X164000000Y-86600000D01*
X190500000Y-79502000D02*
X185298000Y-79502000D01*
X195114000Y-103886000D02*
X190500000Y-103886000D01*
X195902000Y-79502000D02*
X190500000Y-79502000D01*
X178200000Y-86600000D02*
X163800000Y-86600000D01*
X199600000Y-108200000D02*
X199600000Y-83200000D01*
X199600000Y-83200000D02*
X195902000Y-79502000D01*
X199600000Y-108200000D02*
X195200000Y-103800000D01*
X195200000Y-103800000D02*
X195114000Y-103886000D01*
X185298000Y-79502000D02*
X178200000Y-86600000D01*
X196900000Y-132700000D02*
X199600000Y-130000000D01*
D19*
%TO.N,SDA*%
X148571000Y-115171000D02*
X136000000Y-102600000D01*
X158000000Y-110000000D02*
X152829000Y-115171000D01*
X136000000Y-93000000D02*
X134186000Y-91186000D01*
X136000000Y-102600000D02*
X136000000Y-93000000D01*
X134186000Y-91186000D02*
X130302000Y-91186000D01*
X152829000Y-115171000D02*
X148571000Y-115171000D01*
X158091000Y-110091000D02*
X158000000Y-110000000D01*
%TO.N,SCL*%
X134200000Y-95800000D02*
X132126000Y-93726000D01*
X132126000Y-93726000D02*
X130302000Y-93726000D01*
X155400000Y-117800000D02*
X148600000Y-117800000D01*
X161800000Y-111400000D02*
X155400000Y-117800000D01*
X148600000Y-117800000D02*
X134200000Y-103400000D01*
X134200000Y-103400000D02*
X134200000Y-95800000D01*
%TO.N,INT*%
X132426000Y-106426000D02*
X130302000Y-106426000D01*
X166000000Y-120800000D02*
X170200000Y-120800000D01*
X142800000Y-128000000D02*
X139000000Y-124200000D01*
X170200000Y-120800000D02*
X170600000Y-121200000D01*
X170600000Y-125400000D02*
X168000000Y-128000000D01*
X139000000Y-113000000D02*
X132426000Y-106426000D01*
X139000000Y-124200000D02*
X139000000Y-113000000D01*
X168000000Y-128000000D02*
X142800000Y-128000000D01*
X170600000Y-121200000D02*
X170600000Y-125400000D01*
%TD*%
%TA.AperFunction,Conductor*%
%TO.N,GND*%
G36*
X163830000Y-78486000D02*
G01*
X158496000Y-78486000D01*
X158496000Y-68072000D01*
X163830000Y-68072000D01*
X163830000Y-78486000D01*
G37*
%TD.AperFunction*%
%TD*%
%TA.AperFunction,Conductor*%
%TO.N,GND*%
G36*
X173228000Y-80772000D02*
G01*
X170688000Y-80772000D01*
X170688000Y-76454000D01*
X173228000Y-76454000D01*
X173228000Y-80772000D01*
G37*
%TD.AperFunction*%
%TD*%
%TA.AperFunction,Conductor*%
%TO.N,GND*%
G36*
X188999500Y-133572339D02*
G01*
X188999501Y-133572345D01*
X189005908Y-133631952D01*
X189056202Y-133766797D01*
X189056206Y-133766804D01*
X189142452Y-133882013D01*
X189142455Y-133882016D01*
X189257664Y-133968262D01*
X189257671Y-133968266D01*
X189392517Y-134018560D01*
X189392516Y-134018560D01*
X189399444Y-134019304D01*
X189452127Y-134024969D01*
X191247872Y-134024968D01*
X191307483Y-134018560D01*
X191442331Y-133968265D01*
X191557546Y-133882015D01*
X191643796Y-133766800D01*
X191694091Y-133631952D01*
X191696318Y-133611243D01*
X191723057Y-133546692D01*
X191780450Y-133506845D01*
X191819607Y-133500500D01*
X192532000Y-133500500D01*
X192532000Y-136144000D01*
X188722000Y-136144000D01*
X188722000Y-132842000D01*
X188999500Y-132842000D01*
X188999500Y-133572339D01*
G37*
%TD.AperFunction*%
%TD*%
%TA.AperFunction,Conductor*%
%TO.N,GND*%
G36*
X192278000Y-88907960D02*
G01*
X192254631Y-88974745D01*
X192254630Y-88974750D01*
X192234435Y-89153996D01*
X192234435Y-89154003D01*
X192254630Y-89333249D01*
X192254631Y-89333254D01*
X192278000Y-89400038D01*
X192278000Y-90424000D01*
X192070774Y-90424000D01*
X192043797Y-90351671D01*
X192043793Y-90351664D01*
X191957547Y-90236455D01*
X191957544Y-90236452D01*
X191842335Y-90150206D01*
X191842328Y-90150202D01*
X191707482Y-90099908D01*
X191707483Y-90099908D01*
X191647883Y-90093501D01*
X191647881Y-90093500D01*
X191647873Y-90093500D01*
X191647864Y-90093500D01*
X189352129Y-90093500D01*
X189352123Y-90093501D01*
X189292516Y-90099908D01*
X189157671Y-90150202D01*
X189157668Y-90150204D01*
X189132872Y-90168767D01*
X189067408Y-90193184D01*
X189058561Y-90193500D01*
X188468000Y-90193500D01*
X188468000Y-87122000D01*
X192278000Y-87122000D01*
X192278000Y-88907960D01*
G37*
%TD.AperFunction*%
%TD*%
%TA.AperFunction,Conductor*%
%TO.N,GND*%
G36*
X192278000Y-73406000D02*
G01*
X191737051Y-73406000D01*
X191635224Y-73286776D01*
X191508571Y-73178604D01*
X191443656Y-73123161D01*
X191443653Y-73123160D01*
X191228859Y-72991533D01*
X190996110Y-72895126D01*
X190751151Y-72836317D01*
X190500000Y-72816551D01*
X190248848Y-72836317D01*
X190003889Y-72895126D01*
X189771140Y-72991533D01*
X189556346Y-73123160D01*
X189556343Y-73123161D01*
X189364776Y-73286776D01*
X189262948Y-73406000D01*
X188468000Y-73406000D01*
X188468000Y-70104000D01*
X192278000Y-70104000D01*
X192278000Y-73406000D01*
G37*
%TD.AperFunction*%
%TD*%
%TA.AperFunction,Conductor*%
%TO.N,GND*%
G36*
X163576000Y-103124000D02*
G01*
X158242000Y-103124000D01*
X158242000Y-92710000D01*
X163576000Y-92710000D01*
X163576000Y-103124000D01*
G37*
%TD.AperFunction*%
%TD*%
%TA.AperFunction,Conductor*%
%TO.N,GND*%
G36*
X173228000Y-105410000D02*
G01*
X170688000Y-105410000D01*
X170688000Y-103613312D01*
X170720265Y-103547314D01*
X170747237Y-103456714D01*
X170791219Y-103308981D01*
X170821978Y-103062221D01*
X170811701Y-102813763D01*
X170760670Y-102570386D01*
X170708982Y-102437918D01*
X170700500Y-102392844D01*
X170700500Y-102272889D01*
X170720185Y-102205850D01*
X170736819Y-102185208D01*
X170785208Y-102136819D01*
X170846531Y-102103334D01*
X170872889Y-102100500D01*
X172702981Y-102100500D01*
X172710652Y-102100975D01*
X172737779Y-102104357D01*
X172831035Y-102100500D01*
X172862067Y-102100500D01*
X172892990Y-102097937D01*
X172986237Y-102094081D01*
X173012982Y-102088472D01*
X173020582Y-102087364D01*
X173047821Y-102085108D01*
X173047824Y-102085107D01*
X173047826Y-102085107D01*
X173047829Y-102085106D01*
X173138288Y-102062198D01*
X173138287Y-102062198D01*
X173228000Y-102043387D01*
X173228000Y-105410000D01*
G37*
%TD.AperFunction*%
%TD*%
%TA.AperFunction,Conductor*%
%TO.N,GND*%
G36*
X149423408Y-98045185D02*
G01*
X149469163Y-98097989D01*
X149479107Y-98167147D01*
X149468751Y-98201905D01*
X149395262Y-98359502D01*
X149395258Y-98359511D01*
X149336366Y-98579302D01*
X149336364Y-98579313D01*
X149316532Y-98805998D01*
X149316532Y-98806001D01*
X149336364Y-99032686D01*
X149336366Y-99032697D01*
X149395258Y-99252488D01*
X149395260Y-99252492D01*
X149395261Y-99252496D01*
X149469563Y-99411836D01*
X149472948Y-99419095D01*
X149483440Y-99488173D01*
X149454920Y-99551957D01*
X149396444Y-99590196D01*
X149360566Y-99595500D01*
X143131452Y-99595500D01*
X143064413Y-99575815D01*
X143043771Y-99559181D01*
X142165783Y-98681193D01*
X142132298Y-98619870D01*
X142137282Y-98550178D01*
X142179154Y-98494245D01*
X142227679Y-98472223D01*
X142279803Y-98461144D01*
X142279807Y-98461142D01*
X142279808Y-98461142D01*
X142338058Y-98435206D01*
X142452730Y-98384151D01*
X142605871Y-98272888D01*
X142732533Y-98132216D01*
X142752294Y-98097989D01*
X142758350Y-98087500D01*
X142808917Y-98039285D01*
X142865737Y-98025500D01*
X149356369Y-98025500D01*
X149423408Y-98045185D01*
G37*
%TD.AperFunction*%
%TA.AperFunction,Conductor*%
G36*
X204666484Y-61041185D02*
G01*
X204712239Y-61093989D01*
X204723443Y-61145867D01*
X204510019Y-132429605D01*
X204470370Y-145672371D01*
X204450485Y-145739351D01*
X204397545Y-145784948D01*
X204346371Y-145796000D01*
X119660370Y-145796000D01*
X119593331Y-145776315D01*
X119547576Y-145723511D01*
X119536371Y-145671630D01*
X119539760Y-144536500D01*
X119545082Y-142753763D01*
X121064787Y-142753763D01*
X121094413Y-143023013D01*
X121094415Y-143023024D01*
X121162926Y-143285082D01*
X121162928Y-143285088D01*
X121268870Y-143534390D01*
X121340998Y-143652575D01*
X121409979Y-143765605D01*
X121409986Y-143765615D01*
X121583253Y-143973819D01*
X121583259Y-143973824D01*
X121784998Y-144154582D01*
X122010910Y-144304044D01*
X122256176Y-144419020D01*
X122256183Y-144419022D01*
X122256185Y-144419023D01*
X122515557Y-144497057D01*
X122515564Y-144497058D01*
X122515569Y-144497060D01*
X122783561Y-144536500D01*
X122783566Y-144536500D01*
X122986636Y-144536500D01*
X123038133Y-144532730D01*
X123189156Y-144521677D01*
X123301758Y-144496593D01*
X123453546Y-144462782D01*
X123453548Y-144462781D01*
X123453553Y-144462780D01*
X123706558Y-144366014D01*
X123942777Y-144233441D01*
X124157177Y-144067888D01*
X124345186Y-143872881D01*
X124502799Y-143652579D01*
X124576787Y-143508669D01*
X124626649Y-143411690D01*
X124626651Y-143411684D01*
X124626656Y-143411675D01*
X124714118Y-143155305D01*
X124763319Y-142888933D01*
X124768259Y-142753763D01*
X199394787Y-142753763D01*
X199424413Y-143023013D01*
X199424415Y-143023024D01*
X199492926Y-143285082D01*
X199492928Y-143285088D01*
X199598870Y-143534390D01*
X199670998Y-143652575D01*
X199739979Y-143765605D01*
X199739986Y-143765615D01*
X199913253Y-143973819D01*
X199913259Y-143973824D01*
X200114998Y-144154582D01*
X200340910Y-144304044D01*
X200586176Y-144419020D01*
X200586183Y-144419022D01*
X200586185Y-144419023D01*
X200845557Y-144497057D01*
X200845564Y-144497058D01*
X200845569Y-144497060D01*
X201113561Y-144536500D01*
X201113566Y-144536500D01*
X201316636Y-144536500D01*
X201368133Y-144532730D01*
X201519156Y-144521677D01*
X201631758Y-144496593D01*
X201783546Y-144462782D01*
X201783548Y-144462781D01*
X201783553Y-144462780D01*
X202036558Y-144366014D01*
X202272777Y-144233441D01*
X202487177Y-144067888D01*
X202675186Y-143872881D01*
X202832799Y-143652579D01*
X202906787Y-143508669D01*
X202956649Y-143411690D01*
X202956651Y-143411684D01*
X202956656Y-143411675D01*
X203044118Y-143155305D01*
X203093319Y-142888933D01*
X203103212Y-142618235D01*
X203073586Y-142348982D01*
X203005072Y-142086912D01*
X202899130Y-141837610D01*
X202758018Y-141606390D01*
X202668747Y-141499119D01*
X202584746Y-141398180D01*
X202584740Y-141398175D01*
X202383002Y-141217418D01*
X202157092Y-141067957D01*
X202157090Y-141067956D01*
X201911824Y-140952980D01*
X201911819Y-140952978D01*
X201911814Y-140952976D01*
X201652442Y-140874942D01*
X201652428Y-140874939D01*
X201536791Y-140857921D01*
X201384439Y-140835500D01*
X201181369Y-140835500D01*
X201181364Y-140835500D01*
X200978844Y-140850323D01*
X200978831Y-140850325D01*
X200714453Y-140909217D01*
X200714446Y-140909220D01*
X200461439Y-141005987D01*
X200225226Y-141138557D01*
X200010822Y-141304112D01*
X199822822Y-141499109D01*
X199822816Y-141499116D01*
X199665202Y-141719419D01*
X199665199Y-141719424D01*
X199541350Y-141960309D01*
X199541343Y-141960327D01*
X199453884Y-142216685D01*
X199453881Y-142216699D01*
X199404681Y-142483068D01*
X199404680Y-142483075D01*
X199394787Y-142753763D01*
X124768259Y-142753763D01*
X124773212Y-142618235D01*
X124743586Y-142348982D01*
X124675072Y-142086912D01*
X124569130Y-141837610D01*
X124428018Y-141606390D01*
X124338747Y-141499119D01*
X124254746Y-141398180D01*
X124254740Y-141398175D01*
X124053002Y-141217418D01*
X123827092Y-141067957D01*
X123827090Y-141067956D01*
X123581824Y-140952980D01*
X123581819Y-140952978D01*
X123581814Y-140952976D01*
X123322442Y-140874942D01*
X123322428Y-140874939D01*
X123206791Y-140857921D01*
X123054439Y-140835500D01*
X122851369Y-140835500D01*
X122851364Y-140835500D01*
X122648844Y-140850323D01*
X122648831Y-140850325D01*
X122384453Y-140909217D01*
X122384446Y-140909220D01*
X122131439Y-141005987D01*
X121895226Y-141138557D01*
X121680822Y-141304112D01*
X121492822Y-141499109D01*
X121492816Y-141499116D01*
X121335202Y-141719419D01*
X121335199Y-141719424D01*
X121211350Y-141960309D01*
X121211343Y-141960327D01*
X121123884Y-142216685D01*
X121123881Y-142216699D01*
X121074681Y-142483068D01*
X121074680Y-142483075D01*
X121064787Y-142753763D01*
X119545082Y-142753763D01*
X119578920Y-131417763D01*
X176745787Y-131417763D01*
X176775413Y-131687013D01*
X176775415Y-131687024D01*
X176830223Y-131896666D01*
X176843928Y-131949088D01*
X176949870Y-132198390D01*
X177021998Y-132316575D01*
X177090979Y-132429605D01*
X177090986Y-132429615D01*
X177264253Y-132637819D01*
X177264259Y-132637824D01*
X177465998Y-132818582D01*
X177691910Y-132968044D01*
X177937176Y-133083020D01*
X177937183Y-133083022D01*
X177937185Y-133083023D01*
X178196557Y-133161057D01*
X178196564Y-133161058D01*
X178196569Y-133161060D01*
X178464561Y-133200500D01*
X178464566Y-133200500D01*
X178667636Y-133200500D01*
X178719133Y-133196730D01*
X178870156Y-133185677D01*
X178982758Y-133160593D01*
X179134546Y-133126782D01*
X179134548Y-133126781D01*
X179134553Y-133126780D01*
X179387558Y-133030014D01*
X179623777Y-132897441D01*
X179838177Y-132731888D01*
X180026186Y-132536881D01*
X180183799Y-132316579D01*
X180257787Y-132172669D01*
X180307649Y-132075690D01*
X180307651Y-132075684D01*
X180307656Y-132075675D01*
X180395118Y-131819305D01*
X180444319Y-131552933D01*
X180454212Y-131282235D01*
X180424586Y-131012982D01*
X180356072Y-130750912D01*
X180250130Y-130501610D01*
X180109018Y-130270390D01*
X180065968Y-130218660D01*
X179935746Y-130062180D01*
X179935740Y-130062175D01*
X179734002Y-129881418D01*
X179508092Y-129731957D01*
X179450035Y-129704741D01*
X179262824Y-129616980D01*
X179262819Y-129616978D01*
X179262814Y-129616976D01*
X179003442Y-129538942D01*
X179003428Y-129538939D01*
X178887791Y-129521921D01*
X178735439Y-129499500D01*
X178532369Y-129499500D01*
X178532364Y-129499500D01*
X178329844Y-129514323D01*
X178329831Y-129514325D01*
X178065453Y-129573217D01*
X178065446Y-129573220D01*
X177812439Y-129669987D01*
X177576226Y-129802557D01*
X177361822Y-129968112D01*
X177173822Y-130163109D01*
X177173816Y-130163116D01*
X177016202Y-130383419D01*
X177016199Y-130383424D01*
X176892350Y-130624309D01*
X176892343Y-130624327D01*
X176804884Y-130880685D01*
X176804881Y-130880699D01*
X176755681Y-131147068D01*
X176755680Y-131147075D01*
X176745787Y-131417763D01*
X119578920Y-131417763D01*
X119619277Y-117898124D01*
X119725898Y-82180195D01*
X121369840Y-82180195D01*
X121374225Y-82226583D01*
X121374500Y-82232421D01*
X121374500Y-99317255D01*
X121372775Y-99332872D01*
X121373061Y-99332899D01*
X121372326Y-99340665D01*
X121374500Y-99409814D01*
X121374500Y-99439343D01*
X121374501Y-99439360D01*
X121375368Y-99446231D01*
X121375826Y-99452050D01*
X121377290Y-99498624D01*
X121377291Y-99498627D01*
X121382880Y-99517867D01*
X121386824Y-99536911D01*
X121388725Y-99551957D01*
X121389336Y-99556791D01*
X121406490Y-99600119D01*
X121408382Y-99605647D01*
X121421381Y-99650388D01*
X121431580Y-99667634D01*
X121440138Y-99685103D01*
X121447514Y-99703732D01*
X121474898Y-99741423D01*
X121478106Y-99746307D01*
X121501827Y-99786416D01*
X121501833Y-99786424D01*
X121515990Y-99800580D01*
X121528628Y-99815376D01*
X121540405Y-99831586D01*
X121540406Y-99831587D01*
X121576309Y-99861288D01*
X121580620Y-99865210D01*
X124892636Y-103177227D01*
X125985197Y-104269788D01*
X125995022Y-104282051D01*
X125995243Y-104281869D01*
X126000214Y-104287878D01*
X126026217Y-104312295D01*
X126050635Y-104335226D01*
X126071529Y-104356120D01*
X126077011Y-104360373D01*
X126081443Y-104364157D01*
X126115418Y-104396062D01*
X126132976Y-104405714D01*
X126149233Y-104416393D01*
X126165064Y-104428673D01*
X126184737Y-104437186D01*
X126207833Y-104447182D01*
X126213077Y-104449750D01*
X126253908Y-104472197D01*
X126266523Y-104475435D01*
X126273305Y-104477177D01*
X126291719Y-104483481D01*
X126310104Y-104491438D01*
X126356157Y-104498732D01*
X126361826Y-104499906D01*
X126406981Y-104511500D01*
X126427016Y-104511500D01*
X126446413Y-104513026D01*
X126466196Y-104516160D01*
X126512583Y-104511775D01*
X126518422Y-104511500D01*
X129087812Y-104511500D01*
X129154851Y-104531185D01*
X129189387Y-104564377D01*
X129301954Y-104725141D01*
X129462858Y-104886045D01*
X129462861Y-104886047D01*
X129649266Y-105016568D01*
X129707275Y-105043618D01*
X129759714Y-105089791D01*
X129778866Y-105156984D01*
X129758650Y-105223865D01*
X129707275Y-105268382D01*
X129649267Y-105295431D01*
X129649265Y-105295432D01*
X129462858Y-105425954D01*
X129301954Y-105586858D01*
X129171432Y-105773265D01*
X129171431Y-105773267D01*
X129075261Y-105979502D01*
X129075258Y-105979511D01*
X129016366Y-106199302D01*
X129016364Y-106199313D01*
X128996532Y-106425998D01*
X128996532Y-106426001D01*
X129016364Y-106652686D01*
X129016366Y-106652697D01*
X129075258Y-106872488D01*
X129075261Y-106872497D01*
X129171431Y-107078732D01*
X129171432Y-107078734D01*
X129301954Y-107265141D01*
X129462858Y-107426045D01*
X129462861Y-107426047D01*
X129649266Y-107556568D01*
X129707275Y-107583618D01*
X129759714Y-107629791D01*
X129778866Y-107696984D01*
X129758650Y-107763865D01*
X129707275Y-107808382D01*
X129649267Y-107835431D01*
X129649265Y-107835432D01*
X129462858Y-107965954D01*
X129301954Y-108126858D01*
X129171432Y-108313265D01*
X129171431Y-108313267D01*
X129075261Y-108519502D01*
X129075258Y-108519511D01*
X129016366Y-108739302D01*
X129016364Y-108739313D01*
X128996532Y-108965998D01*
X128996532Y-108966001D01*
X129016364Y-109192686D01*
X129016366Y-109192697D01*
X129075258Y-109412488D01*
X129075261Y-109412497D01*
X129171431Y-109618732D01*
X129171432Y-109618734D01*
X129301954Y-109805141D01*
X129462858Y-109966045D01*
X129462861Y-109966047D01*
X129649266Y-110096568D01*
X129707275Y-110123618D01*
X129759714Y-110169791D01*
X129778866Y-110236984D01*
X129758650Y-110303865D01*
X129707275Y-110348382D01*
X129649267Y-110375431D01*
X129649265Y-110375432D01*
X129462858Y-110505954D01*
X129301954Y-110666858D01*
X129171432Y-110853265D01*
X129171431Y-110853267D01*
X129075261Y-111059502D01*
X129075258Y-111059511D01*
X129016366Y-111279302D01*
X129016364Y-111279313D01*
X128996532Y-111505998D01*
X128996532Y-111506001D01*
X129016364Y-111732686D01*
X129016366Y-111732697D01*
X129075258Y-111952488D01*
X129075261Y-111952497D01*
X129171431Y-112158732D01*
X129171432Y-112158734D01*
X129301954Y-112345141D01*
X129462858Y-112506045D01*
X129462861Y-112506047D01*
X129649266Y-112636568D01*
X129696456Y-112658573D01*
X129707275Y-112663618D01*
X129759714Y-112709791D01*
X129778866Y-112776984D01*
X129758650Y-112843865D01*
X129707275Y-112888382D01*
X129649267Y-112915431D01*
X129649265Y-112915432D01*
X129462858Y-113045954D01*
X129301954Y-113206858D01*
X129171432Y-113393265D01*
X129171431Y-113393267D01*
X129075261Y-113599502D01*
X129075258Y-113599511D01*
X129016366Y-113819302D01*
X129016364Y-113819313D01*
X128996532Y-114045998D01*
X128996532Y-114046001D01*
X129016364Y-114272686D01*
X129016366Y-114272697D01*
X129075258Y-114492488D01*
X129075261Y-114492497D01*
X129171431Y-114698732D01*
X129171432Y-114698734D01*
X129301954Y-114885141D01*
X129462858Y-115046045D01*
X129462861Y-115046047D01*
X129649266Y-115176568D01*
X129707275Y-115203618D01*
X129759714Y-115249791D01*
X129778866Y-115316984D01*
X129758650Y-115383865D01*
X129707275Y-115428382D01*
X129649267Y-115455431D01*
X129649265Y-115455432D01*
X129462858Y-115585954D01*
X129301954Y-115746858D01*
X129171432Y-115933265D01*
X129171431Y-115933267D01*
X129075261Y-116139502D01*
X129075258Y-116139511D01*
X129016366Y-116359302D01*
X129016364Y-116359313D01*
X128996532Y-116585998D01*
X128996532Y-116586001D01*
X129016364Y-116812686D01*
X129016366Y-116812697D01*
X129075258Y-117032488D01*
X129075261Y-117032497D01*
X129171431Y-117238732D01*
X129171432Y-117238734D01*
X129301954Y-117425141D01*
X129462858Y-117586045D01*
X129462861Y-117586047D01*
X129649266Y-117716568D01*
X129707275Y-117743618D01*
X129759714Y-117789791D01*
X129778866Y-117856984D01*
X129758650Y-117923865D01*
X129707275Y-117968382D01*
X129649267Y-117995431D01*
X129649265Y-117995432D01*
X129462858Y-118125954D01*
X129301954Y-118286858D01*
X129171432Y-118473265D01*
X129171431Y-118473267D01*
X129075261Y-118679502D01*
X129075258Y-118679511D01*
X129016366Y-118899302D01*
X129016364Y-118899313D01*
X128996532Y-119125998D01*
X128996532Y-119126001D01*
X129016364Y-119352686D01*
X129016366Y-119352697D01*
X129075258Y-119572488D01*
X129075261Y-119572497D01*
X129171431Y-119778732D01*
X129171432Y-119778734D01*
X129301954Y-119965141D01*
X129462858Y-120126045D01*
X129464382Y-120127112D01*
X129649266Y-120256568D01*
X129855504Y-120352739D01*
X130075308Y-120411635D01*
X130237230Y-120425801D01*
X130301998Y-120431468D01*
X130302000Y-120431468D01*
X130302002Y-120431468D01*
X130358672Y-120426509D01*
X130528692Y-120411635D01*
X130748496Y-120352739D01*
X130954734Y-120256568D01*
X131141139Y-120126047D01*
X131302047Y-119965139D01*
X131432568Y-119778734D01*
X131528739Y-119572496D01*
X131587635Y-119352692D01*
X131607468Y-119126000D01*
X131587635Y-118899308D01*
X131535428Y-118704469D01*
X131528741Y-118679511D01*
X131528738Y-118679502D01*
X131518465Y-118657471D01*
X131432568Y-118473266D01*
X131302047Y-118286861D01*
X131302045Y-118286858D01*
X131141141Y-118125954D01*
X130954735Y-117995433D01*
X130954736Y-117995433D01*
X130954734Y-117995432D01*
X130896722Y-117968380D01*
X130844284Y-117922208D01*
X130825133Y-117855014D01*
X130845349Y-117788133D01*
X130896721Y-117743619D01*
X130954734Y-117716568D01*
X131141139Y-117586047D01*
X131302047Y-117425139D01*
X131432568Y-117238734D01*
X131528739Y-117032496D01*
X131587635Y-116812692D01*
X131607468Y-116586000D01*
X131587635Y-116359308D01*
X131535428Y-116164469D01*
X131528741Y-116139511D01*
X131528738Y-116139502D01*
X131518465Y-116117471D01*
X131432568Y-115933266D01*
X131309283Y-115757195D01*
X131302045Y-115746858D01*
X131141141Y-115585954D01*
X130954734Y-115455432D01*
X130954728Y-115455429D01*
X130896725Y-115428382D01*
X130844285Y-115382210D01*
X130825133Y-115315017D01*
X130845348Y-115248135D01*
X130896725Y-115203618D01*
X130954734Y-115176568D01*
X131141139Y-115046047D01*
X131302047Y-114885139D01*
X131432568Y-114698734D01*
X131528739Y-114492496D01*
X131587635Y-114272692D01*
X131607468Y-114046000D01*
X131587635Y-113819308D01*
X131528739Y-113599504D01*
X131432568Y-113393266D01*
X131302047Y-113206861D01*
X131302045Y-113206858D01*
X131141141Y-113045954D01*
X130954734Y-112915432D01*
X130954728Y-112915429D01*
X130896725Y-112888382D01*
X130844285Y-112842210D01*
X130825133Y-112775017D01*
X130845348Y-112708135D01*
X130896725Y-112663618D01*
X130907544Y-112658573D01*
X130954734Y-112636568D01*
X131141139Y-112506047D01*
X131302047Y-112345139D01*
X131432568Y-112158734D01*
X131528739Y-111952496D01*
X131587635Y-111732692D01*
X131607468Y-111506000D01*
X131606951Y-111500095D01*
X131593559Y-111347018D01*
X131587635Y-111279308D01*
X131528739Y-111059504D01*
X131432568Y-110853266D01*
X131302047Y-110666861D01*
X131302045Y-110666858D01*
X131141141Y-110505954D01*
X130954734Y-110375432D01*
X130954728Y-110375429D01*
X130896725Y-110348382D01*
X130844285Y-110302210D01*
X130825133Y-110235017D01*
X130845348Y-110168135D01*
X130896725Y-110123618D01*
X130954734Y-110096568D01*
X131141139Y-109966047D01*
X131302047Y-109805139D01*
X131432568Y-109618734D01*
X131528739Y-109412496D01*
X131587635Y-109192692D01*
X131607468Y-108966000D01*
X131587635Y-108739308D01*
X131528739Y-108519504D01*
X131432568Y-108313266D01*
X131302047Y-108126861D01*
X131302045Y-108126858D01*
X131141141Y-107965954D01*
X130954734Y-107835432D01*
X130954728Y-107835429D01*
X130917626Y-107818128D01*
X130896724Y-107808381D01*
X130844285Y-107762210D01*
X130825133Y-107695017D01*
X130845348Y-107628135D01*
X130896725Y-107583618D01*
X130954734Y-107556568D01*
X131141139Y-107426047D01*
X131302047Y-107265139D01*
X131414612Y-107104377D01*
X131469189Y-107060752D01*
X131516188Y-107051500D01*
X132115548Y-107051500D01*
X132182587Y-107071185D01*
X132203229Y-107087819D01*
X138338181Y-113222771D01*
X138371666Y-113284094D01*
X138374500Y-113310452D01*
X138374500Y-124117255D01*
X138372775Y-124132872D01*
X138373061Y-124132899D01*
X138372326Y-124140665D01*
X138374500Y-124209814D01*
X138374500Y-124239343D01*
X138374501Y-124239360D01*
X138375368Y-124246231D01*
X138375826Y-124252050D01*
X138377290Y-124298624D01*
X138377291Y-124298627D01*
X138382880Y-124317867D01*
X138386824Y-124336911D01*
X138389336Y-124356792D01*
X138397194Y-124376640D01*
X138406490Y-124400119D01*
X138408382Y-124405647D01*
X138421381Y-124450388D01*
X138431580Y-124467634D01*
X138440138Y-124485103D01*
X138447514Y-124503732D01*
X138474898Y-124541423D01*
X138478106Y-124546307D01*
X138501827Y-124586416D01*
X138501833Y-124586424D01*
X138515990Y-124600580D01*
X138528628Y-124615376D01*
X138540405Y-124631586D01*
X138540406Y-124631587D01*
X138576309Y-124661288D01*
X138580620Y-124665210D01*
X140471380Y-126555970D01*
X142299194Y-128383784D01*
X142309019Y-128396048D01*
X142309240Y-128395866D01*
X142314210Y-128401873D01*
X142314213Y-128401876D01*
X142314214Y-128401877D01*
X142364651Y-128449241D01*
X142385530Y-128470120D01*
X142391004Y-128474366D01*
X142395442Y-128478156D01*
X142429418Y-128510062D01*
X142429422Y-128510064D01*
X142446973Y-128519713D01*
X142463231Y-128530392D01*
X142479064Y-128542674D01*
X142501015Y-128552172D01*
X142521837Y-128561183D01*
X142527081Y-128563752D01*
X142567908Y-128586197D01*
X142587312Y-128591179D01*
X142605710Y-128597478D01*
X142624105Y-128605438D01*
X142670129Y-128612726D01*
X142675832Y-128613907D01*
X142720981Y-128625500D01*
X142741016Y-128625500D01*
X142760413Y-128627026D01*
X142780196Y-128630160D01*
X142826583Y-128625775D01*
X142832422Y-128625500D01*
X149197500Y-128625500D01*
X149264539Y-128645185D01*
X149310294Y-128697989D01*
X149321500Y-128749500D01*
X149321500Y-130133870D01*
X149321501Y-130133876D01*
X149327908Y-130193483D01*
X149378202Y-130328328D01*
X149378206Y-130328335D01*
X149464452Y-130443544D01*
X149464455Y-130443547D01*
X149579664Y-130529793D01*
X149579671Y-130529797D01*
X149714517Y-130580091D01*
X149714516Y-130580091D01*
X149721444Y-130580835D01*
X149774127Y-130586500D01*
X151469872Y-130586499D01*
X151529483Y-130580091D01*
X151664331Y-130529796D01*
X151779546Y-130443546D01*
X151865796Y-130328331D01*
X151916091Y-130193483D01*
X151922500Y-130133873D01*
X151922499Y-128749499D01*
X151942184Y-128682461D01*
X151994987Y-128636706D01*
X152046499Y-128625500D01*
X167917257Y-128625500D01*
X167932877Y-128627224D01*
X167932904Y-128626939D01*
X167940660Y-128627671D01*
X167940667Y-128627673D01*
X168009814Y-128625500D01*
X168039350Y-128625500D01*
X168046228Y-128624630D01*
X168052041Y-128624172D01*
X168098627Y-128622709D01*
X168117869Y-128617117D01*
X168136912Y-128613174D01*
X168156792Y-128610664D01*
X168200122Y-128593507D01*
X168205646Y-128591617D01*
X168209396Y-128590527D01*
X168250390Y-128578618D01*
X168267629Y-128568422D01*
X168285103Y-128559862D01*
X168303727Y-128552488D01*
X168303727Y-128552487D01*
X168303732Y-128552486D01*
X168341449Y-128525082D01*
X168346305Y-128521892D01*
X168386420Y-128498170D01*
X168400589Y-128483999D01*
X168415379Y-128471368D01*
X168431587Y-128459594D01*
X168461299Y-128423676D01*
X168465212Y-128419376D01*
X170983788Y-125900801D01*
X170996042Y-125890986D01*
X170995859Y-125890764D01*
X171001866Y-125885792D01*
X171001877Y-125885786D01*
X171032775Y-125852882D01*
X171049227Y-125835364D01*
X171059671Y-125824918D01*
X171070120Y-125814471D01*
X171074379Y-125808978D01*
X171078152Y-125804561D01*
X171110062Y-125770582D01*
X171119713Y-125753024D01*
X171130396Y-125736761D01*
X171142673Y-125720936D01*
X171161185Y-125678153D01*
X171163738Y-125672941D01*
X171186197Y-125632092D01*
X171191180Y-125612680D01*
X171197481Y-125594280D01*
X171205437Y-125575896D01*
X171212729Y-125529852D01*
X171213906Y-125524171D01*
X171225500Y-125479019D01*
X171225500Y-125458982D01*
X171227027Y-125439582D01*
X171228111Y-125432739D01*
X171230160Y-125419804D01*
X171225775Y-125373415D01*
X171225500Y-125367577D01*
X171225500Y-121949500D01*
X171245185Y-121882461D01*
X171297989Y-121836706D01*
X171349500Y-121825500D01*
X178867257Y-121825500D01*
X178882877Y-121827224D01*
X178882904Y-121826939D01*
X178890660Y-121827671D01*
X178890667Y-121827673D01*
X178959814Y-121825500D01*
X178989350Y-121825500D01*
X178996228Y-121824630D01*
X179002041Y-121824172D01*
X179048627Y-121822709D01*
X179067869Y-121817117D01*
X179086912Y-121813174D01*
X179106792Y-121810664D01*
X179150122Y-121793507D01*
X179155646Y-121791617D01*
X179159396Y-121790527D01*
X179200390Y-121778618D01*
X179217629Y-121768422D01*
X179235103Y-121759862D01*
X179253727Y-121752488D01*
X179253727Y-121752487D01*
X179253732Y-121752486D01*
X179291449Y-121725082D01*
X179296305Y-121721892D01*
X179336420Y-121698170D01*
X179350589Y-121683999D01*
X179365379Y-121671368D01*
X179381587Y-121659594D01*
X179411299Y-121623676D01*
X179415212Y-121619376D01*
X185452771Y-115581819D01*
X185514095Y-115548334D01*
X185540453Y-115545500D01*
X189092650Y-115545500D01*
X189159689Y-115565185D01*
X189194225Y-115598377D01*
X189311501Y-115765865D01*
X189311506Y-115765871D01*
X189478597Y-115932962D01*
X189478603Y-115932967D01*
X189664158Y-116062894D01*
X189707783Y-116117471D01*
X189714977Y-116186969D01*
X189683454Y-116249324D01*
X189664158Y-116266044D01*
X189478597Y-116395974D01*
X189311505Y-116563066D01*
X189175965Y-116756638D01*
X189175964Y-116756640D01*
X189076098Y-116970804D01*
X189076094Y-116970813D01*
X189014938Y-117199055D01*
X189014936Y-117199065D01*
X188994341Y-117434468D01*
X188994341Y-117434469D01*
X189014936Y-117669872D01*
X189014938Y-117669882D01*
X189076094Y-117898124D01*
X189076096Y-117898128D01*
X189076097Y-117898132D01*
X189175964Y-118112299D01*
X189175965Y-118112299D01*
X189175967Y-118112303D01*
X189238688Y-118201877D01*
X189306113Y-118298170D01*
X189311501Y-118305864D01*
X189311506Y-118305871D01*
X189478597Y-118472962D01*
X189478603Y-118472967D01*
X189664158Y-118602894D01*
X189707783Y-118657471D01*
X189714977Y-118726969D01*
X189683454Y-118789324D01*
X189664158Y-118806044D01*
X189478597Y-118935974D01*
X189311505Y-119103066D01*
X189175965Y-119296638D01*
X189175964Y-119296640D01*
X189076098Y-119510804D01*
X189076094Y-119510813D01*
X189014938Y-119739055D01*
X189014936Y-119739065D01*
X188994341Y-119974468D01*
X188994341Y-119974469D01*
X189014936Y-120209872D01*
X189014938Y-120209882D01*
X189076094Y-120438124D01*
X189076096Y-120438128D01*
X189076097Y-120438132D01*
X189138365Y-120571666D01*
X189175965Y-120652299D01*
X189175967Y-120652303D01*
X189311501Y-120845864D01*
X189311506Y-120845871D01*
X189478597Y-121012962D01*
X189478603Y-121012967D01*
X189664158Y-121142894D01*
X189707783Y-121197471D01*
X189714977Y-121266969D01*
X189683454Y-121329324D01*
X189664158Y-121346044D01*
X189478597Y-121475974D01*
X189311505Y-121643066D01*
X189175965Y-121836638D01*
X189175964Y-121836640D01*
X189076098Y-122050804D01*
X189076094Y-122050813D01*
X189014938Y-122279055D01*
X189014936Y-122279065D01*
X188994341Y-122514468D01*
X188994341Y-122514469D01*
X189014936Y-122749872D01*
X189014938Y-122749882D01*
X189076094Y-122978124D01*
X189076096Y-122978128D01*
X189076097Y-122978132D01*
X189175965Y-123192299D01*
X189175967Y-123192303D01*
X189311501Y-123385864D01*
X189311506Y-123385871D01*
X189478597Y-123552962D01*
X189478603Y-123552967D01*
X189664158Y-123682894D01*
X189707783Y-123737471D01*
X189714977Y-123806969D01*
X189683454Y-123869324D01*
X189664158Y-123886044D01*
X189478597Y-124015974D01*
X189311505Y-124183066D01*
X189175965Y-124376638D01*
X189175964Y-124376640D01*
X189076098Y-124590804D01*
X189076094Y-124590813D01*
X189014938Y-124819055D01*
X189014936Y-124819065D01*
X188994341Y-125054468D01*
X188994341Y-125054469D01*
X189014936Y-125289872D01*
X189014938Y-125289882D01*
X189076094Y-125518124D01*
X189076096Y-125518128D01*
X189076097Y-125518132D01*
X189121469Y-125615432D01*
X189175965Y-125732299D01*
X189175967Y-125732303D01*
X189233506Y-125814476D01*
X189286923Y-125890764D01*
X189311501Y-125925864D01*
X189311506Y-125925871D01*
X189478597Y-126092962D01*
X189478603Y-126092967D01*
X189664158Y-126222894D01*
X189707783Y-126277471D01*
X189714977Y-126346969D01*
X189683454Y-126409324D01*
X189664158Y-126426044D01*
X189478597Y-126555974D01*
X189311505Y-126723066D01*
X189175965Y-126916638D01*
X189175964Y-126916640D01*
X189076098Y-127130804D01*
X189076094Y-127130813D01*
X189014938Y-127359055D01*
X189014936Y-127359065D01*
X188994341Y-127594468D01*
X188994341Y-127594469D01*
X189014936Y-127829872D01*
X189014938Y-127829882D01*
X189076094Y-128058124D01*
X189076096Y-128058128D01*
X189076097Y-128058132D01*
X189175964Y-128272299D01*
X189175965Y-128272299D01*
X189175967Y-128272303D01*
X189278942Y-128419365D01*
X189307110Y-128459594D01*
X189311501Y-128465864D01*
X189311506Y-128465871D01*
X189478597Y-128632962D01*
X189478603Y-128632967D01*
X189664594Y-128763199D01*
X189708219Y-128817776D01*
X189715413Y-128887274D01*
X189683890Y-128949629D01*
X189664595Y-128966349D01*
X189478922Y-129096359D01*
X189478920Y-129096360D01*
X189311891Y-129263389D01*
X189311886Y-129263395D01*
X189176402Y-129456886D01*
X189176400Y-129456890D01*
X189093594Y-129634468D01*
X189093594Y-129634469D01*
X189849890Y-129634469D01*
X189916929Y-129654154D01*
X189962684Y-129706958D01*
X189972628Y-129776116D01*
X189954206Y-129825505D01*
X189900031Y-129909805D01*
X189890505Y-129924628D01*
X189850000Y-130062579D01*
X189850000Y-130206358D01*
X189890505Y-130344309D01*
X189890506Y-130344311D01*
X189890507Y-130344313D01*
X189954206Y-130443432D01*
X189973890Y-130510469D01*
X189954205Y-130577509D01*
X189901401Y-130623264D01*
X189849890Y-130634469D01*
X189093593Y-130634469D01*
X189176398Y-130812045D01*
X189311894Y-131005551D01*
X189433946Y-131127603D01*
X189467431Y-131188926D01*
X189462447Y-131258618D01*
X189420575Y-131314551D01*
X189389598Y-131331466D01*
X189257671Y-131380671D01*
X189257664Y-131380675D01*
X189142455Y-131466921D01*
X189142452Y-131466924D01*
X189056206Y-131582133D01*
X189056202Y-131582140D01*
X189005908Y-131716986D01*
X188999501Y-131776585D01*
X188999501Y-131776592D01*
X188999500Y-131776604D01*
X188999500Y-132842000D01*
X188722000Y-132842000D01*
X188722000Y-136144000D01*
X192532000Y-136144000D01*
X192532000Y-133500500D01*
X196990194Y-133500500D01*
X197030903Y-133491208D01*
X197037760Y-133490043D01*
X197079255Y-133485368D01*
X197118680Y-133471571D01*
X197125321Y-133469658D01*
X197166061Y-133460360D01*
X197203693Y-133442236D01*
X197210105Y-133439580D01*
X197249522Y-133425789D01*
X197284889Y-133403565D01*
X197290961Y-133400209D01*
X197328587Y-133382091D01*
X197361236Y-133356052D01*
X197366895Y-133352037D01*
X197402262Y-133329816D01*
X197529816Y-133202262D01*
X197529816Y-133202261D01*
X200197827Y-130534251D01*
X200197827Y-130534250D01*
X200229816Y-130502262D01*
X200252036Y-130466896D01*
X200256054Y-130461234D01*
X200282092Y-130428586D01*
X200300211Y-130390961D01*
X200303570Y-130384881D01*
X200325789Y-130349522D01*
X200339581Y-130310107D01*
X200342244Y-130303679D01*
X200360360Y-130266061D01*
X200369658Y-130225321D01*
X200371571Y-130218680D01*
X200385368Y-130179255D01*
X200390043Y-130137760D01*
X200391208Y-130130905D01*
X200392726Y-130124249D01*
X200400500Y-130090194D01*
X200400500Y-129909805D01*
X200400500Y-108155046D01*
X200400500Y-108109806D01*
X200400500Y-83155046D01*
X200400500Y-83109806D01*
X200391207Y-83069093D01*
X200390042Y-83062233D01*
X200385368Y-83020745D01*
X200382730Y-83013206D01*
X200371576Y-82981328D01*
X200369650Y-82974641D01*
X200360360Y-82933939D01*
X200342238Y-82896307D01*
X200339583Y-82889899D01*
X200325789Y-82850478D01*
X200325785Y-82850471D01*
X200303574Y-82815122D01*
X200300209Y-82809033D01*
X200290289Y-82788435D01*
X200282092Y-82771414D01*
X200281646Y-82770855D01*
X200256055Y-82738763D01*
X200252029Y-82733089D01*
X200229819Y-82697742D01*
X200229817Y-82697739D01*
X196453693Y-78921615D01*
X196453691Y-78921612D01*
X196436252Y-78904173D01*
X196404262Y-78872184D01*
X196404259Y-78872182D01*
X196404258Y-78872181D01*
X196368904Y-78849966D01*
X196363229Y-78845940D01*
X196330589Y-78819910D01*
X196292959Y-78801787D01*
X196286872Y-78798422D01*
X196251525Y-78776212D01*
X196212114Y-78762421D01*
X196205688Y-78759759D01*
X196168061Y-78741639D01*
X196127345Y-78732345D01*
X196120662Y-78730420D01*
X196081259Y-78716632D01*
X196039763Y-78711955D01*
X196032908Y-78710791D01*
X195992200Y-78701501D01*
X195992196Y-78701500D01*
X195992194Y-78701500D01*
X195992191Y-78701500D01*
X191956007Y-78701500D01*
X191888968Y-78681815D01*
X191850279Y-78642289D01*
X191799632Y-78559641D01*
X191798836Y-78558341D01*
X191635224Y-78366776D01*
X191587819Y-78326288D01*
X191549627Y-78267784D01*
X191549128Y-78197916D01*
X191586482Y-78138870D01*
X191587820Y-78137710D01*
X191635224Y-78097224D01*
X191798836Y-77905659D01*
X191930466Y-77690859D01*
X192026873Y-77458111D01*
X192085683Y-77213148D01*
X192105449Y-76962000D01*
X192085683Y-76710852D01*
X192026873Y-76465889D01*
X191930466Y-76233141D01*
X191930466Y-76233140D01*
X191798839Y-76018346D01*
X191798838Y-76018343D01*
X191635224Y-75826776D01*
X191635223Y-75826775D01*
X191587819Y-75786289D01*
X191549627Y-75727784D01*
X191549128Y-75657916D01*
X191586482Y-75598870D01*
X191587756Y-75597764D01*
X191635224Y-75557224D01*
X191798836Y-75365659D01*
X191930466Y-75150859D01*
X192026873Y-74918111D01*
X192085683Y-74673148D01*
X192105449Y-74422000D01*
X192085683Y-74170852D01*
X192026873Y-73925889D01*
X191930466Y-73693141D01*
X191930466Y-73693140D01*
X191798839Y-73478346D01*
X191798838Y-73478343D01*
X191750188Y-73421382D01*
X191737051Y-73406000D01*
X192278000Y-73406000D01*
X192278000Y-70104000D01*
X188468000Y-70104000D01*
X188468000Y-73406000D01*
X189262948Y-73406000D01*
X189201161Y-73478343D01*
X189201160Y-73478346D01*
X189069533Y-73693140D01*
X188973126Y-73925889D01*
X188914317Y-74170848D01*
X188894551Y-74421999D01*
X188914317Y-74673151D01*
X188973126Y-74918110D01*
X189069533Y-75150859D01*
X189201160Y-75365653D01*
X189201161Y-75365656D01*
X189340969Y-75529350D01*
X189364776Y-75557224D01*
X189412179Y-75597710D01*
X189450371Y-75656215D01*
X189450871Y-75726083D01*
X189413517Y-75785129D01*
X189412180Y-75786288D01*
X189364777Y-75826775D01*
X189201161Y-76018343D01*
X189201160Y-76018346D01*
X189069533Y-76233140D01*
X188973126Y-76465889D01*
X188914317Y-76710848D01*
X188894551Y-76961999D01*
X188894551Y-76962000D01*
X188897993Y-77005731D01*
X188914317Y-77213151D01*
X188973126Y-77458110D01*
X189069533Y-77690859D01*
X189201160Y-77905653D01*
X189201161Y-77905656D01*
X189201164Y-77905659D01*
X189364776Y-78097224D01*
X189412177Y-78137708D01*
X189412179Y-78137710D01*
X189450372Y-78196217D01*
X189450870Y-78266085D01*
X189413516Y-78325131D01*
X189412179Y-78326290D01*
X189364776Y-78366776D01*
X189201162Y-78558343D01*
X189149721Y-78642289D01*
X189097909Y-78689165D01*
X189043993Y-78701500D01*
X185388194Y-78701500D01*
X185207806Y-78701500D01*
X185201888Y-78702850D01*
X185167089Y-78710791D01*
X185160235Y-78711955D01*
X185118744Y-78716632D01*
X185079341Y-78730419D01*
X185072659Y-78732344D01*
X185031939Y-78741640D01*
X184994306Y-78759761D01*
X184987880Y-78762423D01*
X184948475Y-78776212D01*
X184913123Y-78798424D01*
X184907037Y-78801787D01*
X184869413Y-78819907D01*
X184869408Y-78819911D01*
X184836762Y-78845944D01*
X184831090Y-78849969D01*
X184795738Y-78872183D01*
X184795733Y-78872187D01*
X184746310Y-78921609D01*
X184746306Y-78921615D01*
X177904741Y-85763181D01*
X177843418Y-85796666D01*
X177817060Y-85799500D01*
X164242367Y-85799500D01*
X164191931Y-85788779D01*
X164079807Y-85738857D01*
X164079802Y-85738855D01*
X163934000Y-85707865D01*
X163894646Y-85699500D01*
X163705354Y-85699500D01*
X163672897Y-85706398D01*
X163520197Y-85738855D01*
X163520192Y-85738857D01*
X163347270Y-85815848D01*
X163347265Y-85815851D01*
X163194129Y-85927111D01*
X163067466Y-86067785D01*
X162972821Y-86231715D01*
X162972818Y-86231722D01*
X162914327Y-86411740D01*
X162914326Y-86411744D01*
X162894540Y-86600000D01*
X162914326Y-86788256D01*
X162914327Y-86788259D01*
X162972818Y-86968277D01*
X162972821Y-86968284D01*
X163067467Y-87132216D01*
X163155347Y-87229816D01*
X163194129Y-87272888D01*
X163347265Y-87384148D01*
X163347270Y-87384151D01*
X163520192Y-87461142D01*
X163520197Y-87461144D01*
X163705354Y-87500500D01*
X163705355Y-87500500D01*
X163894644Y-87500500D01*
X163894646Y-87500500D01*
X164079803Y-87461144D01*
X164191930Y-87411221D01*
X164242367Y-87400500D01*
X178290194Y-87400500D01*
X178330903Y-87391208D01*
X178337760Y-87390043D01*
X178379255Y-87385368D01*
X178418680Y-87371571D01*
X178425321Y-87369658D01*
X178466061Y-87360360D01*
X178503693Y-87342236D01*
X178510105Y-87339580D01*
X178549522Y-87325789D01*
X178584889Y-87303565D01*
X178590961Y-87300209D01*
X178628587Y-87282091D01*
X178661236Y-87256052D01*
X178666895Y-87252037D01*
X178702262Y-87229816D01*
X178829816Y-87102262D01*
X185593259Y-80338818D01*
X185654582Y-80305334D01*
X185680940Y-80302500D01*
X189043993Y-80302500D01*
X189111032Y-80322185D01*
X189149719Y-80361709D01*
X189201164Y-80445659D01*
X189364776Y-80637224D01*
X189412178Y-80677709D01*
X189412179Y-80677710D01*
X189450372Y-80736217D01*
X189450870Y-80806085D01*
X189413516Y-80865131D01*
X189412179Y-80866290D01*
X189364776Y-80906776D01*
X189201161Y-81098343D01*
X189201160Y-81098346D01*
X189069533Y-81313140D01*
X188973126Y-81545889D01*
X188914317Y-81790848D01*
X188894551Y-82041999D01*
X188914317Y-82293151D01*
X188973126Y-82538110D01*
X189069533Y-82770859D01*
X189150520Y-82903016D01*
X189168765Y-82970462D01*
X189147649Y-83037064D01*
X189119105Y-83067072D01*
X189042452Y-83124455D01*
X188956206Y-83239664D01*
X188956202Y-83239671D01*
X188905908Y-83374517D01*
X188900311Y-83426583D01*
X188899501Y-83434123D01*
X188899500Y-83434135D01*
X188899500Y-85729870D01*
X188899501Y-85729876D01*
X188905908Y-85789483D01*
X188956202Y-85924328D01*
X188956206Y-85924335D01*
X189042452Y-86039544D01*
X189042455Y-86039547D01*
X189157664Y-86125793D01*
X189157671Y-86125797D01*
X189292517Y-86176091D01*
X189292516Y-86176091D01*
X189299444Y-86176835D01*
X189352127Y-86182500D01*
X191647872Y-86182499D01*
X191707483Y-86176091D01*
X191842331Y-86125796D01*
X191957546Y-86039546D01*
X192043796Y-85924331D01*
X192094091Y-85789483D01*
X192100500Y-85729873D01*
X192100499Y-83434128D01*
X192095299Y-83385757D01*
X192094091Y-83374516D01*
X192043797Y-83239671D01*
X192043793Y-83239664D01*
X191957547Y-83124455D01*
X191880894Y-83067072D01*
X191839024Y-83011138D01*
X191834040Y-82941446D01*
X191849476Y-82903021D01*
X191930466Y-82770859D01*
X192026873Y-82538111D01*
X192085683Y-82293148D01*
X192105449Y-82042000D01*
X192085683Y-81790852D01*
X192026873Y-81545889D01*
X191930466Y-81313141D01*
X191930466Y-81313140D01*
X191798839Y-81098346D01*
X191798838Y-81098343D01*
X191635224Y-80906776D01*
X191635223Y-80906775D01*
X191587819Y-80866289D01*
X191549627Y-80807784D01*
X191549128Y-80737916D01*
X191586482Y-80678870D01*
X191587756Y-80677764D01*
X191635224Y-80637224D01*
X191798836Y-80445659D01*
X191850279Y-80361710D01*
X191902091Y-80314835D01*
X191956007Y-80302500D01*
X195519060Y-80302500D01*
X195586099Y-80322185D01*
X195606741Y-80338819D01*
X198763181Y-83495259D01*
X198796666Y-83556582D01*
X198799500Y-83582940D01*
X198799500Y-105968060D01*
X198779815Y-106035099D01*
X198727011Y-106080854D01*
X198657853Y-106090798D01*
X198594297Y-106061773D01*
X198587819Y-106055741D01*
X195800287Y-103268209D01*
X195795650Y-103263021D01*
X195786261Y-103251248D01*
X195769620Y-103230380D01*
X195761847Y-103224181D01*
X195735537Y-103203199D01*
X195735529Y-103203192D01*
X195643997Y-103130198D01*
X195628587Y-103117909D01*
X195628585Y-103117908D01*
X195628584Y-103117907D01*
X195466060Y-103039639D01*
X195290200Y-102999500D01*
X195290194Y-102999500D01*
X195109805Y-102999500D01*
X195109801Y-102999500D01*
X195083660Y-103005467D01*
X195077124Y-103006959D01*
X195040247Y-103015376D01*
X194933934Y-103039641D01*
X194864209Y-103073220D01*
X194810407Y-103085500D01*
X191956007Y-103085500D01*
X191888968Y-103065815D01*
X191850279Y-103026289D01*
X191838755Y-103007484D01*
X191798836Y-102942341D01*
X191635224Y-102750776D01*
X191587819Y-102710288D01*
X191549627Y-102651784D01*
X191549128Y-102581916D01*
X191586482Y-102522870D01*
X191587820Y-102521710D01*
X191635224Y-102481224D01*
X191798836Y-102289659D01*
X191930466Y-102074859D01*
X192026873Y-101842111D01*
X192085683Y-101597148D01*
X192105449Y-101346000D01*
X192085683Y-101094852D01*
X192026873Y-100849889D01*
X192026102Y-100848027D01*
X191930466Y-100617140D01*
X191798839Y-100402346D01*
X191798838Y-100402343D01*
X191635224Y-100210776D01*
X191635224Y-100210775D01*
X191587819Y-100170289D01*
X191549627Y-100111784D01*
X191549128Y-100041916D01*
X191586482Y-99982870D01*
X191587756Y-99981764D01*
X191635224Y-99941224D01*
X191798836Y-99749659D01*
X191930466Y-99534859D01*
X192026873Y-99302111D01*
X192085683Y-99057148D01*
X192105449Y-98806000D01*
X192085683Y-98554852D01*
X192026873Y-98309889D01*
X192011547Y-98272888D01*
X191930466Y-98077140D01*
X191798839Y-97862346D01*
X191798838Y-97862343D01*
X191750676Y-97805953D01*
X191737051Y-97790000D01*
X192278000Y-97790000D01*
X192278000Y-94488000D01*
X188468000Y-94488000D01*
X188468000Y-97790000D01*
X189262948Y-97790000D01*
X189201161Y-97862343D01*
X189201160Y-97862346D01*
X189069533Y-98077140D01*
X188973126Y-98309889D01*
X188914317Y-98554848D01*
X188894551Y-98805999D01*
X188914317Y-99057151D01*
X188973126Y-99302110D01*
X189069533Y-99534859D01*
X189201160Y-99749653D01*
X189201161Y-99749656D01*
X189360799Y-99936568D01*
X189364776Y-99941224D01*
X189412179Y-99981710D01*
X189450371Y-100040215D01*
X189450871Y-100110083D01*
X189413517Y-100169129D01*
X189412180Y-100170288D01*
X189364777Y-100210775D01*
X189364776Y-100210776D01*
X189353482Y-100224000D01*
X189201161Y-100402343D01*
X189201160Y-100402346D01*
X189069533Y-100617140D01*
X188973126Y-100849889D01*
X188914317Y-101094848D01*
X188894551Y-101345999D01*
X188914317Y-101597151D01*
X188973126Y-101842110D01*
X189069533Y-102074859D01*
X189201160Y-102289653D01*
X189201161Y-102289656D01*
X189201164Y-102289659D01*
X189364776Y-102481224D01*
X189406963Y-102517255D01*
X189412179Y-102521710D01*
X189450372Y-102580217D01*
X189450870Y-102650085D01*
X189413516Y-102709131D01*
X189412179Y-102710290D01*
X189364776Y-102750776D01*
X189201161Y-102942343D01*
X189201160Y-102942346D01*
X189069533Y-103157140D01*
X188973126Y-103389889D01*
X188914317Y-103634848D01*
X188894551Y-103886000D01*
X188914317Y-104137151D01*
X188973126Y-104382110D01*
X189069533Y-104614859D01*
X189201160Y-104829653D01*
X189201161Y-104829656D01*
X189201164Y-104829659D01*
X189364776Y-105021224D01*
X189412178Y-105061709D01*
X189412179Y-105061710D01*
X189450372Y-105120217D01*
X189450870Y-105190085D01*
X189413516Y-105249131D01*
X189412179Y-105250290D01*
X189364776Y-105290776D01*
X189201161Y-105482343D01*
X189201160Y-105482346D01*
X189069533Y-105697140D01*
X188973126Y-105929889D01*
X188914317Y-106174848D01*
X188894551Y-106426000D01*
X188914317Y-106677151D01*
X188973126Y-106922110D01*
X189069533Y-107154859D01*
X189150520Y-107287016D01*
X189168765Y-107354462D01*
X189147649Y-107421064D01*
X189119105Y-107451072D01*
X189042452Y-107508455D01*
X188956206Y-107623664D01*
X188956202Y-107623671D01*
X188905908Y-107758517D01*
X188899501Y-107818116D01*
X188899501Y-107818123D01*
X188899500Y-107818135D01*
X188899500Y-110113870D01*
X188899501Y-110113876D01*
X188905908Y-110173483D01*
X188956202Y-110308328D01*
X188956206Y-110308335D01*
X189042452Y-110423544D01*
X189042455Y-110423547D01*
X189157664Y-110509793D01*
X189157671Y-110509797D01*
X189292517Y-110560091D01*
X189292516Y-110560091D01*
X189299444Y-110560835D01*
X189352127Y-110566500D01*
X191647872Y-110566499D01*
X191707483Y-110560091D01*
X191842331Y-110509796D01*
X191957546Y-110423546D01*
X192043796Y-110308331D01*
X192094091Y-110173483D01*
X192100500Y-110113873D01*
X192100499Y-107818128D01*
X192094091Y-107758517D01*
X192054638Y-107652739D01*
X192043797Y-107623671D01*
X192043793Y-107623664D01*
X191957547Y-107508455D01*
X191880894Y-107451072D01*
X191839024Y-107395138D01*
X191834040Y-107325446D01*
X191849476Y-107287021D01*
X191930466Y-107154859D01*
X192026873Y-106922111D01*
X192085683Y-106677148D01*
X192105449Y-106426000D01*
X192085683Y-106174852D01*
X192026873Y-105929889D01*
X192012672Y-105895604D01*
X191930466Y-105697140D01*
X191798839Y-105482346D01*
X191798838Y-105482343D01*
X191635224Y-105290776D01*
X191635224Y-105290775D01*
X191587819Y-105250289D01*
X191549627Y-105191784D01*
X191549128Y-105121916D01*
X191586482Y-105062870D01*
X191587756Y-105061764D01*
X191635224Y-105021224D01*
X191798836Y-104829659D01*
X191850279Y-104745710D01*
X191902091Y-104698835D01*
X191956007Y-104686500D01*
X194903060Y-104686500D01*
X194970099Y-104706185D01*
X194990741Y-104722819D01*
X198763181Y-108495258D01*
X198796666Y-108556581D01*
X198799500Y-108582939D01*
X198799500Y-129617060D01*
X198779815Y-129684099D01*
X198763181Y-129704741D01*
X196604741Y-131863181D01*
X196543418Y-131896666D01*
X196517060Y-131899500D01*
X191824499Y-131899500D01*
X191757460Y-131879815D01*
X191711705Y-131827011D01*
X191701448Y-131779863D01*
X191700900Y-131779892D01*
X191700854Y-131779898D01*
X191700853Y-131779895D01*
X191700676Y-131779905D01*
X191700499Y-131776604D01*
X191700499Y-131776597D01*
X191694091Y-131716986D01*
X191643796Y-131582138D01*
X191643795Y-131582137D01*
X191643793Y-131582133D01*
X191557547Y-131466924D01*
X191557544Y-131466921D01*
X191442335Y-131380675D01*
X191442328Y-131380671D01*
X191310401Y-131331466D01*
X191254467Y-131289595D01*
X191230050Y-131224131D01*
X191244902Y-131155858D01*
X191266053Y-131127602D01*
X191388108Y-131005547D01*
X191523601Y-130812045D01*
X191606406Y-130634469D01*
X190850110Y-130634469D01*
X190783071Y-130614784D01*
X190737316Y-130561980D01*
X190727372Y-130492822D01*
X190745793Y-130443432D01*
X190809493Y-130344313D01*
X190850000Y-130206358D01*
X190850000Y-130062580D01*
X190809493Y-129924625D01*
X190745793Y-129825505D01*
X190726110Y-129758469D01*
X190745795Y-129691429D01*
X190798599Y-129645674D01*
X190850110Y-129634469D01*
X191606406Y-129634469D01*
X191606405Y-129634468D01*
X191523599Y-129456890D01*
X191523597Y-129456886D01*
X191388113Y-129263395D01*
X191388108Y-129263389D01*
X191221078Y-129096359D01*
X191035405Y-128966348D01*
X190991780Y-128911771D01*
X190984588Y-128842273D01*
X191016110Y-128779918D01*
X191035406Y-128763199D01*
X191054970Y-128749500D01*
X191221401Y-128632964D01*
X191388495Y-128465870D01*
X191524035Y-128272299D01*
X191623903Y-128058132D01*
X191685063Y-127829877D01*
X191705659Y-127594469D01*
X191685063Y-127359061D01*
X191623903Y-127130806D01*
X191524035Y-126916640D01*
X191388495Y-126723068D01*
X191388494Y-126723066D01*
X191221402Y-126555975D01*
X191221396Y-126555970D01*
X191035842Y-126426044D01*
X190992217Y-126371467D01*
X190985023Y-126301969D01*
X191016546Y-126239614D01*
X191035842Y-126222894D01*
X191220968Y-126093267D01*
X191221401Y-126092964D01*
X191388495Y-125925870D01*
X191524035Y-125732299D01*
X191623903Y-125518132D01*
X191685063Y-125289877D01*
X191705659Y-125054469D01*
X191685063Y-124819061D01*
X191634830Y-124631586D01*
X191623905Y-124590813D01*
X191623904Y-124590812D01*
X191623903Y-124590806D01*
X191524035Y-124376640D01*
X191510138Y-124356792D01*
X191388494Y-124183066D01*
X191221402Y-124015975D01*
X191221396Y-124015970D01*
X191035842Y-123886044D01*
X190992217Y-123831467D01*
X190985023Y-123761969D01*
X191016546Y-123699614D01*
X191035842Y-123682894D01*
X191220968Y-123553267D01*
X191221401Y-123552964D01*
X191388495Y-123385870D01*
X191524035Y-123192299D01*
X191623903Y-122978132D01*
X191685063Y-122749877D01*
X191705659Y-122514469D01*
X191685063Y-122279061D01*
X191627974Y-122066000D01*
X191623905Y-122050813D01*
X191623904Y-122050812D01*
X191623903Y-122050806D01*
X191524035Y-121836640D01*
X191517757Y-121827673D01*
X191388494Y-121643066D01*
X191221402Y-121475975D01*
X191221396Y-121475970D01*
X191035842Y-121346044D01*
X190992217Y-121291467D01*
X190985023Y-121221969D01*
X191016546Y-121159614D01*
X191035842Y-121142894D01*
X191058026Y-121127360D01*
X191221401Y-121012964D01*
X191388495Y-120845870D01*
X191524035Y-120652299D01*
X191623903Y-120438132D01*
X191685063Y-120209877D01*
X191705659Y-119974469D01*
X191685063Y-119739061D01*
X191623903Y-119510806D01*
X191524035Y-119296640D01*
X191388495Y-119103068D01*
X191388494Y-119103066D01*
X191221402Y-118935975D01*
X191221396Y-118935970D01*
X191035842Y-118806044D01*
X190992217Y-118751467D01*
X190985023Y-118681969D01*
X191016546Y-118619614D01*
X191035842Y-118602894D01*
X191135908Y-118532827D01*
X191221401Y-118472964D01*
X191388495Y-118305870D01*
X191524035Y-118112299D01*
X191623903Y-117898132D01*
X191685063Y-117669877D01*
X191705659Y-117434469D01*
X191685063Y-117199061D01*
X191638626Y-117025754D01*
X191623905Y-116970813D01*
X191623904Y-116970812D01*
X191623903Y-116970806D01*
X191524035Y-116756640D01*
X191448723Y-116649082D01*
X191388494Y-116563066D01*
X191221402Y-116395975D01*
X191221396Y-116395970D01*
X191035842Y-116266044D01*
X190992217Y-116211467D01*
X190985023Y-116141969D01*
X191016546Y-116079614D01*
X191035842Y-116062894D01*
X191058026Y-116047360D01*
X191221401Y-115932964D01*
X191388495Y-115765870D01*
X191524035Y-115572299D01*
X191623903Y-115358132D01*
X191685063Y-115129877D01*
X191705659Y-114894469D01*
X191685063Y-114659061D01*
X191635212Y-114473011D01*
X191623905Y-114430813D01*
X191623904Y-114430812D01*
X191623903Y-114430806D01*
X191524035Y-114216640D01*
X191512034Y-114199500D01*
X191388494Y-114023066D01*
X191221402Y-113855975D01*
X191221395Y-113855970D01*
X191027834Y-113720436D01*
X191027830Y-113720434D01*
X190944979Y-113681800D01*
X190813663Y-113620566D01*
X190813659Y-113620565D01*
X190813655Y-113620563D01*
X190585413Y-113559407D01*
X190585403Y-113559405D01*
X190350001Y-113538810D01*
X190349999Y-113538810D01*
X190114596Y-113559405D01*
X190114586Y-113559407D01*
X189886344Y-113620563D01*
X189886335Y-113620567D01*
X189672171Y-113720433D01*
X189672169Y-113720434D01*
X189478597Y-113855974D01*
X189311505Y-114023066D01*
X189175965Y-114216638D01*
X189173042Y-114222908D01*
X189126868Y-114275346D01*
X189060661Y-114294500D01*
X185312738Y-114294500D01*
X185297121Y-114292776D01*
X185297094Y-114293062D01*
X185289332Y-114292327D01*
X185220204Y-114294500D01*
X185190650Y-114294500D01*
X185189929Y-114294590D01*
X185183757Y-114295369D01*
X185177945Y-114295826D01*
X185131373Y-114297290D01*
X185131372Y-114297290D01*
X185112129Y-114302881D01*
X185093079Y-114306825D01*
X185073211Y-114309334D01*
X185073209Y-114309335D01*
X185029884Y-114326488D01*
X185024357Y-114328380D01*
X184979610Y-114341381D01*
X184979609Y-114341382D01*
X184962367Y-114351579D01*
X184944899Y-114360137D01*
X184926269Y-114367513D01*
X184926267Y-114367514D01*
X184888576Y-114394898D01*
X184883694Y-114398105D01*
X184843579Y-114421830D01*
X184829408Y-114436000D01*
X184814623Y-114448628D01*
X184799995Y-114459257D01*
X184798412Y-114460407D01*
X184768709Y-114496310D01*
X184764777Y-114500631D01*
X178727228Y-120538181D01*
X178665905Y-120571666D01*
X178639547Y-120574500D01*
X170910453Y-120574500D01*
X170843414Y-120554815D01*
X170822772Y-120538181D01*
X170700803Y-120416212D01*
X170690980Y-120403950D01*
X170690759Y-120404134D01*
X170685786Y-120398123D01*
X170685785Y-120398122D01*
X170635364Y-120350773D01*
X170624919Y-120340328D01*
X170614475Y-120329883D01*
X170608986Y-120325625D01*
X170604561Y-120321847D01*
X170570582Y-120289938D01*
X170570580Y-120289936D01*
X170570577Y-120289935D01*
X170553029Y-120280288D01*
X170536763Y-120269604D01*
X170520933Y-120257325D01*
X170478168Y-120238818D01*
X170472922Y-120236248D01*
X170432093Y-120213803D01*
X170432092Y-120213802D01*
X170412693Y-120208822D01*
X170394281Y-120202518D01*
X170375898Y-120194562D01*
X170375892Y-120194560D01*
X170329874Y-120187272D01*
X170324152Y-120186087D01*
X170279021Y-120174500D01*
X170279019Y-120174500D01*
X170258984Y-120174500D01*
X170239586Y-120172973D01*
X170232162Y-120171797D01*
X170219805Y-120169840D01*
X170219804Y-120169840D01*
X170173416Y-120174225D01*
X170167578Y-120174500D01*
X166703748Y-120174500D01*
X166636709Y-120154815D01*
X166611600Y-120133474D01*
X166605873Y-120127114D01*
X166605869Y-120127110D01*
X166452734Y-120015851D01*
X166452729Y-120015848D01*
X166279807Y-119938857D01*
X166279802Y-119938855D01*
X166134001Y-119907865D01*
X166094646Y-119899500D01*
X165905354Y-119899500D01*
X165872897Y-119906398D01*
X165720197Y-119938855D01*
X165720192Y-119938857D01*
X165547270Y-120015848D01*
X165547265Y-120015851D01*
X165394129Y-120127111D01*
X165267466Y-120267785D01*
X165172821Y-120431715D01*
X165172818Y-120431722D01*
X165138228Y-120538181D01*
X165114326Y-120611744D01*
X165094540Y-120800000D01*
X165114326Y-120988256D01*
X165114327Y-120988259D01*
X165172818Y-121168277D01*
X165172821Y-121168284D01*
X165267467Y-121332216D01*
X165363966Y-121439389D01*
X165394129Y-121472888D01*
X165547265Y-121584148D01*
X165547270Y-121584151D01*
X165720192Y-121661142D01*
X165720197Y-121661144D01*
X165905354Y-121700500D01*
X165905355Y-121700500D01*
X166094644Y-121700500D01*
X166094646Y-121700500D01*
X166279803Y-121661144D01*
X166452730Y-121584151D01*
X166605871Y-121472888D01*
X166608788Y-121469647D01*
X166611600Y-121466526D01*
X166671087Y-121429879D01*
X166703748Y-121425500D01*
X169850500Y-121425500D01*
X169917539Y-121445185D01*
X169963294Y-121497989D01*
X169974500Y-121549500D01*
X169974500Y-125089546D01*
X169954815Y-125156585D01*
X169938181Y-125177227D01*
X167777228Y-127338181D01*
X167715905Y-127371666D01*
X167689547Y-127374500D01*
X151958510Y-127374500D01*
X151891471Y-127354815D01*
X151845716Y-127302011D01*
X151835772Y-127232853D01*
X151846128Y-127198096D01*
X151848736Y-127192502D01*
X151848739Y-127192496D01*
X151907635Y-126972692D01*
X151927468Y-126746000D01*
X151907635Y-126519308D01*
X151855428Y-126324469D01*
X151848741Y-126299511D01*
X151848738Y-126299502D01*
X151838465Y-126277471D01*
X151752568Y-126093266D01*
X151622047Y-125906861D01*
X151622045Y-125906858D01*
X151461141Y-125745954D01*
X151274734Y-125615432D01*
X151274728Y-125615429D01*
X151247038Y-125602517D01*
X151216724Y-125588381D01*
X151164285Y-125542210D01*
X151145133Y-125475017D01*
X151165348Y-125408135D01*
X151216725Y-125363618D01*
X151274734Y-125336568D01*
X151461139Y-125206047D01*
X151622047Y-125045139D01*
X151752568Y-124858734D01*
X151848739Y-124652496D01*
X151907635Y-124432692D01*
X151927468Y-124206000D01*
X151907635Y-123979308D01*
X151855428Y-123784468D01*
X151848741Y-123759511D01*
X151848738Y-123759502D01*
X151838465Y-123737471D01*
X151752568Y-123553266D01*
X151622047Y-123366861D01*
X151622045Y-123366858D01*
X151461141Y-123205954D01*
X151274735Y-123075433D01*
X151274736Y-123075433D01*
X151274734Y-123075432D01*
X151182521Y-123032432D01*
X151130082Y-122986259D01*
X151110931Y-122919065D01*
X151112811Y-122898517D01*
X151117997Y-122869103D01*
X150618531Y-122369636D01*
X150605350Y-122378443D01*
X150602315Y-122388782D01*
X150585681Y-122409424D01*
X150126000Y-122869104D01*
X150131187Y-122898519D01*
X150123443Y-122967958D01*
X150079386Y-123022187D01*
X150061477Y-123032433D01*
X149969264Y-123075433D01*
X149782858Y-123205954D01*
X149621954Y-123366858D01*
X149491432Y-123553265D01*
X149491431Y-123553267D01*
X149395261Y-123759502D01*
X149395258Y-123759511D01*
X149336366Y-123979302D01*
X149336364Y-123979313D01*
X149316532Y-124205998D01*
X149316532Y-124206001D01*
X149336364Y-124432686D01*
X149336366Y-124432697D01*
X149395258Y-124652488D01*
X149395261Y-124652497D01*
X149491431Y-124858732D01*
X149491432Y-124858734D01*
X149621954Y-125045141D01*
X149782858Y-125206045D01*
X149782861Y-125206047D01*
X149969266Y-125336568D01*
X150027275Y-125363618D01*
X150079714Y-125409791D01*
X150098866Y-125476984D01*
X150078650Y-125543865D01*
X150027275Y-125588381D01*
X150010272Y-125596310D01*
X149969267Y-125615431D01*
X149969265Y-125615432D01*
X149782858Y-125745954D01*
X149621954Y-125906858D01*
X149491432Y-126093265D01*
X149491431Y-126093267D01*
X149395261Y-126299502D01*
X149395258Y-126299511D01*
X149336366Y-126519302D01*
X149336364Y-126519313D01*
X149316532Y-126745998D01*
X149316532Y-126746001D01*
X149336364Y-126972686D01*
X149336366Y-126972697D01*
X149395258Y-127192488D01*
X149395263Y-127192502D01*
X149397872Y-127198096D01*
X149408364Y-127267173D01*
X149379844Y-127330957D01*
X149321367Y-127369196D01*
X149285490Y-127374500D01*
X143110452Y-127374500D01*
X143043413Y-127354815D01*
X143022771Y-127338181D01*
X139661819Y-123977228D01*
X139628334Y-123915905D01*
X139625500Y-123889547D01*
X139625500Y-121666000D01*
X149317034Y-121666000D01*
X149336858Y-121892599D01*
X149336860Y-121892610D01*
X149395731Y-122112322D01*
X149418895Y-122161997D01*
X149914889Y-121666003D01*
X150217014Y-121666003D01*
X150236833Y-121791143D01*
X150236833Y-121791144D01*
X150236834Y-121791147D01*
X150236835Y-121791148D01*
X150283361Y-121882461D01*
X150294360Y-121904046D01*
X150294363Y-121904050D01*
X150383949Y-121993636D01*
X150383953Y-121993639D01*
X150383955Y-121993641D01*
X150496852Y-122051165D01*
X150496853Y-122051165D01*
X150496855Y-122051166D01*
X150590514Y-122066000D01*
X150590519Y-122066000D01*
X150653486Y-122066000D01*
X150747144Y-122051166D01*
X150747145Y-122051165D01*
X150747148Y-122051165D01*
X150860045Y-121993641D01*
X150949641Y-121904045D01*
X151007165Y-121791148D01*
X151010764Y-121768426D01*
X151026986Y-121666003D01*
X151026986Y-121665996D01*
X151026437Y-121662531D01*
X151325636Y-121662531D01*
X151825103Y-122161997D01*
X151848265Y-122112326D01*
X151848269Y-122112317D01*
X151907139Y-121892610D01*
X151907141Y-121892599D01*
X151926966Y-121666000D01*
X151926966Y-121665997D01*
X151907141Y-121439400D01*
X151907139Y-121439389D01*
X151848268Y-121219679D01*
X151825103Y-121170001D01*
X151365424Y-121629681D01*
X151337339Y-121645016D01*
X151325636Y-121662531D01*
X151026437Y-121662531D01*
X151007166Y-121540856D01*
X151007166Y-121540855D01*
X151007165Y-121540853D01*
X151007165Y-121540852D01*
X150949641Y-121427955D01*
X150949639Y-121427953D01*
X150949636Y-121427949D01*
X150860050Y-121338363D01*
X150860046Y-121338360D01*
X150860045Y-121338359D01*
X150747148Y-121280835D01*
X150747147Y-121280834D01*
X150747144Y-121280833D01*
X150653486Y-121266000D01*
X150653481Y-121266000D01*
X150590519Y-121266000D01*
X150590514Y-121266000D01*
X150496855Y-121280833D01*
X150383953Y-121338360D01*
X150383949Y-121338363D01*
X150294363Y-121427949D01*
X150294360Y-121427953D01*
X150236833Y-121540855D01*
X150236833Y-121540856D01*
X150217014Y-121665996D01*
X150217014Y-121666003D01*
X149914889Y-121666003D01*
X149914893Y-121665999D01*
X149914892Y-121665998D01*
X149418895Y-121170000D01*
X149418894Y-121170001D01*
X149395733Y-121219672D01*
X149336859Y-121439392D01*
X149336858Y-121439400D01*
X149317034Y-121665997D01*
X149317034Y-121666000D01*
X139625500Y-121666000D01*
X139625500Y-113082742D01*
X139627224Y-113067122D01*
X139626939Y-113067096D01*
X139627671Y-113059340D01*
X139627673Y-113059333D01*
X139625500Y-112990185D01*
X139625500Y-112960650D01*
X139624631Y-112953772D01*
X139624172Y-112947943D01*
X139622709Y-112901372D01*
X139617122Y-112882144D01*
X139613174Y-112863084D01*
X139610664Y-112843208D01*
X139610663Y-112843206D01*
X139610663Y-112843204D01*
X139593512Y-112799887D01*
X139591619Y-112794358D01*
X139578618Y-112749609D01*
X139578616Y-112749606D01*
X139568423Y-112732371D01*
X139559861Y-112714894D01*
X139552487Y-112696270D01*
X139552486Y-112696268D01*
X139525079Y-112658545D01*
X139521888Y-112653686D01*
X139498172Y-112613583D01*
X139498165Y-112613574D01*
X139484006Y-112599415D01*
X139471368Y-112584619D01*
X139459594Y-112568413D01*
X139423688Y-112538709D01*
X139419376Y-112534786D01*
X132926803Y-106042212D01*
X132916980Y-106029950D01*
X132916759Y-106030134D01*
X132911786Y-106024123D01*
X132861364Y-105976773D01*
X132850919Y-105966328D01*
X132840475Y-105955883D01*
X132834986Y-105951625D01*
X132830561Y-105947847D01*
X132796582Y-105915938D01*
X132796580Y-105915936D01*
X132796577Y-105915935D01*
X132779029Y-105906288D01*
X132762763Y-105895604D01*
X132746933Y-105883325D01*
X132704168Y-105864818D01*
X132698922Y-105862248D01*
X132658093Y-105839803D01*
X132658092Y-105839802D01*
X132638693Y-105834822D01*
X132620281Y-105828518D01*
X132601898Y-105820562D01*
X132601892Y-105820560D01*
X132555874Y-105813272D01*
X132550152Y-105812087D01*
X132505021Y-105800500D01*
X132505019Y-105800500D01*
X132484984Y-105800500D01*
X132465586Y-105798973D01*
X132458162Y-105797797D01*
X132445805Y-105795840D01*
X132445804Y-105795840D01*
X132399416Y-105800225D01*
X132393578Y-105800500D01*
X131516188Y-105800500D01*
X131449149Y-105780815D01*
X131414613Y-105747623D01*
X131302045Y-105586858D01*
X131141141Y-105425954D01*
X130954734Y-105295432D01*
X130954728Y-105295429D01*
X130896725Y-105268382D01*
X130844285Y-105222210D01*
X130825133Y-105155017D01*
X130845348Y-105088135D01*
X130896725Y-105043618D01*
X130954734Y-105016568D01*
X131141139Y-104886047D01*
X131302047Y-104725139D01*
X131432568Y-104538734D01*
X131528739Y-104332496D01*
X131587635Y-104112692D01*
X131604634Y-103918384D01*
X131607468Y-103886001D01*
X131607468Y-103885998D01*
X131598756Y-103786420D01*
X131587635Y-103659308D01*
X131530565Y-103446317D01*
X131528741Y-103439511D01*
X131528738Y-103439502D01*
X131505603Y-103389889D01*
X131432568Y-103233266D01*
X131302047Y-103046861D01*
X131302045Y-103046858D01*
X131141141Y-102885954D01*
X130954734Y-102755432D01*
X130954728Y-102755429D01*
X130896725Y-102728382D01*
X130844285Y-102682210D01*
X130825133Y-102615017D01*
X130845348Y-102548135D01*
X130896725Y-102503618D01*
X130954734Y-102476568D01*
X131141139Y-102346047D01*
X131302047Y-102185139D01*
X131432568Y-101998734D01*
X131528739Y-101792496D01*
X131587635Y-101572692D01*
X131607468Y-101346000D01*
X131587635Y-101119308D01*
X131533960Y-100918989D01*
X131528741Y-100899511D01*
X131528738Y-100899502D01*
X131504735Y-100848027D01*
X131432568Y-100693266D01*
X131302047Y-100506861D01*
X131302045Y-100506858D01*
X131141141Y-100345954D01*
X130954734Y-100215432D01*
X130954728Y-100215429D01*
X130896725Y-100188382D01*
X130844285Y-100142210D01*
X130825133Y-100075017D01*
X130845348Y-100008135D01*
X130896725Y-99963618D01*
X130954734Y-99936568D01*
X131141139Y-99806047D01*
X131302047Y-99645139D01*
X131432568Y-99458734D01*
X131528739Y-99252496D01*
X131587635Y-99032692D01*
X131607468Y-98806000D01*
X131587635Y-98579308D01*
X131528739Y-98359504D01*
X131432568Y-98153266D01*
X131302047Y-97966861D01*
X131302045Y-97966858D01*
X131141141Y-97805954D01*
X130954734Y-97675432D01*
X130954728Y-97675429D01*
X130896725Y-97648382D01*
X130844285Y-97602210D01*
X130825133Y-97535017D01*
X130845348Y-97468135D01*
X130896725Y-97423618D01*
X130954734Y-97396568D01*
X131141139Y-97266047D01*
X131302047Y-97105139D01*
X131432568Y-96918734D01*
X131528739Y-96712496D01*
X131587635Y-96492692D01*
X131607468Y-96266000D01*
X131587635Y-96039308D01*
X131528739Y-95819504D01*
X131432568Y-95613266D01*
X131302047Y-95426861D01*
X131302045Y-95426858D01*
X131141141Y-95265954D01*
X130954734Y-95135432D01*
X130954728Y-95135429D01*
X130896725Y-95108382D01*
X130844285Y-95062210D01*
X130825133Y-94995017D01*
X130845348Y-94928135D01*
X130896725Y-94883618D01*
X130954734Y-94856568D01*
X131141139Y-94726047D01*
X131302047Y-94565139D01*
X131414612Y-94404377D01*
X131469189Y-94360752D01*
X131516188Y-94351500D01*
X131815548Y-94351500D01*
X131882587Y-94371185D01*
X131903229Y-94387819D01*
X133538181Y-96022771D01*
X133571666Y-96084094D01*
X133574500Y-96110452D01*
X133574500Y-103317255D01*
X133572775Y-103332872D01*
X133573061Y-103332899D01*
X133572326Y-103340665D01*
X133574500Y-103409814D01*
X133574500Y-103439343D01*
X133574501Y-103439360D01*
X133575368Y-103446231D01*
X133575826Y-103452050D01*
X133577290Y-103498624D01*
X133577291Y-103498627D01*
X133582880Y-103517867D01*
X133586824Y-103536911D01*
X133588139Y-103547313D01*
X133589336Y-103556791D01*
X133606490Y-103600119D01*
X133608382Y-103605647D01*
X133616867Y-103634852D01*
X133621382Y-103650390D01*
X133626652Y-103659302D01*
X133631580Y-103667634D01*
X133640138Y-103685103D01*
X133647514Y-103703732D01*
X133674898Y-103741423D01*
X133678106Y-103746307D01*
X133701827Y-103786416D01*
X133701833Y-103786424D01*
X133715990Y-103800580D01*
X133728627Y-103815375D01*
X133740406Y-103831587D01*
X133760091Y-103847872D01*
X133776309Y-103861288D01*
X133780620Y-103865210D01*
X144574464Y-114659055D01*
X148099197Y-118183788D01*
X148109022Y-118196051D01*
X148109243Y-118195869D01*
X148114214Y-118201878D01*
X148135043Y-118221437D01*
X148164635Y-118249226D01*
X148185529Y-118270120D01*
X148191011Y-118274373D01*
X148195443Y-118278157D01*
X148229418Y-118310062D01*
X148246976Y-118319714D01*
X148263235Y-118330395D01*
X148279064Y-118342673D01*
X148321838Y-118361182D01*
X148327056Y-118363738D01*
X148367908Y-118386197D01*
X148387316Y-118391180D01*
X148405717Y-118397480D01*
X148424104Y-118405437D01*
X148467488Y-118412308D01*
X148470119Y-118412725D01*
X148475839Y-118413909D01*
X148520981Y-118425500D01*
X148541016Y-118425500D01*
X148560414Y-118427026D01*
X148580194Y-118430159D01*
X148580195Y-118430160D01*
X148580195Y-118430159D01*
X148580196Y-118430160D01*
X148626583Y-118425775D01*
X148632422Y-118425500D01*
X149319064Y-118425500D01*
X149386103Y-118445185D01*
X149431858Y-118497989D01*
X149441802Y-118567147D01*
X149431446Y-118601904D01*
X149395263Y-118679497D01*
X149395258Y-118679511D01*
X149336366Y-118899302D01*
X149336364Y-118899313D01*
X149316532Y-119125998D01*
X149316532Y-119126001D01*
X149336364Y-119352686D01*
X149336366Y-119352697D01*
X149395258Y-119572488D01*
X149395261Y-119572497D01*
X149491431Y-119778732D01*
X149491432Y-119778734D01*
X149621954Y-119965141D01*
X149782858Y-120126045D01*
X149784382Y-120127112D01*
X149969266Y-120256568D01*
X150061477Y-120299567D01*
X150113915Y-120345738D01*
X150133067Y-120412932D01*
X150131187Y-120433481D01*
X150126000Y-120462895D01*
X150621998Y-120958892D01*
X150621999Y-120958893D01*
X150622000Y-120958893D01*
X150622000Y-120958892D01*
X151117997Y-120462896D01*
X151112811Y-120433483D01*
X151120554Y-120364044D01*
X151164610Y-120309814D01*
X151182517Y-120299569D01*
X151274734Y-120256568D01*
X151461139Y-120126047D01*
X151622047Y-119965139D01*
X151752568Y-119778734D01*
X151848739Y-119572496D01*
X151907635Y-119352692D01*
X151927468Y-119126000D01*
X151907635Y-118899308D01*
X151855428Y-118704469D01*
X151848741Y-118679511D01*
X151848736Y-118679497D01*
X151812554Y-118601904D01*
X151802062Y-118532827D01*
X151830582Y-118469043D01*
X151889059Y-118430804D01*
X151924936Y-118425500D01*
X155317257Y-118425500D01*
X155332877Y-118427224D01*
X155332904Y-118426939D01*
X155340660Y-118427671D01*
X155340667Y-118427673D01*
X155409814Y-118425500D01*
X155439350Y-118425500D01*
X155446228Y-118424630D01*
X155452041Y-118424172D01*
X155498627Y-118422709D01*
X155517869Y-118417117D01*
X155536912Y-118413174D01*
X155556792Y-118410664D01*
X155600122Y-118393507D01*
X155605646Y-118391617D01*
X155609396Y-118390527D01*
X155650390Y-118378618D01*
X155667629Y-118368422D01*
X155685103Y-118359862D01*
X155703727Y-118352488D01*
X155703727Y-118352487D01*
X155703732Y-118352486D01*
X155741449Y-118325082D01*
X155746305Y-118321892D01*
X155786420Y-118298170D01*
X155800589Y-118283999D01*
X155815379Y-118271368D01*
X155831587Y-118259594D01*
X155861299Y-118223676D01*
X155865212Y-118219376D01*
X157966825Y-116117763D01*
X176745787Y-116117763D01*
X176775413Y-116387013D01*
X176775415Y-116387024D01*
X176843926Y-116649082D01*
X176843928Y-116649088D01*
X176949870Y-116898390D01*
X177021998Y-117016575D01*
X177090979Y-117129605D01*
X177090986Y-117129615D01*
X177264253Y-117337819D01*
X177264259Y-117337824D01*
X177465998Y-117518582D01*
X177691910Y-117668044D01*
X177937176Y-117783020D01*
X177937183Y-117783022D01*
X177937185Y-117783023D01*
X178196557Y-117861057D01*
X178196564Y-117861058D01*
X178196569Y-117861060D01*
X178464561Y-117900500D01*
X178464566Y-117900500D01*
X178667636Y-117900500D01*
X178719133Y-117896730D01*
X178870156Y-117885677D01*
X178998963Y-117856984D01*
X179134546Y-117826782D01*
X179134548Y-117826781D01*
X179134553Y-117826780D01*
X179387558Y-117730014D01*
X179623777Y-117597441D01*
X179838177Y-117431888D01*
X180026186Y-117236881D01*
X180183799Y-117016579D01*
X180288622Y-116812697D01*
X180307649Y-116775690D01*
X180307651Y-116775684D01*
X180307656Y-116775675D01*
X180395118Y-116519305D01*
X180444319Y-116252933D01*
X180454212Y-115982235D01*
X180424586Y-115712982D01*
X180356072Y-115450912D01*
X180250130Y-115201610D01*
X180109018Y-114970390D01*
X180107845Y-114968981D01*
X179935746Y-114762180D01*
X179935740Y-114762175D01*
X179734002Y-114581418D01*
X179508092Y-114431957D01*
X179505637Y-114430806D01*
X179262824Y-114316980D01*
X179262819Y-114316978D01*
X179262814Y-114316976D01*
X179003442Y-114238942D01*
X179003428Y-114238939D01*
X178887791Y-114221921D01*
X178735439Y-114199500D01*
X178532369Y-114199500D01*
X178532364Y-114199500D01*
X178329844Y-114214323D01*
X178329831Y-114214325D01*
X178065453Y-114273217D01*
X178065446Y-114273220D01*
X177812439Y-114369987D01*
X177576226Y-114502557D01*
X177576224Y-114502558D01*
X177576223Y-114502559D01*
X177557367Y-114517119D01*
X177361822Y-114668112D01*
X177173822Y-114863109D01*
X177173816Y-114863116D01*
X177016202Y-115083419D01*
X177016199Y-115083424D01*
X176892350Y-115324309D01*
X176892343Y-115324327D01*
X176804884Y-115580685D01*
X176804881Y-115580699D01*
X176792431Y-115648105D01*
X176756979Y-115840043D01*
X176755681Y-115847068D01*
X176755680Y-115847075D01*
X176745787Y-116117763D01*
X157966825Y-116117763D01*
X161747770Y-112336819D01*
X161809094Y-112303334D01*
X161835452Y-112300500D01*
X161894644Y-112300500D01*
X161894646Y-112300500D01*
X162079803Y-112261144D01*
X162252730Y-112184151D01*
X162405871Y-112072888D01*
X162532533Y-111932216D01*
X162627179Y-111768284D01*
X162685674Y-111588256D01*
X162705460Y-111400000D01*
X162685674Y-111211744D01*
X162627179Y-111031716D01*
X162532533Y-110867784D01*
X162405871Y-110727112D01*
X162405870Y-110727111D01*
X162252734Y-110615851D01*
X162252729Y-110615848D01*
X162079807Y-110538857D01*
X162079802Y-110538855D01*
X161925005Y-110505953D01*
X161894646Y-110499500D01*
X161705354Y-110499500D01*
X161674995Y-110505953D01*
X161520197Y-110538855D01*
X161520192Y-110538857D01*
X161347270Y-110615848D01*
X161347265Y-110615851D01*
X161194129Y-110727111D01*
X161067466Y-110867785D01*
X160972821Y-111031715D01*
X160972818Y-111031722D01*
X160914327Y-111211740D01*
X160914326Y-111211744D01*
X160911208Y-111241415D01*
X160896678Y-111379651D01*
X160870093Y-111444266D01*
X160861038Y-111454370D01*
X155177228Y-117138181D01*
X155115905Y-117171666D01*
X155089547Y-117174500D01*
X151972289Y-117174500D01*
X151905250Y-117154815D01*
X151859495Y-117102011D01*
X151849551Y-117032853D01*
X151852514Y-117018407D01*
X151865267Y-116970813D01*
X151907635Y-116812692D01*
X151927468Y-116586000D01*
X151907635Y-116359308D01*
X151855428Y-116164469D01*
X151848741Y-116139511D01*
X151848740Y-116139510D01*
X151848739Y-116139504D01*
X151771051Y-115972904D01*
X151760560Y-115903827D01*
X151789080Y-115840043D01*
X151847556Y-115801804D01*
X151883434Y-115796500D01*
X152746257Y-115796500D01*
X152761877Y-115798224D01*
X152761904Y-115797939D01*
X152769660Y-115798671D01*
X152769667Y-115798673D01*
X152838814Y-115796500D01*
X152868350Y-115796500D01*
X152875228Y-115795630D01*
X152881041Y-115795172D01*
X152927627Y-115793709D01*
X152946869Y-115788117D01*
X152965912Y-115784174D01*
X152985792Y-115781664D01*
X153029122Y-115764507D01*
X153034646Y-115762617D01*
X153038396Y-115761527D01*
X153079390Y-115749618D01*
X153096629Y-115739422D01*
X153114103Y-115730862D01*
X153132727Y-115723488D01*
X153132727Y-115723487D01*
X153132732Y-115723486D01*
X153170449Y-115696082D01*
X153175305Y-115692892D01*
X153215420Y-115669170D01*
X153229589Y-115654999D01*
X153244379Y-115642368D01*
X153260587Y-115630594D01*
X153290299Y-115594676D01*
X153294212Y-115590376D01*
X157947771Y-110936819D01*
X158009095Y-110903334D01*
X158035453Y-110900500D01*
X158094644Y-110900500D01*
X158094646Y-110900500D01*
X158279803Y-110861144D01*
X158452730Y-110784151D01*
X158605871Y-110672888D01*
X158732533Y-110532216D01*
X158827179Y-110368284D01*
X158885674Y-110188256D01*
X158905460Y-110000000D01*
X158885674Y-109811744D01*
X158827179Y-109631716D01*
X158732533Y-109467784D01*
X158605871Y-109327112D01*
X158605870Y-109327111D01*
X158452734Y-109215851D01*
X158452729Y-109215848D01*
X158279807Y-109138857D01*
X158279802Y-109138855D01*
X158134001Y-109107865D01*
X158094646Y-109099500D01*
X157905354Y-109099500D01*
X157872897Y-109106398D01*
X157720197Y-109138855D01*
X157720192Y-109138857D01*
X157547270Y-109215848D01*
X157547265Y-109215851D01*
X157394129Y-109327111D01*
X157267466Y-109467785D01*
X157172821Y-109631715D01*
X157172818Y-109631722D01*
X157116472Y-109805139D01*
X157114326Y-109811744D01*
X157098109Y-109966045D01*
X157096679Y-109979649D01*
X157070094Y-110044263D01*
X157061039Y-110054368D01*
X152606228Y-114509181D01*
X152544905Y-114542666D01*
X152518547Y-114545500D01*
X151996137Y-114545500D01*
X151929098Y-114525815D01*
X151883343Y-114473011D01*
X151873399Y-114403853D01*
X151876362Y-114389407D01*
X151890263Y-114337524D01*
X151907635Y-114272692D01*
X151927468Y-114046000D01*
X151907635Y-113819308D01*
X151889318Y-113750948D01*
X151890981Y-113681103D01*
X151921410Y-113631179D01*
X153783788Y-111768801D01*
X153796042Y-111758986D01*
X153795859Y-111758764D01*
X153801866Y-111753792D01*
X153801877Y-111753786D01*
X153832775Y-111720882D01*
X153849227Y-111703364D01*
X153859671Y-111692918D01*
X153870120Y-111682471D01*
X153874379Y-111676978D01*
X153878152Y-111672561D01*
X153910062Y-111638582D01*
X153919713Y-111621024D01*
X153930396Y-111604761D01*
X153942673Y-111588936D01*
X153961185Y-111546153D01*
X153963738Y-111540941D01*
X153986197Y-111500092D01*
X153991180Y-111480680D01*
X153997481Y-111462280D01*
X154005437Y-111443896D01*
X154012729Y-111397852D01*
X154013906Y-111392171D01*
X154025500Y-111347019D01*
X154025500Y-111326982D01*
X154027027Y-111307582D01*
X154030160Y-111287804D01*
X154025775Y-111241415D01*
X154025500Y-111235577D01*
X154025500Y-109498687D01*
X154045185Y-109431648D01*
X154057350Y-109415715D01*
X154075891Y-109395122D01*
X154132533Y-109332216D01*
X154227179Y-109168284D01*
X154285674Y-108988256D01*
X154305460Y-108800000D01*
X154285674Y-108611744D01*
X154227179Y-108431716D01*
X154132533Y-108267784D01*
X154005871Y-108127112D01*
X154005526Y-108126861D01*
X153852734Y-108015851D01*
X153852729Y-108015848D01*
X153679807Y-107938857D01*
X153679802Y-107938855D01*
X153534000Y-107907865D01*
X153494646Y-107899500D01*
X153305354Y-107899500D01*
X153272897Y-107906398D01*
X153120197Y-107938855D01*
X153120192Y-107938857D01*
X152947270Y-108015848D01*
X152947265Y-108015851D01*
X152794129Y-108127111D01*
X152667466Y-108267785D01*
X152572821Y-108431715D01*
X152572818Y-108431722D01*
X152523685Y-108582939D01*
X152514326Y-108611744D01*
X152494540Y-108800000D01*
X152514326Y-108988256D01*
X152514327Y-108988259D01*
X152572818Y-109168277D01*
X152572821Y-109168284D01*
X152667467Y-109332216D01*
X152710772Y-109380310D01*
X152742650Y-109415715D01*
X152772880Y-109478706D01*
X152774500Y-109498687D01*
X152774500Y-110957546D01*
X152754815Y-111024585D01*
X152738181Y-111045227D01*
X152134818Y-111648589D01*
X152073495Y-111682074D01*
X152003803Y-111677090D01*
X151947870Y-111635218D01*
X151923453Y-111569754D01*
X151923608Y-111550109D01*
X151927468Y-111506000D01*
X151926951Y-111500095D01*
X151913559Y-111347018D01*
X151907635Y-111279308D01*
X151848739Y-111059504D01*
X151752568Y-110853266D01*
X151622047Y-110666861D01*
X151622045Y-110666858D01*
X151461141Y-110505954D01*
X151274734Y-110375432D01*
X151274728Y-110375429D01*
X151216725Y-110348382D01*
X151164285Y-110302210D01*
X151145133Y-110235017D01*
X151165348Y-110168135D01*
X151216725Y-110123618D01*
X151274734Y-110096568D01*
X151461139Y-109966047D01*
X151622047Y-109805139D01*
X151752568Y-109618734D01*
X151848739Y-109412496D01*
X151907635Y-109192692D01*
X151927468Y-108966000D01*
X151907635Y-108739308D01*
X151848739Y-108519504D01*
X151752568Y-108313266D01*
X151622047Y-108126861D01*
X151622045Y-108126858D01*
X151461141Y-107965954D01*
X151274734Y-107835432D01*
X151274728Y-107835429D01*
X151237626Y-107818128D01*
X151216724Y-107808381D01*
X151164285Y-107762210D01*
X151145133Y-107695017D01*
X151165348Y-107628135D01*
X151216725Y-107583618D01*
X151274734Y-107556568D01*
X151461139Y-107426047D01*
X151622047Y-107265139D01*
X151752568Y-107078734D01*
X151848739Y-106872496D01*
X151907635Y-106652692D01*
X151927468Y-106426000D01*
X151907635Y-106199308D01*
X151848739Y-105979504D01*
X151752568Y-105773266D01*
X151622047Y-105586861D01*
X151622045Y-105586858D01*
X151461141Y-105425954D01*
X151274734Y-105295432D01*
X151274728Y-105295429D01*
X151216725Y-105268382D01*
X151164285Y-105222210D01*
X151145133Y-105155017D01*
X151165348Y-105088135D01*
X151216725Y-105043618D01*
X151274734Y-105016568D01*
X151461139Y-104886047D01*
X151622047Y-104725139D01*
X151752568Y-104538734D01*
X151848739Y-104332496D01*
X151907635Y-104112692D01*
X151924634Y-103918384D01*
X151927468Y-103886001D01*
X151927468Y-103885998D01*
X151918756Y-103786420D01*
X151907635Y-103659308D01*
X151850565Y-103446317D01*
X151848741Y-103439511D01*
X151848738Y-103439502D01*
X151825603Y-103389889D01*
X151752568Y-103233266D01*
X151622047Y-103046861D01*
X151622045Y-103046858D01*
X151461141Y-102885954D01*
X151274734Y-102755432D01*
X151274728Y-102755429D01*
X151216725Y-102728382D01*
X151164285Y-102682210D01*
X151145133Y-102615017D01*
X151165348Y-102548135D01*
X151216725Y-102503618D01*
X151274734Y-102476568D01*
X151461139Y-102346047D01*
X151622047Y-102185139D01*
X151752568Y-101998734D01*
X151848739Y-101792496D01*
X151907635Y-101572692D01*
X151927468Y-101346000D01*
X151907635Y-101119308D01*
X151894308Y-101069573D01*
X151876362Y-101002593D01*
X151878025Y-100932743D01*
X151917188Y-100874881D01*
X151981417Y-100847377D01*
X151996137Y-100846500D01*
X153146387Y-100846500D01*
X153213426Y-100866185D01*
X153253774Y-100908499D01*
X153267467Y-100932216D01*
X153394129Y-101072888D01*
X153547265Y-101184148D01*
X153547270Y-101184151D01*
X153720192Y-101261142D01*
X153720197Y-101261144D01*
X153905354Y-101300500D01*
X153905355Y-101300500D01*
X154094644Y-101300500D01*
X154094646Y-101300500D01*
X154279803Y-101261144D01*
X154452730Y-101184151D01*
X154605871Y-101072888D01*
X154732533Y-100932216D01*
X154827179Y-100768284D01*
X154885674Y-100588256D01*
X154905460Y-100400000D01*
X154885674Y-100211744D01*
X154827179Y-100031716D01*
X154732533Y-99867784D01*
X154605871Y-99727112D01*
X154605870Y-99727111D01*
X154452734Y-99615851D01*
X154452729Y-99615848D01*
X154279807Y-99538857D01*
X154279802Y-99538855D01*
X154134001Y-99507865D01*
X154094646Y-99499500D01*
X153905354Y-99499500D01*
X153872897Y-99506398D01*
X153720197Y-99538855D01*
X153720192Y-99538857D01*
X153617053Y-99584779D01*
X153566617Y-99595500D01*
X151883434Y-99595500D01*
X151816395Y-99575815D01*
X151770640Y-99523011D01*
X151760696Y-99453853D01*
X151771052Y-99419095D01*
X151774437Y-99411836D01*
X151848739Y-99252496D01*
X151907635Y-99032692D01*
X151927468Y-98806000D01*
X151907635Y-98579308D01*
X151848739Y-98359504D01*
X151775249Y-98201905D01*
X151764757Y-98132827D01*
X151793277Y-98069043D01*
X151851753Y-98030804D01*
X151887631Y-98025500D01*
X153496252Y-98025500D01*
X153563291Y-98045185D01*
X153588400Y-98066526D01*
X153594126Y-98072885D01*
X153594130Y-98072889D01*
X153747265Y-98184148D01*
X153747270Y-98184151D01*
X153920192Y-98261142D01*
X153920197Y-98261144D01*
X154105354Y-98300500D01*
X154105355Y-98300500D01*
X154294644Y-98300500D01*
X154294646Y-98300500D01*
X154479803Y-98261144D01*
X154652730Y-98184151D01*
X154805871Y-98072888D01*
X154932533Y-97932216D01*
X155027179Y-97768284D01*
X155085674Y-97588256D01*
X155105460Y-97400000D01*
X155085674Y-97211744D01*
X155027179Y-97031716D01*
X154932533Y-96867784D01*
X154805871Y-96727112D01*
X154805870Y-96727111D01*
X154652734Y-96615851D01*
X154652729Y-96615848D01*
X154479807Y-96538857D01*
X154479802Y-96538855D01*
X154334000Y-96507865D01*
X154294646Y-96499500D01*
X154105354Y-96499500D01*
X154072897Y-96506398D01*
X153920197Y-96538855D01*
X153920192Y-96538857D01*
X153747280Y-96615843D01*
X153747271Y-96615848D01*
X153730602Y-96627958D01*
X153714041Y-96638108D01*
X153713777Y-96638242D01*
X153583065Y-96727073D01*
X153583063Y-96727074D01*
X153578277Y-96732504D01*
X153519177Y-96769772D01*
X153485264Y-96774500D01*
X151993725Y-96774500D01*
X151926686Y-96754815D01*
X151880931Y-96702011D01*
X151870987Y-96632853D01*
X151873950Y-96618407D01*
X151882029Y-96588256D01*
X151907635Y-96492692D01*
X151927468Y-96266000D01*
X151907635Y-96039308D01*
X151848739Y-95819504D01*
X151752568Y-95613266D01*
X151622047Y-95426861D01*
X151622045Y-95426858D01*
X151461141Y-95265954D01*
X151274734Y-95135432D01*
X151274728Y-95135429D01*
X151216725Y-95108382D01*
X151164285Y-95062210D01*
X151145133Y-94995017D01*
X151165348Y-94928135D01*
X151216725Y-94883618D01*
X151274734Y-94856568D01*
X151461139Y-94726047D01*
X151622047Y-94565139D01*
X151752568Y-94378734D01*
X151848739Y-94172496D01*
X151907635Y-93952692D01*
X151927468Y-93726000D01*
X151907635Y-93499308D01*
X151860695Y-93324123D01*
X151848741Y-93279511D01*
X151848738Y-93279502D01*
X151752568Y-93073266D01*
X151622047Y-92886861D01*
X151622045Y-92886858D01*
X151461141Y-92725954D01*
X151438356Y-92710000D01*
X158242000Y-92710000D01*
X158242000Y-103124000D01*
X163576000Y-103124000D01*
X163576000Y-101662220D01*
X167695642Y-101662220D01*
X167699023Y-101689342D01*
X167699500Y-101697018D01*
X167699500Y-102785360D01*
X167699024Y-102793035D01*
X167695643Y-102820158D01*
X167699500Y-102913414D01*
X167699500Y-102944443D01*
X167702062Y-102975369D01*
X167705918Y-103068612D01*
X167711526Y-103095362D01*
X167712635Y-103102969D01*
X167714891Y-103130197D01*
X167714891Y-103130198D01*
X167734498Y-103207623D01*
X167737801Y-103220667D01*
X167756951Y-103311993D01*
X167756952Y-103311995D01*
X167766882Y-103337446D01*
X167769227Y-103344766D01*
X167771505Y-103353763D01*
X167775937Y-103371260D01*
X167810093Y-103449130D01*
X167813420Y-103456714D01*
X167847344Y-103543654D01*
X167861332Y-103567129D01*
X167864852Y-103573967D01*
X167875825Y-103598983D01*
X167875827Y-103598986D01*
X167926860Y-103677099D01*
X167974634Y-103757273D01*
X167987838Y-103772863D01*
X168016147Y-103836740D01*
X168017042Y-103846376D01*
X168017122Y-103847876D01*
X168023530Y-103907483D01*
X168073823Y-104042328D01*
X168073827Y-104042335D01*
X168160073Y-104157544D01*
X168160076Y-104157547D01*
X168275285Y-104243793D01*
X168275292Y-104243797D01*
X168410137Y-104294091D01*
X168436040Y-104296875D01*
X168469748Y-104300500D01*
X168534673Y-104300499D01*
X168598148Y-104317977D01*
X168622501Y-104332488D01*
X168656347Y-104352656D01*
X168888007Y-104443049D01*
X169131384Y-104494080D01*
X169379842Y-104504357D01*
X169626602Y-104473598D01*
X169864934Y-104402644D01*
X170048100Y-104313098D01*
X170102561Y-104300499D01*
X170165492Y-104300499D01*
X170165493Y-104300499D01*
X170225104Y-104294091D01*
X170359952Y-104243796D01*
X170475167Y-104157546D01*
X170561417Y-104042331D01*
X170611712Y-103907483D01*
X170616256Y-103865221D01*
X170618120Y-103847886D01*
X170618120Y-103847882D01*
X170618121Y-103847873D01*
X170618120Y-103784938D01*
X170630719Y-103730479D01*
X170688000Y-103613310D01*
X170688000Y-105410000D01*
X173228000Y-105410000D01*
X173228000Y-102043387D01*
X173229614Y-102043049D01*
X173255077Y-102033112D01*
X173262374Y-102030774D01*
X173288881Y-102024063D01*
X173374335Y-101986579D01*
X173461274Y-101952656D01*
X173484761Y-101938659D01*
X173491581Y-101935149D01*
X173516607Y-101924173D01*
X173594720Y-101873139D01*
X173674894Y-101825366D01*
X173695754Y-101807697D01*
X173701894Y-101803117D01*
X173724785Y-101788164D01*
X173793435Y-101724966D01*
X173817126Y-101704902D01*
X173839078Y-101682949D01*
X173907738Y-101619744D01*
X173924530Y-101598167D01*
X173929604Y-101592422D01*
X182291208Y-93230819D01*
X182352532Y-93197334D01*
X182378890Y-93194500D01*
X189058561Y-93194500D01*
X189125600Y-93214185D01*
X189132872Y-93219233D01*
X189157668Y-93237795D01*
X189157671Y-93237797D01*
X189292517Y-93288091D01*
X189292516Y-93288091D01*
X189299444Y-93288835D01*
X189352127Y-93294500D01*
X191647872Y-93294499D01*
X191707483Y-93288091D01*
X191842331Y-93237796D01*
X191957546Y-93151546D01*
X192043796Y-93036331D01*
X192094091Y-92901483D01*
X192100500Y-92841873D01*
X192100499Y-92133813D01*
X192120183Y-92066777D01*
X192172987Y-92021022D01*
X192242146Y-92011078D01*
X192305702Y-92040103D01*
X192329492Y-92067844D01*
X192410179Y-92196256D01*
X192410184Y-92196262D01*
X192537738Y-92323816D01*
X192569253Y-92343618D01*
X192642736Y-92389791D01*
X192690478Y-92419789D01*
X192860744Y-92479367D01*
X192860745Y-92479368D01*
X192860750Y-92479369D01*
X192951246Y-92489565D01*
X192995040Y-92494499D01*
X192995043Y-92494500D01*
X192995046Y-92494500D01*
X193084957Y-92494500D01*
X193084958Y-92494499D01*
X193152104Y-92486934D01*
X193219249Y-92479369D01*
X193219252Y-92479368D01*
X193219255Y-92479368D01*
X193389522Y-92419789D01*
X193542262Y-92323816D01*
X193669816Y-92196262D01*
X193765789Y-92043522D01*
X193825368Y-91873255D01*
X193825369Y-91873249D01*
X193845565Y-91694003D01*
X193845565Y-91693996D01*
X193825369Y-91514750D01*
X193825368Y-91514745D01*
X193765788Y-91344476D01*
X193669815Y-91191737D01*
X193542262Y-91064184D01*
X193389523Y-90968211D01*
X193219254Y-90908631D01*
X193219249Y-90908630D01*
X193084960Y-90893500D01*
X193084954Y-90893500D01*
X192995046Y-90893500D01*
X192995039Y-90893500D01*
X192860750Y-90908630D01*
X192860745Y-90908631D01*
X192690476Y-90968211D01*
X192537737Y-91064184D01*
X192410184Y-91191737D01*
X192410179Y-91191743D01*
X192329492Y-91320156D01*
X192277158Y-91366447D01*
X192208104Y-91377095D01*
X192144256Y-91348720D01*
X192105884Y-91290330D01*
X192100499Y-91254184D01*
X192100499Y-90546129D01*
X192100498Y-90546123D01*
X192099927Y-90540815D01*
X192094091Y-90486517D01*
X192087421Y-90468635D01*
X192070774Y-90424000D01*
X192278000Y-90424000D01*
X192278000Y-89434590D01*
X192287373Y-89441925D01*
X192303578Y-89473138D01*
X192314209Y-89503519D01*
X192314211Y-89503522D01*
X192410184Y-89656262D01*
X192537738Y-89783816D01*
X192690478Y-89879789D01*
X192749281Y-89900365D01*
X192860745Y-89939368D01*
X192860750Y-89939369D01*
X192951246Y-89949565D01*
X192995040Y-89954499D01*
X192995043Y-89954500D01*
X192995046Y-89954500D01*
X193084957Y-89954500D01*
X193084958Y-89954499D01*
X193152104Y-89946934D01*
X193219249Y-89939369D01*
X193219252Y-89939368D01*
X193219255Y-89939368D01*
X193389522Y-89879789D01*
X193542262Y-89783816D01*
X193669816Y-89656262D01*
X193765789Y-89503522D01*
X193825368Y-89333255D01*
X193825369Y-89333249D01*
X193845565Y-89154003D01*
X193845565Y-89153996D01*
X193825369Y-88974750D01*
X193825368Y-88974745D01*
X193823038Y-88968085D01*
X193765789Y-88804478D01*
X193669816Y-88651738D01*
X193542262Y-88524184D01*
X193517137Y-88508397D01*
X193389523Y-88428211D01*
X193219254Y-88368631D01*
X193219249Y-88368630D01*
X193084960Y-88353500D01*
X193084954Y-88353500D01*
X192995046Y-88353500D01*
X192995039Y-88353500D01*
X192860750Y-88368630D01*
X192860745Y-88368631D01*
X192690476Y-88428211D01*
X192537737Y-88524184D01*
X192410184Y-88651737D01*
X192314209Y-88804479D01*
X192303578Y-88834862D01*
X192278000Y-88870523D01*
X192278000Y-87122000D01*
X188468000Y-87122000D01*
X188468000Y-90193500D01*
X181803019Y-90193500D01*
X181795347Y-90193024D01*
X181768221Y-90189643D01*
X181768219Y-90189643D01*
X181674965Y-90193500D01*
X181643933Y-90193500D01*
X181613008Y-90196062D01*
X181613009Y-90196062D01*
X181519763Y-90199919D01*
X181519750Y-90199920D01*
X181493016Y-90205526D01*
X181485408Y-90206635D01*
X181458185Y-90208890D01*
X181458175Y-90208892D01*
X181367711Y-90231801D01*
X181276395Y-90250948D01*
X181276379Y-90250953D01*
X181250935Y-90260881D01*
X181243616Y-90263226D01*
X181217123Y-90269935D01*
X181131663Y-90307420D01*
X181044726Y-90341343D01*
X181044717Y-90341348D01*
X181021244Y-90355335D01*
X181014409Y-90358853D01*
X180989397Y-90369824D01*
X180989390Y-90369828D01*
X180911278Y-90420860D01*
X180831104Y-90468635D01*
X180810250Y-90486297D01*
X180804087Y-90490892D01*
X180781216Y-90505834D01*
X180745578Y-90538641D01*
X180712564Y-90569033D01*
X180698952Y-90580562D01*
X180688869Y-90589102D01*
X180666922Y-90611049D01*
X180598262Y-90674256D01*
X180581471Y-90695827D01*
X180576382Y-90701588D01*
X172214791Y-99063181D01*
X172153468Y-99096666D01*
X172127110Y-99099500D01*
X170297019Y-99099500D01*
X170289347Y-99099024D01*
X170262221Y-99095643D01*
X170262219Y-99095643D01*
X170168965Y-99099500D01*
X170137933Y-99099500D01*
X170107008Y-99102062D01*
X170107009Y-99102062D01*
X170013765Y-99105918D01*
X170013751Y-99105920D01*
X169987017Y-99111526D01*
X169979409Y-99112635D01*
X169952185Y-99114890D01*
X169952175Y-99114892D01*
X169879815Y-99133215D01*
X169861725Y-99137797D01*
X169847755Y-99140726D01*
X169770390Y-99156948D01*
X169770375Y-99156953D01*
X169744920Y-99166886D01*
X169737599Y-99169231D01*
X169711119Y-99175937D01*
X169711113Y-99175939D01*
X169625667Y-99213419D01*
X169538723Y-99247345D01*
X169515247Y-99261333D01*
X169508413Y-99264851D01*
X169483388Y-99275829D01*
X169483385Y-99275830D01*
X169405275Y-99326862D01*
X169325101Y-99374637D01*
X169304250Y-99392297D01*
X169298087Y-99396892D01*
X169275215Y-99411835D01*
X169275212Y-99411838D01*
X169206554Y-99475042D01*
X169182871Y-99495101D01*
X169160934Y-99517038D01*
X169092261Y-99580257D01*
X169092256Y-99580262D01*
X169075472Y-99601826D01*
X169070383Y-99607589D01*
X168207588Y-100470382D01*
X168201827Y-100475471D01*
X168180256Y-100492262D01*
X168117049Y-100560922D01*
X168095102Y-100582869D01*
X168095098Y-100582874D01*
X168075033Y-100606564D01*
X168044641Y-100639578D01*
X168011834Y-100675216D01*
X167996892Y-100698087D01*
X167992297Y-100704250D01*
X167974635Y-100725104D01*
X167926860Y-100805278D01*
X167875828Y-100883390D01*
X167875824Y-100883397D01*
X167864853Y-100908409D01*
X167861335Y-100915244D01*
X167847348Y-100938717D01*
X167847343Y-100938726D01*
X167813420Y-101025663D01*
X167775935Y-101111123D01*
X167769226Y-101137616D01*
X167766881Y-101144935D01*
X167756953Y-101170379D01*
X167756948Y-101170395D01*
X167737801Y-101261711D01*
X167714892Y-101352175D01*
X167714890Y-101352185D01*
X167712635Y-101379408D01*
X167711526Y-101387016D01*
X167705920Y-101413750D01*
X167705919Y-101413763D01*
X167702062Y-101507009D01*
X167699500Y-101537936D01*
X167699500Y-101568964D01*
X167695642Y-101662219D01*
X167695642Y-101662220D01*
X163576000Y-101662220D01*
X163576000Y-92710000D01*
X158242000Y-92710000D01*
X151438356Y-92710000D01*
X151274734Y-92595432D01*
X151274728Y-92595429D01*
X151247038Y-92582517D01*
X151216724Y-92568381D01*
X151164285Y-92522210D01*
X151145133Y-92455017D01*
X151165348Y-92388135D01*
X151216725Y-92343618D01*
X151274734Y-92316568D01*
X151461139Y-92186047D01*
X151622047Y-92025139D01*
X151752568Y-91838734D01*
X151848739Y-91632496D01*
X151907635Y-91412692D01*
X151927468Y-91186000D01*
X151907635Y-90959308D01*
X151848739Y-90739504D01*
X151752568Y-90533266D01*
X151622047Y-90346861D01*
X151622045Y-90346858D01*
X151461141Y-90185954D01*
X151274734Y-90055432D01*
X151274732Y-90055431D01*
X151068497Y-89959261D01*
X151068488Y-89959258D01*
X150848697Y-89900366D01*
X150848693Y-89900365D01*
X150848692Y-89900365D01*
X150848691Y-89900364D01*
X150848686Y-89900364D01*
X150622002Y-89880532D01*
X150621998Y-89880532D01*
X150395313Y-89900364D01*
X150395302Y-89900366D01*
X150175511Y-89959258D01*
X150175502Y-89959261D01*
X149969267Y-90055431D01*
X149969265Y-90055432D01*
X149782858Y-90185954D01*
X149621954Y-90346858D01*
X149491432Y-90533265D01*
X149491431Y-90533267D01*
X149395261Y-90739502D01*
X149395258Y-90739511D01*
X149336366Y-90959302D01*
X149336364Y-90959313D01*
X149316532Y-91185998D01*
X149316532Y-91186001D01*
X149336364Y-91412686D01*
X149336366Y-91412697D01*
X149395258Y-91632488D01*
X149395261Y-91632497D01*
X149491431Y-91838732D01*
X149491432Y-91838734D01*
X149621954Y-92025141D01*
X149782858Y-92186045D01*
X149782861Y-92186047D01*
X149969266Y-92316568D01*
X150027275Y-92343618D01*
X150079714Y-92389791D01*
X150098866Y-92456984D01*
X150078650Y-92523865D01*
X150027275Y-92568381D01*
X150010272Y-92576310D01*
X149969267Y-92595431D01*
X149969265Y-92595432D01*
X149782858Y-92725954D01*
X149621954Y-92886858D01*
X149491432Y-93073265D01*
X149491431Y-93073267D01*
X149395261Y-93279502D01*
X149395258Y-93279511D01*
X149336366Y-93499302D01*
X149336364Y-93499313D01*
X149316532Y-93725998D01*
X149316532Y-93726001D01*
X149336364Y-93952686D01*
X149336366Y-93952697D01*
X149395258Y-94172488D01*
X149395261Y-94172497D01*
X149491431Y-94378732D01*
X149491432Y-94378734D01*
X149621954Y-94565141D01*
X149782858Y-94726045D01*
X149782861Y-94726047D01*
X149969266Y-94856568D01*
X150027275Y-94883618D01*
X150079714Y-94929791D01*
X150098866Y-94996984D01*
X150078650Y-95063865D01*
X150027275Y-95108382D01*
X149969267Y-95135431D01*
X149969265Y-95135432D01*
X149782858Y-95265954D01*
X149621954Y-95426858D01*
X149491432Y-95613265D01*
X149491431Y-95613267D01*
X149395261Y-95819502D01*
X149395258Y-95819511D01*
X149336366Y-96039302D01*
X149336364Y-96039313D01*
X149316532Y-96265998D01*
X149316532Y-96266001D01*
X149336364Y-96492686D01*
X149336366Y-96492697D01*
X149370050Y-96618407D01*
X149368387Y-96688257D01*
X149329224Y-96746119D01*
X149264996Y-96773623D01*
X149250275Y-96774500D01*
X142386217Y-96774500D01*
X142335781Y-96763779D01*
X142279806Y-96738857D01*
X142279802Y-96738855D01*
X142106459Y-96702011D01*
X142094646Y-96699500D01*
X141905354Y-96699500D01*
X141893541Y-96702011D01*
X141720197Y-96738855D01*
X141720192Y-96738857D01*
X141547270Y-96815848D01*
X141547265Y-96815851D01*
X141394129Y-96927111D01*
X141267466Y-97067785D01*
X141172821Y-97231715D01*
X141172819Y-97231719D01*
X141123395Y-97383830D01*
X141083957Y-97441505D01*
X141019598Y-97468703D01*
X140950752Y-97456788D01*
X140917783Y-97433192D01*
X139938960Y-96454369D01*
X139905475Y-96393046D01*
X139903323Y-96379668D01*
X139885674Y-96211744D01*
X139827179Y-96031716D01*
X139732533Y-95867784D01*
X139605871Y-95727112D01*
X139590577Y-95716000D01*
X139452734Y-95615851D01*
X139452729Y-95615848D01*
X139279807Y-95538857D01*
X139279802Y-95538855D01*
X139134000Y-95507865D01*
X139094646Y-95499500D01*
X138905354Y-95499500D01*
X138872897Y-95506398D01*
X138720197Y-95538855D01*
X138720192Y-95538857D01*
X138547270Y-95615848D01*
X138547265Y-95615851D01*
X138394129Y-95727111D01*
X138267466Y-95867785D01*
X138172821Y-96031715D01*
X138172818Y-96031722D01*
X138114327Y-96211740D01*
X138114326Y-96211744D01*
X138094540Y-96400000D01*
X138114326Y-96588256D01*
X138114327Y-96588259D01*
X138172818Y-96768277D01*
X138172821Y-96768284D01*
X138267467Y-96932216D01*
X138357063Y-97031722D01*
X138394129Y-97072888D01*
X138547265Y-97184148D01*
X138547270Y-97184151D01*
X138720192Y-97261142D01*
X138720197Y-97261144D01*
X138905354Y-97300500D01*
X138964548Y-97300500D01*
X139031587Y-97320185D01*
X139052229Y-97336819D01*
X142320197Y-100604788D01*
X142330022Y-100617051D01*
X142330243Y-100616869D01*
X142335214Y-100622878D01*
X142361217Y-100647295D01*
X142385635Y-100670226D01*
X142406529Y-100691120D01*
X142412011Y-100695373D01*
X142416443Y-100699157D01*
X142450418Y-100731062D01*
X142467976Y-100740714D01*
X142484233Y-100751393D01*
X142500064Y-100763673D01*
X142519737Y-100772186D01*
X142542833Y-100782182D01*
X142548077Y-100784750D01*
X142588908Y-100807197D01*
X142601523Y-100810435D01*
X142608305Y-100812177D01*
X142626719Y-100818481D01*
X142645104Y-100826438D01*
X142691157Y-100833732D01*
X142696826Y-100834906D01*
X142741981Y-100846500D01*
X142762016Y-100846500D01*
X142781413Y-100848026D01*
X142801196Y-100851160D01*
X142847583Y-100846775D01*
X142853422Y-100846500D01*
X149247863Y-100846500D01*
X149314902Y-100866185D01*
X149360657Y-100918989D01*
X149370601Y-100988147D01*
X149367638Y-101002593D01*
X149336366Y-101119302D01*
X149336364Y-101119313D01*
X149316532Y-101345998D01*
X149316532Y-101346001D01*
X149336364Y-101572686D01*
X149336366Y-101572697D01*
X149395258Y-101792488D01*
X149395261Y-101792497D01*
X149491431Y-101998732D01*
X149491432Y-101998734D01*
X149621954Y-102185141D01*
X149782858Y-102346045D01*
X149782861Y-102346047D01*
X149969266Y-102476568D01*
X150027275Y-102503618D01*
X150079714Y-102549791D01*
X150098866Y-102616984D01*
X150078650Y-102683865D01*
X150027275Y-102728382D01*
X149969267Y-102755431D01*
X149969265Y-102755432D01*
X149782858Y-102885954D01*
X149621954Y-103046858D01*
X149491432Y-103233265D01*
X149491431Y-103233267D01*
X149395261Y-103439502D01*
X149395258Y-103439511D01*
X149336366Y-103659302D01*
X149336364Y-103659313D01*
X149316532Y-103885998D01*
X149316532Y-103886001D01*
X149336364Y-104112686D01*
X149336366Y-104112697D01*
X149395258Y-104332488D01*
X149395261Y-104332497D01*
X149491431Y-104538732D01*
X149491432Y-104538734D01*
X149621954Y-104725141D01*
X149782858Y-104886045D01*
X149782861Y-104886047D01*
X149969266Y-105016568D01*
X150027275Y-105043618D01*
X150079714Y-105089791D01*
X150098866Y-105156984D01*
X150078650Y-105223865D01*
X150027275Y-105268382D01*
X149969267Y-105295431D01*
X149969265Y-105295432D01*
X149782858Y-105425954D01*
X149621954Y-105586858D01*
X149491432Y-105773265D01*
X149491431Y-105773267D01*
X149395261Y-105979502D01*
X149395258Y-105979511D01*
X149336366Y-106199302D01*
X149336364Y-106199313D01*
X149316532Y-106425998D01*
X149316532Y-106426001D01*
X149336364Y-106652686D01*
X149336366Y-106652697D01*
X149395258Y-106872488D01*
X149395261Y-106872497D01*
X149491431Y-107078732D01*
X149491432Y-107078734D01*
X149621954Y-107265141D01*
X149782858Y-107426045D01*
X149782861Y-107426047D01*
X149969266Y-107556568D01*
X150027275Y-107583618D01*
X150079714Y-107629791D01*
X150098866Y-107696984D01*
X150078650Y-107763865D01*
X150027275Y-107808382D01*
X149969267Y-107835431D01*
X149969265Y-107835432D01*
X149782858Y-107965954D01*
X149621954Y-108126858D01*
X149491432Y-108313265D01*
X149491431Y-108313267D01*
X149395261Y-108519502D01*
X149395258Y-108519511D01*
X149336366Y-108739302D01*
X149336364Y-108739313D01*
X149316532Y-108965998D01*
X149316532Y-108966001D01*
X149336364Y-109192686D01*
X149336366Y-109192697D01*
X149395258Y-109412488D01*
X149395261Y-109412497D01*
X149491431Y-109618732D01*
X149491432Y-109618734D01*
X149621954Y-109805141D01*
X149782858Y-109966045D01*
X149782861Y-109966047D01*
X149969266Y-110096568D01*
X150027275Y-110123618D01*
X150079714Y-110169791D01*
X150098866Y-110236984D01*
X150078650Y-110303865D01*
X150027275Y-110348382D01*
X149969267Y-110375431D01*
X149969265Y-110375432D01*
X149782858Y-110505954D01*
X149621954Y-110666858D01*
X149491432Y-110853265D01*
X149491431Y-110853267D01*
X149395261Y-111059502D01*
X149395258Y-111059511D01*
X149336366Y-111279302D01*
X149336364Y-111279313D01*
X149316532Y-111505998D01*
X149316532Y-111506001D01*
X149336364Y-111732686D01*
X149336366Y-111732697D01*
X149395258Y-111952488D01*
X149395261Y-111952497D01*
X149491431Y-112158732D01*
X149491432Y-112158734D01*
X149621954Y-112345141D01*
X149782858Y-112506045D01*
X149782861Y-112506047D01*
X149969266Y-112636568D01*
X150016456Y-112658573D01*
X150027275Y-112663618D01*
X150079714Y-112709791D01*
X150098866Y-112776984D01*
X150078650Y-112843865D01*
X150027275Y-112888382D01*
X149969267Y-112915431D01*
X149969265Y-112915432D01*
X149782858Y-113045954D01*
X149621954Y-113206858D01*
X149491432Y-113393265D01*
X149491431Y-113393267D01*
X149395261Y-113599502D01*
X149395258Y-113599511D01*
X149336366Y-113819302D01*
X149336364Y-113819313D01*
X149316532Y-114045998D01*
X149316532Y-114046001D01*
X149336364Y-114272686D01*
X149336366Y-114272697D01*
X149367638Y-114389407D01*
X149365975Y-114459257D01*
X149326812Y-114517119D01*
X149262583Y-114544623D01*
X149247863Y-114545500D01*
X148881452Y-114545500D01*
X148814413Y-114525815D01*
X148793771Y-114509181D01*
X136661819Y-102377228D01*
X136628334Y-102315905D01*
X136625500Y-102289547D01*
X136625500Y-93082737D01*
X136627224Y-93067123D01*
X136626938Y-93067096D01*
X136627672Y-93059333D01*
X136625500Y-92990202D01*
X136625500Y-92960651D01*
X136625500Y-92960650D01*
X136624629Y-92953759D01*
X136624172Y-92947945D01*
X136622709Y-92901374D01*
X136622709Y-92901372D01*
X136617120Y-92882137D01*
X136613174Y-92863084D01*
X136610664Y-92843208D01*
X136593501Y-92799859D01*
X136591614Y-92794346D01*
X136578617Y-92749610D01*
X136578616Y-92749608D01*
X136568421Y-92732369D01*
X136559860Y-92714893D01*
X136552486Y-92696269D01*
X136552486Y-92696267D01*
X136542474Y-92682488D01*
X136525083Y-92658550D01*
X136521900Y-92653705D01*
X136498170Y-92613579D01*
X136498165Y-92613573D01*
X136484005Y-92599413D01*
X136471370Y-92584620D01*
X136459593Y-92568412D01*
X136423693Y-92538713D01*
X136419381Y-92534790D01*
X134686803Y-90802212D01*
X134676980Y-90789950D01*
X134676759Y-90790134D01*
X134671786Y-90784123D01*
X134671785Y-90784122D01*
X134621364Y-90736773D01*
X134610919Y-90726328D01*
X134600475Y-90715883D01*
X134594986Y-90711625D01*
X134590561Y-90707847D01*
X134556582Y-90675938D01*
X134556580Y-90675936D01*
X134556577Y-90675935D01*
X134539029Y-90666288D01*
X134522763Y-90655604D01*
X134506933Y-90643325D01*
X134464168Y-90624818D01*
X134458922Y-90622248D01*
X134418093Y-90599803D01*
X134418092Y-90599802D01*
X134398693Y-90594822D01*
X134380281Y-90588518D01*
X134361898Y-90580562D01*
X134361892Y-90580560D01*
X134315874Y-90573272D01*
X134310152Y-90572087D01*
X134265021Y-90560500D01*
X134265019Y-90560500D01*
X134244984Y-90560500D01*
X134225586Y-90558973D01*
X134218162Y-90557797D01*
X134205805Y-90555840D01*
X134205804Y-90555840D01*
X134159416Y-90560225D01*
X134153578Y-90560500D01*
X131516188Y-90560500D01*
X131449149Y-90540815D01*
X131414613Y-90507623D01*
X131302045Y-90346858D01*
X131141141Y-90185954D01*
X130954734Y-90055432D01*
X130954732Y-90055431D01*
X130748497Y-89959261D01*
X130748488Y-89959258D01*
X130528697Y-89900366D01*
X130528693Y-89900365D01*
X130528692Y-89900365D01*
X130528691Y-89900364D01*
X130528686Y-89900364D01*
X130302002Y-89880532D01*
X130301998Y-89880532D01*
X130075313Y-89900364D01*
X130075302Y-89900366D01*
X129855511Y-89959258D01*
X129855502Y-89959261D01*
X129649267Y-90055431D01*
X129649265Y-90055432D01*
X129462858Y-90185954D01*
X129301954Y-90346858D01*
X129171432Y-90533265D01*
X129171431Y-90533267D01*
X129075261Y-90739502D01*
X129075258Y-90739511D01*
X129016366Y-90959302D01*
X129016364Y-90959313D01*
X128996532Y-91185998D01*
X128996532Y-91186001D01*
X129016364Y-91412686D01*
X129016366Y-91412697D01*
X129075258Y-91632488D01*
X129075261Y-91632497D01*
X129171431Y-91838732D01*
X129171432Y-91838734D01*
X129301954Y-92025141D01*
X129462858Y-92186045D01*
X129462861Y-92186047D01*
X129649266Y-92316568D01*
X129707275Y-92343618D01*
X129759714Y-92389791D01*
X129778866Y-92456984D01*
X129758650Y-92523865D01*
X129707275Y-92568381D01*
X129690272Y-92576310D01*
X129649267Y-92595431D01*
X129649265Y-92595432D01*
X129462858Y-92725954D01*
X129301954Y-92886858D01*
X129171432Y-93073265D01*
X129171431Y-93073267D01*
X129075261Y-93279502D01*
X129075258Y-93279511D01*
X129016366Y-93499302D01*
X129016364Y-93499313D01*
X128996532Y-93725998D01*
X128996532Y-93726001D01*
X129016364Y-93952686D01*
X129016366Y-93952697D01*
X129075258Y-94172488D01*
X129075261Y-94172497D01*
X129171431Y-94378732D01*
X129171432Y-94378734D01*
X129301954Y-94565141D01*
X129462858Y-94726045D01*
X129462861Y-94726047D01*
X129649266Y-94856568D01*
X129707275Y-94883618D01*
X129759714Y-94929791D01*
X129778866Y-94996984D01*
X129758650Y-95063865D01*
X129707275Y-95108382D01*
X129649267Y-95135431D01*
X129649265Y-95135432D01*
X129462858Y-95265954D01*
X129301954Y-95426858D01*
X129171432Y-95613265D01*
X129171431Y-95613267D01*
X129075261Y-95819502D01*
X129075258Y-95819511D01*
X129016366Y-96039302D01*
X129016364Y-96039313D01*
X128996532Y-96265998D01*
X128996532Y-96266001D01*
X129016364Y-96492686D01*
X129016366Y-96492697D01*
X129075258Y-96712488D01*
X129075261Y-96712497D01*
X129171431Y-96918732D01*
X129171432Y-96918734D01*
X129301954Y-97105141D01*
X129462858Y-97266045D01*
X129462861Y-97266047D01*
X129649266Y-97396568D01*
X129707275Y-97423618D01*
X129759714Y-97469791D01*
X129778866Y-97536984D01*
X129758650Y-97603865D01*
X129707275Y-97648382D01*
X129649267Y-97675431D01*
X129649265Y-97675432D01*
X129462858Y-97805954D01*
X129301954Y-97966858D01*
X129171432Y-98153265D01*
X129171431Y-98153267D01*
X129075261Y-98359502D01*
X129075258Y-98359511D01*
X129016366Y-98579302D01*
X129016364Y-98579313D01*
X128996532Y-98805998D01*
X128996532Y-98806001D01*
X129016364Y-99032686D01*
X129016366Y-99032697D01*
X129075258Y-99252488D01*
X129075261Y-99252497D01*
X129171431Y-99458732D01*
X129171432Y-99458734D01*
X129301954Y-99645141D01*
X129462858Y-99806045D01*
X129462861Y-99806047D01*
X129649266Y-99936568D01*
X129707275Y-99963618D01*
X129759714Y-100009791D01*
X129778866Y-100076984D01*
X129758650Y-100143865D01*
X129707275Y-100188382D01*
X129649267Y-100215431D01*
X129649265Y-100215432D01*
X129462858Y-100345954D01*
X129301954Y-100506858D01*
X129189387Y-100667623D01*
X129134811Y-100711248D01*
X129087812Y-100720500D01*
X126856453Y-100720500D01*
X126789414Y-100700815D01*
X126768772Y-100684181D01*
X124261819Y-98177227D01*
X124228334Y-98115904D01*
X124225500Y-98089546D01*
X124225500Y-83710451D01*
X124245185Y-83643412D01*
X124261819Y-83622770D01*
X128495045Y-79389544D01*
X128804719Y-79079870D01*
X167951121Y-79079870D01*
X167951122Y-79079876D01*
X167957529Y-79139483D01*
X168007823Y-79274328D01*
X168007827Y-79274335D01*
X168094073Y-79389544D01*
X168094076Y-79389547D01*
X168209285Y-79475793D01*
X168209292Y-79475797D01*
X168344138Y-79526091D01*
X168344137Y-79526091D01*
X168351065Y-79526835D01*
X168403748Y-79532500D01*
X170099493Y-79532499D01*
X170159104Y-79526091D01*
X170293952Y-79475796D01*
X170409167Y-79389546D01*
X170495417Y-79274331D01*
X170545712Y-79139483D01*
X170552121Y-79079873D01*
X170552120Y-78775752D01*
X170571804Y-78708716D01*
X170588439Y-78688074D01*
X170688000Y-78588513D01*
X170688000Y-80772000D01*
X173228000Y-80772000D01*
X173228000Y-76454000D01*
X170688000Y-76454000D01*
X170688000Y-77875485D01*
X170588439Y-77775924D01*
X170554954Y-77714601D01*
X170552120Y-77688243D01*
X170552120Y-77384129D01*
X170552119Y-77384123D01*
X170552118Y-77384116D01*
X170545712Y-77324517D01*
X170495417Y-77189669D01*
X170495416Y-77189668D01*
X170495414Y-77189664D01*
X170409168Y-77074455D01*
X170409165Y-77074452D01*
X170293956Y-76988206D01*
X170293949Y-76988202D01*
X170159103Y-76937908D01*
X170159104Y-76937908D01*
X170099504Y-76931501D01*
X170099502Y-76931500D01*
X170099494Y-76931500D01*
X170099485Y-76931500D01*
X168403750Y-76931500D01*
X168403744Y-76931501D01*
X168344137Y-76937908D01*
X168209292Y-76988202D01*
X168209285Y-76988206D01*
X168094076Y-77074452D01*
X168094073Y-77074455D01*
X168007827Y-77189664D01*
X168007823Y-77189671D01*
X167957529Y-77324517D01*
X167951122Y-77384116D01*
X167951122Y-77384123D01*
X167951121Y-77384135D01*
X167951121Y-79079870D01*
X128804719Y-79079870D01*
X132970120Y-74914470D01*
X132970120Y-74914469D01*
X133222772Y-74661816D01*
X133284094Y-74628334D01*
X133310452Y-74625500D01*
X149896252Y-74625500D01*
X149963291Y-74645185D01*
X149988400Y-74666526D01*
X149994126Y-74672885D01*
X149994130Y-74672889D01*
X150147265Y-74784148D01*
X150147270Y-74784151D01*
X150320192Y-74861142D01*
X150320197Y-74861144D01*
X150505354Y-74900500D01*
X150505355Y-74900500D01*
X150694644Y-74900500D01*
X150694646Y-74900500D01*
X150879803Y-74861144D01*
X151052730Y-74784151D01*
X151205871Y-74672888D01*
X151332533Y-74532216D01*
X151427179Y-74368284D01*
X151485674Y-74188256D01*
X151505460Y-74000000D01*
X151485674Y-73811744D01*
X151427179Y-73631716D01*
X151332533Y-73467784D01*
X151205871Y-73327112D01*
X151205870Y-73327111D01*
X151052734Y-73215851D01*
X151052729Y-73215848D01*
X150879807Y-73138857D01*
X150879802Y-73138855D01*
X150734000Y-73107865D01*
X150694646Y-73099500D01*
X150505354Y-73099500D01*
X150472897Y-73106398D01*
X150320197Y-73138855D01*
X150320192Y-73138857D01*
X150147270Y-73215848D01*
X150147265Y-73215851D01*
X149994130Y-73327110D01*
X149994126Y-73327114D01*
X149988400Y-73333474D01*
X149928913Y-73370121D01*
X149896252Y-73374500D01*
X133082743Y-73374500D01*
X133067122Y-73372775D01*
X133067096Y-73373061D01*
X133059334Y-73372327D01*
X133059333Y-73372327D01*
X132990186Y-73374500D01*
X132960649Y-73374500D01*
X132953766Y-73375369D01*
X132947949Y-73375826D01*
X132901373Y-73377290D01*
X132882129Y-73382881D01*
X132863079Y-73386825D01*
X132843211Y-73389334D01*
X132799884Y-73406488D01*
X132794358Y-73408379D01*
X132749614Y-73421379D01*
X132749610Y-73421381D01*
X132732366Y-73431579D01*
X132714905Y-73440133D01*
X132696274Y-73447510D01*
X132696262Y-73447517D01*
X132658570Y-73474902D01*
X132653687Y-73478109D01*
X132613580Y-73501829D01*
X132599414Y-73515995D01*
X132584624Y-73528627D01*
X132568414Y-73540404D01*
X132568411Y-73540407D01*
X132538710Y-73576309D01*
X132534777Y-73580631D01*
X132029880Y-74085529D01*
X132029876Y-74085533D01*
X123216208Y-82899199D01*
X123203951Y-82909020D01*
X123204134Y-82909241D01*
X123198123Y-82914213D01*
X123150772Y-82964636D01*
X123129889Y-82985519D01*
X123129877Y-82985532D01*
X123125621Y-82991017D01*
X123121837Y-82995447D01*
X123089937Y-83029418D01*
X123089936Y-83029420D01*
X123080284Y-83046976D01*
X123069610Y-83063226D01*
X123057329Y-83079061D01*
X123057324Y-83079068D01*
X123038815Y-83121838D01*
X123036245Y-83127084D01*
X123013803Y-83167906D01*
X123008822Y-83187307D01*
X123002521Y-83205710D01*
X122994562Y-83224102D01*
X122994561Y-83224105D01*
X122987271Y-83270127D01*
X122986087Y-83275846D01*
X122974501Y-83320972D01*
X122974500Y-83320982D01*
X122974500Y-83341016D01*
X122972973Y-83360415D01*
X122969840Y-83380194D01*
X122969840Y-83380195D01*
X122974225Y-83426583D01*
X122974500Y-83432421D01*
X122974500Y-98317255D01*
X122972775Y-98332872D01*
X122973061Y-98332899D01*
X122972326Y-98340665D01*
X122974500Y-98409814D01*
X122974500Y-98439343D01*
X122974501Y-98439360D01*
X122975368Y-98446231D01*
X122975826Y-98452050D01*
X122977290Y-98498624D01*
X122977291Y-98498627D01*
X122982880Y-98517867D01*
X122986824Y-98536911D01*
X122989336Y-98556792D01*
X123006490Y-98600119D01*
X123008382Y-98605647D01*
X123021381Y-98650388D01*
X123031580Y-98667634D01*
X123040138Y-98685103D01*
X123047514Y-98703732D01*
X123074898Y-98741423D01*
X123078106Y-98746307D01*
X123101827Y-98786416D01*
X123101833Y-98786424D01*
X123115990Y-98800580D01*
X123128628Y-98815376D01*
X123140405Y-98831586D01*
X123140406Y-98831587D01*
X123176309Y-98861288D01*
X123180620Y-98865210D01*
X125341072Y-101025663D01*
X126045197Y-101729788D01*
X126055022Y-101742051D01*
X126055243Y-101741869D01*
X126060214Y-101747878D01*
X126086217Y-101772295D01*
X126110635Y-101795226D01*
X126131529Y-101816120D01*
X126137011Y-101820373D01*
X126141443Y-101824157D01*
X126175418Y-101856062D01*
X126192976Y-101865714D01*
X126209235Y-101876395D01*
X126225064Y-101888673D01*
X126267838Y-101907182D01*
X126273056Y-101909738D01*
X126313908Y-101932197D01*
X126333316Y-101937180D01*
X126351717Y-101943480D01*
X126370104Y-101951437D01*
X126413488Y-101958308D01*
X126416119Y-101958725D01*
X126421839Y-101959909D01*
X126466981Y-101971500D01*
X126487016Y-101971500D01*
X126506414Y-101973026D01*
X126526194Y-101976159D01*
X126526195Y-101976160D01*
X126526195Y-101976159D01*
X126526196Y-101976160D01*
X126572583Y-101971775D01*
X126578422Y-101971500D01*
X129087812Y-101971500D01*
X129154851Y-101991185D01*
X129189387Y-102024377D01*
X129301954Y-102185141D01*
X129462858Y-102346045D01*
X129462861Y-102346047D01*
X129649266Y-102476568D01*
X129707275Y-102503618D01*
X129759714Y-102549791D01*
X129778866Y-102616984D01*
X129758650Y-102683865D01*
X129707275Y-102728382D01*
X129649267Y-102755431D01*
X129649265Y-102755432D01*
X129462858Y-102885954D01*
X129301954Y-103046858D01*
X129189387Y-103207623D01*
X129134811Y-103251248D01*
X129087812Y-103260500D01*
X126796452Y-103260500D01*
X126729413Y-103240815D01*
X126708771Y-103224181D01*
X122661819Y-99177228D01*
X122628334Y-99115905D01*
X122625500Y-99089547D01*
X122625500Y-82510452D01*
X122645185Y-82443413D01*
X122661819Y-82422771D01*
X134222771Y-70861819D01*
X134284094Y-70828334D01*
X134310452Y-70825500D01*
X150489548Y-70825500D01*
X150556587Y-70845185D01*
X150577229Y-70861819D01*
X151861038Y-72145629D01*
X151894523Y-72206952D01*
X151896678Y-72220348D01*
X151900944Y-72260933D01*
X151914326Y-72388256D01*
X151916292Y-72394309D01*
X151972818Y-72568277D01*
X151972821Y-72568284D01*
X152067467Y-72732216D01*
X152151347Y-72825374D01*
X152194129Y-72872888D01*
X152347265Y-72984148D01*
X152347270Y-72984151D01*
X152520192Y-73061142D01*
X152520197Y-73061144D01*
X152705354Y-73100500D01*
X152705355Y-73100500D01*
X152894644Y-73100500D01*
X152894646Y-73100500D01*
X153079803Y-73061144D01*
X153252730Y-72984151D01*
X153405871Y-72872888D01*
X153532533Y-72732216D01*
X153627179Y-72568284D01*
X153685674Y-72388256D01*
X153705460Y-72200000D01*
X153685674Y-72011744D01*
X153627179Y-71831716D01*
X153532533Y-71667784D01*
X153405871Y-71527112D01*
X153372779Y-71503069D01*
X153252734Y-71415851D01*
X153252729Y-71415848D01*
X153079807Y-71338857D01*
X153079802Y-71338855D01*
X152934000Y-71307865D01*
X152894646Y-71299500D01*
X152894645Y-71299500D01*
X152835453Y-71299500D01*
X152768414Y-71279815D01*
X152747772Y-71263181D01*
X151300803Y-69816212D01*
X151290980Y-69803950D01*
X151290759Y-69804134D01*
X151285786Y-69798123D01*
X151267159Y-69780631D01*
X151235364Y-69750773D01*
X151224919Y-69740328D01*
X151214475Y-69729883D01*
X151208986Y-69725625D01*
X151204561Y-69721847D01*
X151170582Y-69689938D01*
X151170580Y-69689936D01*
X151170577Y-69689935D01*
X151153029Y-69680288D01*
X151136763Y-69669604D01*
X151120933Y-69657325D01*
X151078168Y-69638818D01*
X151072922Y-69636248D01*
X151032093Y-69613803D01*
X151032092Y-69613802D01*
X151012693Y-69608822D01*
X150994281Y-69602518D01*
X150975898Y-69594562D01*
X150975892Y-69594560D01*
X150929874Y-69587272D01*
X150924152Y-69586087D01*
X150879021Y-69574500D01*
X150879019Y-69574500D01*
X150858984Y-69574500D01*
X150839586Y-69572973D01*
X150832162Y-69571797D01*
X150819805Y-69569840D01*
X150819804Y-69569840D01*
X150773416Y-69574225D01*
X150767578Y-69574500D01*
X134082743Y-69574500D01*
X134067122Y-69572775D01*
X134067095Y-69573061D01*
X134059333Y-69572326D01*
X133990172Y-69574500D01*
X133960649Y-69574500D01*
X133953778Y-69575367D01*
X133947959Y-69575825D01*
X133901374Y-69577289D01*
X133901368Y-69577290D01*
X133882126Y-69582880D01*
X133863087Y-69586823D01*
X133843217Y-69589334D01*
X133843203Y-69589337D01*
X133799883Y-69606488D01*
X133794358Y-69608380D01*
X133749613Y-69621380D01*
X133749610Y-69621381D01*
X133732366Y-69631579D01*
X133714905Y-69640133D01*
X133696274Y-69647510D01*
X133696262Y-69647517D01*
X133658570Y-69674902D01*
X133653687Y-69678109D01*
X133613580Y-69701829D01*
X133599414Y-69715995D01*
X133584624Y-69728627D01*
X133568414Y-69740404D01*
X133568411Y-69740407D01*
X133538710Y-69776309D01*
X133534777Y-69780631D01*
X121616208Y-81699199D01*
X121603951Y-81709020D01*
X121604134Y-81709241D01*
X121598123Y-81714213D01*
X121550772Y-81764636D01*
X121529889Y-81785519D01*
X121529877Y-81785532D01*
X121525621Y-81791017D01*
X121521837Y-81795447D01*
X121489937Y-81829418D01*
X121489936Y-81829420D01*
X121480284Y-81846976D01*
X121469610Y-81863226D01*
X121457329Y-81879061D01*
X121457324Y-81879068D01*
X121438815Y-81921838D01*
X121436245Y-81927084D01*
X121413803Y-81967906D01*
X121408822Y-81987307D01*
X121402521Y-82005710D01*
X121394562Y-82024102D01*
X121394561Y-82024105D01*
X121387271Y-82070127D01*
X121386087Y-82075846D01*
X121374501Y-82120972D01*
X121374500Y-82120982D01*
X121374500Y-82141016D01*
X121372973Y-82160415D01*
X121369840Y-82180194D01*
X121369840Y-82180195D01*
X119725898Y-82180195D01*
X119768012Y-68072000D01*
X158496000Y-68072000D01*
X158496000Y-78486000D01*
X163830000Y-78486000D01*
X163830000Y-68072000D01*
X158496000Y-68072000D01*
X119768012Y-68072000D01*
X119778634Y-64513763D01*
X121064787Y-64513763D01*
X121094413Y-64783013D01*
X121094415Y-64783024D01*
X121162926Y-65045082D01*
X121162928Y-65045088D01*
X121268870Y-65294390D01*
X121340998Y-65412575D01*
X121409979Y-65525605D01*
X121409986Y-65525615D01*
X121583253Y-65733819D01*
X121583259Y-65733824D01*
X121784998Y-65914582D01*
X122010910Y-66064044D01*
X122256176Y-66179020D01*
X122256183Y-66179022D01*
X122256185Y-66179023D01*
X122515557Y-66257057D01*
X122515564Y-66257058D01*
X122515569Y-66257060D01*
X122783561Y-66296500D01*
X122783566Y-66296500D01*
X122986636Y-66296500D01*
X123038133Y-66292730D01*
X123189156Y-66281677D01*
X123301758Y-66256593D01*
X123453546Y-66222782D01*
X123453548Y-66222781D01*
X123453553Y-66222780D01*
X123706558Y-66126014D01*
X123942777Y-65993441D01*
X124157177Y-65827888D01*
X124345186Y-65632881D01*
X124502799Y-65412579D01*
X124576787Y-65268669D01*
X124626649Y-65171690D01*
X124626651Y-65171684D01*
X124626656Y-65171675D01*
X124714118Y-64915305D01*
X124763319Y-64648933D01*
X124768259Y-64513763D01*
X199394787Y-64513763D01*
X199424413Y-64783013D01*
X199424415Y-64783024D01*
X199492926Y-65045082D01*
X199492928Y-65045088D01*
X199598870Y-65294390D01*
X199670998Y-65412575D01*
X199739979Y-65525605D01*
X199739986Y-65525615D01*
X199913253Y-65733819D01*
X199913259Y-65733824D01*
X200114998Y-65914582D01*
X200340910Y-66064044D01*
X200586176Y-66179020D01*
X200586183Y-66179022D01*
X200586185Y-66179023D01*
X200845557Y-66257057D01*
X200845564Y-66257058D01*
X200845569Y-66257060D01*
X201113561Y-66296500D01*
X201113566Y-66296500D01*
X201316636Y-66296500D01*
X201368133Y-66292730D01*
X201519156Y-66281677D01*
X201631758Y-66256593D01*
X201783546Y-66222782D01*
X201783548Y-66222781D01*
X201783553Y-66222780D01*
X202036558Y-66126014D01*
X202272777Y-65993441D01*
X202487177Y-65827888D01*
X202675186Y-65632881D01*
X202832799Y-65412579D01*
X202906787Y-65268669D01*
X202956649Y-65171690D01*
X202956651Y-65171684D01*
X202956656Y-65171675D01*
X203044118Y-64915305D01*
X203093319Y-64648933D01*
X203103212Y-64378235D01*
X203073586Y-64108982D01*
X203005072Y-63846912D01*
X202899130Y-63597610D01*
X202758018Y-63366390D01*
X202668747Y-63259119D01*
X202584746Y-63158180D01*
X202584740Y-63158175D01*
X202383002Y-62977418D01*
X202157092Y-62827957D01*
X202157090Y-62827956D01*
X201911824Y-62712980D01*
X201911819Y-62712978D01*
X201911814Y-62712976D01*
X201652442Y-62634942D01*
X201652428Y-62634939D01*
X201536791Y-62617921D01*
X201384439Y-62595500D01*
X201181369Y-62595500D01*
X201181364Y-62595500D01*
X200978844Y-62610323D01*
X200978831Y-62610325D01*
X200714453Y-62669217D01*
X200714446Y-62669220D01*
X200461439Y-62765987D01*
X200225226Y-62898557D01*
X200010822Y-63064112D01*
X199822822Y-63259109D01*
X199822816Y-63259116D01*
X199665202Y-63479419D01*
X199665199Y-63479424D01*
X199541350Y-63720309D01*
X199541343Y-63720327D01*
X199453884Y-63976685D01*
X199453881Y-63976699D01*
X199404681Y-64243068D01*
X199404680Y-64243075D01*
X199394787Y-64513763D01*
X124768259Y-64513763D01*
X124773212Y-64378235D01*
X124743586Y-64108982D01*
X124675072Y-63846912D01*
X124569130Y-63597610D01*
X124428018Y-63366390D01*
X124338747Y-63259119D01*
X124254746Y-63158180D01*
X124254740Y-63158175D01*
X124053002Y-62977418D01*
X123827092Y-62827957D01*
X123827090Y-62827956D01*
X123581824Y-62712980D01*
X123581819Y-62712978D01*
X123581814Y-62712976D01*
X123322442Y-62634942D01*
X123322428Y-62634939D01*
X123206791Y-62617921D01*
X123054439Y-62595500D01*
X122851369Y-62595500D01*
X122851364Y-62595500D01*
X122648844Y-62610323D01*
X122648831Y-62610325D01*
X122384453Y-62669217D01*
X122384446Y-62669220D01*
X122131439Y-62765987D01*
X121895226Y-62898557D01*
X121680822Y-63064112D01*
X121492822Y-63259109D01*
X121492816Y-63259116D01*
X121335202Y-63479419D01*
X121335199Y-63479424D01*
X121211350Y-63720309D01*
X121211343Y-63720327D01*
X121123884Y-63976685D01*
X121123881Y-63976699D01*
X121074681Y-64243068D01*
X121074680Y-64243075D01*
X121064787Y-64513763D01*
X119778634Y-64513763D01*
X119788690Y-61145130D01*
X119808574Y-61078149D01*
X119861514Y-61032552D01*
X119912689Y-61021500D01*
X204599445Y-61021500D01*
X204666484Y-61041185D01*
G37*
%TD.AperFunction*%
%TD*%
%TA.AperFunction,Conductor*%
%TO.N,GND*%
G36*
X192278000Y-97790000D02*
G01*
X191737051Y-97790000D01*
X191635224Y-97670776D01*
X191508571Y-97562604D01*
X191443656Y-97507161D01*
X191443653Y-97507160D01*
X191228859Y-97375533D01*
X190996110Y-97279126D01*
X190751151Y-97220317D01*
X190500000Y-97200551D01*
X190248848Y-97220317D01*
X190003889Y-97279126D01*
X189771140Y-97375533D01*
X189556346Y-97507160D01*
X189556343Y-97507161D01*
X189364776Y-97670776D01*
X189262948Y-97790000D01*
X188468000Y-97790000D01*
X188468000Y-94488000D01*
X192278000Y-94488000D01*
X192278000Y-97790000D01*
G37*
%TD.AperFunction*%
%TD*%
M02*
