M48
; DRILL file {KiCad 7.0.7} date Thu Nov  9 13:21:38 2023
; FORMAT={-:-/ absolute / metric / decimal}
; #@! TF.CreationDate,2023-11-09T13:21:38-08:00
; #@! TF.GenerationSoftware,Kicad,Pcbnew,7.0.7
; #@! TF.FileFunction,Plated,1,2,PTH
FMAT,2
METRIC
; #@! TA.AperFunction,Plated,PTH,ComponentDrill
T1C0.330
; #@! TA.AperFunction,Plated,PTH,ViaDrill
T2C0.400
; #@! TA.AperFunction,Plated,PTH,ComponentDrill
T3C0.800
; #@! TA.AperFunction,Plated,PTH,ComponentDrill
T4C1.000
; #@! TA.AperFunction,Plated,PTH,ComponentDrill
T5C1.100
%
G90
G05
T1
X160.244Y-96.774
X160.244Y-98.074
X160.244Y-99.374
X160.498Y-72.136
X160.498Y-73.436
X160.498Y-74.736
X161.544Y-96.774
X161.544Y-98.074
X161.544Y-99.374
X161.798Y-72.136
X161.798Y-73.436
X161.798Y-74.736
T2
X123.1Y-102.6
X124.25Y-103.65
X126.7Y-99.5
X126.75Y-105.25
X127.25Y-102.6
X127.95Y-100.0
X129.937Y-80.2
X129.937Y-83.0
X132.937Y-129.2
X132.937Y-132.0
X133.437Y-110.2
X133.437Y-113.0
X133.437Y-117.2
X133.437Y-120.0
X133.5Y-80.2
X133.5Y-83.0
X136.437Y-78.2
X136.437Y-81.0
X136.5Y-129.2
X136.5Y-132.0
X136.937Y-64.2
X136.937Y-67.0
X136.984Y-140.39
X136.984Y-143.19
X137.0Y-113.0
X137.0Y-117.2
X137.0Y-120.0
X137.8Y-109.6
X137.937Y-86.7
X137.937Y-89.5
X138.1Y-125.55
X139.0Y-96.4
X140.0Y-78.2
X140.0Y-81.0
X140.5Y-64.2
X140.5Y-67.0
X140.547Y-140.39
X140.547Y-143.19
X140.6Y-112.8
X140.8Y-116.4
X140.8Y-128.2
X141.0Y-100.15
X141.437Y-120.2
X141.437Y-123.0
X141.5Y-86.7
X141.5Y-89.5
X142.0Y-97.6
X142.6Y-125.3
X142.85Y-98.7
X143.8Y-101.45
X143.937Y-129.2
X143.937Y-132.0
X144.11Y-140.39
X144.11Y-143.19
X144.65Y-98.7
X145.0Y-120.2
X145.0Y-123.0
X146.55Y-96.15
X146.7Y-98.7
X147.4Y-125.4
X147.5Y-129.2
X147.5Y-132.0
X147.674Y-140.39
X147.674Y-143.19
X147.95Y-98.7
X148.937Y-78.2
X148.937Y-81.0
X149.0Y-110.2
X150.6Y-74.0
X150.6Y-132.0
X151.237Y-140.39
X151.237Y-143.19
X152.2Y-110.0
X152.5Y-75.5
X152.5Y-78.2
X152.5Y-81.0
X152.7Y-113.55
X152.8Y-72.2
X153.4Y-108.8
X153.4Y-125.2
X153.4Y-129.2
X153.6Y-106.4
X154.0Y-100.4
X154.2Y-97.4
X154.4Y-111.8
X154.5Y-85.2
X154.5Y-88.0
X154.5Y-90.7
X154.5Y-93.5
X154.8Y-140.4
X154.8Y-143.2
X155.0Y-75.5
X155.0Y-108.6
X155.437Y-129.2
X155.437Y-132.0
X156.1Y-70.25
X158.0Y-110.0
X158.5Y-102.0
X158.5Y-104.0
X158.5Y-117.0
X158.5Y-119.0
X159.0Y-129.2
X159.0Y-132.0
X159.012Y-92.5
X159.012Y-94.0
X159.5Y-125.0
X159.512Y-68.0
X159.512Y-69.5
X159.512Y-77.216
X159.512Y-79.0
X160.2Y-110.55
X160.79Y-92.5
X160.79Y-94.0
X160.8Y-121.0
X161.0Y-102.0
X161.0Y-104.0
X161.29Y-68.0
X161.29Y-69.5
X161.29Y-77.216
X161.29Y-79.0
X161.6Y-109.9
X161.8Y-111.4
X162.5Y-92.5
X162.5Y-94.0
X162.6Y-125.0
X163.0Y-68.0
X163.0Y-69.5
X163.8Y-86.6
X163.937Y-129.2
X163.937Y-132.0
X164.85Y-121.6
X165.4Y-81.8
X165.862Y-72.898
X166.0Y-97.5
X166.0Y-114.5
X166.0Y-120.8
X166.0Y-125.0
X166.8Y-116.4
X167.0Y-121.9
X167.1Y-110.0
X167.15Y-112.55
X167.386Y-72.898
X167.5Y-97.5
X167.5Y-129.2
X167.5Y-132.0
X168.0Y-114.5
X168.65Y-111.5
X168.984Y-140.19
X168.984Y-142.99
X169.0Y-72.898
X169.0Y-97.5
X169.2Y-125.0
X169.25Y-116.4
X169.3Y-123.4
X169.35Y-122.0
X169.75Y-112.55
X170.0Y-91.0
X170.5Y-72.898
X170.5Y-84.5
X170.5Y-97.5
X170.85Y-113.7
X170.9Y-117.0
X171.35Y-118.95
X171.4Y-126.4
X172.0Y-72.898
X172.0Y-97.5
X172.2Y-115.05
X172.5Y-68.5
X172.5Y-91.0
X172.547Y-140.19
X172.547Y-142.99
X173.25Y-116.85
X173.25Y-122.6
X173.35Y-120.0
X173.5Y-84.5
X174.3Y-124.65
X175.0Y-68.5
X175.0Y-77.0
X175.0Y-78.5
X175.0Y-80.01
X175.184Y-101.49
X175.184Y-102.99
X175.184Y-104.5
X175.35Y-120.0
X175.4Y-122.45
X175.5Y-91.0
X176.0Y-93.5
X176.11Y-140.19
X176.11Y-142.99
X176.5Y-84.5
X177.0Y-77.0
X177.0Y-78.5
X177.038Y-80.01
X177.184Y-101.49
X177.184Y-102.99
X177.222Y-104.5
X177.5Y-68.5
X178.35Y-126.25
X178.5Y-91.0
X178.816Y-77.0
X178.816Y-78.5
X178.816Y-80.01
X179.0Y-101.49
X179.0Y-102.99
X179.0Y-104.5
X179.5Y-97.5
X179.674Y-140.19
X179.674Y-142.99
X181.55Y-126.3
X182.0Y-98.0
X183.0Y-130.5
X183.237Y-140.19
X183.237Y-142.99
X183.5Y-94.0
X184.55Y-126.3
X186.35Y-130.5
X186.8Y-140.2
X186.8Y-143.0
X187.25Y-126.25
X190.5Y-68.5
X192.4Y-102.6
X192.8Y-105.2
X193.0Y-68.5
X194.6Y-105.2
X194.6Y-107.2
X194.8Y-81.0
X194.8Y-84.4
X194.8Y-86.7
X194.8Y-90.4
X194.8Y-92.4
X194.8Y-95.8
X194.8Y-100.0
X194.85Y-78.1
X194.9Y-72.35
X194.9Y-74.15
X194.9Y-76.0
X198.2Y-104.6
X198.2Y-108.8
T3
X130.302Y-91.186
X130.302Y-93.726
X130.302Y-96.266
X130.302Y-98.806
X130.302Y-101.346
X130.302Y-103.886
X130.302Y-106.426
X130.302Y-108.966
X130.302Y-111.506
X130.302Y-114.046
X130.302Y-116.586
X130.302Y-119.126
X150.622Y-91.186
X150.622Y-93.726
X150.622Y-96.266
X150.622Y-98.806
X150.622Y-101.346
X150.622Y-103.886
X150.622Y-106.426
X150.622Y-108.966
X150.622Y-111.506
X150.622Y-114.046
X150.622Y-116.586
X150.622Y-119.126
X150.622Y-121.666
X150.622Y-124.206
X150.622Y-126.746
X150.622Y-129.286
X169.252Y-78.232
X169.318Y-103.0
X171.752Y-78.232
X171.818Y-103.0
T4
X190.35Y-114.894
X190.35Y-117.434
X190.35Y-119.974
X190.35Y-122.514
X190.35Y-125.054
X190.35Y-127.594
X190.35Y-130.134
X190.35Y-132.674
T5
X190.5Y-71.882
X190.5Y-74.422
X190.5Y-76.962
X190.5Y-79.502
X190.5Y-82.042
X190.5Y-84.582
X190.5Y-89.154
X190.5Y-91.694
X190.5Y-96.266
X190.5Y-98.806
X190.5Y-101.346
X190.5Y-103.886
X190.5Y-106.426
X190.5Y-108.966
T0
M30
